<svg width="79" height="95" viewBox="0 0 79 95" fill="none" xmlns="http://www.w3.org/2000/svg">
<path d="M30.4806 1.14669C29.9725 1.43253 29.2254 1.46256 28.8519 1.22189C28.7624 1.16175 28.6278 1.20683 28.5678 1.29709C28.4931 1.43253 28.3585 1.43253 28.0449 1.28204C27.7166 1.13163 27.6114 1.13163 27.5515 1.28204C27.522 1.3723 27.3873 1.46256 27.2379 1.46256C27.1033 1.46256 26.8948 1.55282 26.8045 1.64308C26.6551 1.79349 26.5508 1.79349 26.3267 1.64308C25.9228 1.40241 25.505 1.41747 23.4871 1.7484C21.7993 2.03416 20.7978 2.38015 20.7978 2.69612C20.7978 2.77132 20.6935 2.8164 20.5736 2.77131C20.4547 2.71108 20.32 2.7412 20.2748 2.8164C20.2149 2.90666 20.0802 2.96681 19.9613 2.96681C19.8414 2.96681 19.573 3.13227 19.3636 3.34291C19.1543 3.55356 18.9154 3.71902 18.8103 3.73399C18.4368 3.76411 17.8843 3.68891 17.7644 3.58358C17.7045 3.52344 17.2719 3.52344 16.7933 3.58358C15.8516 3.71902 15.2992 3.49332 15.1646 2.95184C15.0751 2.65093 14.8657 2.59079 14.5817 2.78638C14.4922 2.84652 14.2534 3.26771 14.0588 3.71902C13.5506 4.93742 13.2075 5.34356 12.2806 5.77981C11.3842 6.21607 10.4877 7.01337 10.4877 7.38938C10.4877 7.52482 10.3383 7.85575 10.1585 8.09642C9.89012 8.45747 9.81541 8.75829 9.81541 9.51041C9.81541 10.0821 9.74071 10.5484 9.63558 10.6537C9.53136 10.759 9.44189 10.9245 9.44189 11.0148C9.44189 11.09 9.20303 11.3757 8.90329 11.6165C8.60448 11.8722 8.23096 12.1881 8.0668 12.3385C7.72372 12.6543 6.87155 13.0455 6.52755 13.0455C6.19922 13.0455 5.98985 13.2862 5.60158 14.1286C5.40698 14.5347 5.19763 14.8506 5.1386 14.8506C4.73465 14.8506 3.91292 16.0841 3.91292 16.7009C3.91292 17.0619 3.52464 17.6636 2.92701 18.2353C2.74717 18.4007 2.44836 18.9422 2.25468 19.4386C2.07484 19.935 1.80646 20.4315 1.65706 20.5218C1.52241 20.627 1.35824 20.9579 1.29829 21.2739C1.2531 21.5898 1.16364 22.011 1.11845 22.2065C1.05943 22.4623 1.08895 22.5375 1.23835 22.4923C1.34257 22.4623 1.59711 22.5976 1.77603 22.7932C2.12003 23.1692 2.22425 23.5754 1.98539 23.5754C1.73176 23.5754 1.65706 24.3276 1.89593 24.6735C2.2095 25.1248 2.17998 26.4185 1.82121 27.3361C1.65705 27.7572 1.52241 28.2687 1.52241 28.4944C1.52241 28.9456 0.790132 30.1942 0.52083 30.1942C0.416614 30.1942 0.327148 30.2544 0.327148 30.3446C0.327148 30.4198 0.431361 30.4951 0.551255 30.4951C0.684984 30.4951 0.850074 30.6756 0.939534 30.9012C1.02899 31.1419 1.16365 31.4428 1.23835 31.5781C1.31306 31.7285 1.31305 31.864 1.22359 31.9241C1.13413 31.9693 1.07418 32.3302 1.07418 32.7214C1.08894 33.3081 1.16365 33.5036 1.52241 33.8646C2.0149 34.346 2.10527 34.6018 1.73175 34.4513C1.53716 34.3761 1.50765 34.4212 1.59711 34.722C1.76127 35.2486 1.86548 35.3087 2.19473 35.053C2.40408 34.8875 2.43361 34.7972 2.31371 34.7522C2.0896 34.677 2.04533 34.2558 2.25468 34.2558C2.32938 34.2558 2.46312 34.4513 2.5535 34.707C2.6282 34.9478 2.77761 35.1583 2.85232 35.1583C2.94178 35.1583 3.01647 35.2636 3.01647 35.3839C3.01647 35.5043 3.12069 35.6096 3.24058 35.6096C3.36048 35.6096 3.4647 35.6547 3.4647 35.7299C3.4647 35.7901 3.80871 36.1965 4.21174 36.6473C4.69039 37.1744 4.95876 37.5955 4.97352 37.8511C4.98919 38.4823 5.07866 38.8132 5.27234 38.9192C5.36272 38.9796 5.39224 39.1144 5.34705 39.2046C5.28802 39.2947 5.30277 39.37 5.39223 39.37C5.48169 39.37 5.51213 39.4602 5.48169 39.5504C5.43743 39.6712 5.66153 39.8516 6.03504 40.017C6.66219 40.2727 7.18512 40.6938 8.978 42.3187C10.7866 43.9585 11.2348 44.0932 12.5942 43.4314C14.0292 42.7398 16.2851 42.6794 17.5403 43.2966C17.7045 43.3719 17.959 43.3412 18.2126 43.2064C19.5877 42.5139 20.6188 42.0779 20.9177 42.0779C21.0966 42.0779 21.2912 41.9729 21.3354 41.8669C21.4406 41.5815 22.6506 41.3259 24.0404 41.2961C24.9221 41.2655 25.161 41.311 25.4303 41.5518C25.8038 41.8976 26.3267 42.8606 26.3267 43.1916C26.3267 43.3115 26.4761 43.5671 26.6698 43.7326C26.9244 43.9882 27.119 44.0338 27.522 43.9585C27.806 43.9129 28.3142 43.8376 28.6425 43.8079C28.9718 43.7623 29.4495 43.7177 29.7188 43.688C30.1071 43.6275 30.2113 43.688 30.2713 43.9733C30.3165 44.1537 30.4954 44.3647 30.6595 44.4093C30.8246 44.4548 30.9583 44.5896 30.9583 44.6956C30.9583 44.8155 31.0487 44.981 31.1677 45.0712C31.4518 45.3119 31.3171 46.7714 30.9436 47.5234C30.7499 47.8999 30.7195 48.0951 30.8394 48.1248C30.9436 48.1704 30.974 48.2903 30.8836 48.4864C30.8246 48.637 30.7342 49.073 30.7047 49.4486C30.63 50.0956 30.4354 50.4116 30.1818 50.261C29.9872 50.1411 30.0472 50.5622 30.2713 51.0437C30.3912 51.2845 30.6005 51.7502 30.7499 52.0811C30.8993 52.4121 31.2729 52.9233 31.556 53.2096C32.6175 54.248 33.9474 56.2336 33.9474 56.7895C33.9474 56.9707 34.0221 57.1511 34.0968 57.1957C34.1863 57.2561 34.2158 57.3463 34.1715 57.4216C34.1263 57.4969 34.2462 57.918 34.4556 58.354C34.6493 58.7909 34.9333 59.5122 35.0975 59.9491C35.3668 60.7309 35.3668 60.7606 35.0827 60.9568C34.8134 61.1669 34.8134 61.2124 35.2921 62.4153C35.6204 63.2584 35.7698 63.8896 35.7551 64.3414C35.7255 65.1232 35.4867 65.8455 35.2321 65.8455C34.9481 65.8603 34.261 67.1087 34.1568 67.8162C34.0369 68.7188 33.6486 70.0574 33.5287 70.0574C33.335 70.0574 33.4245 72.8257 33.6338 73.3221C33.7381 73.5926 33.8875 73.8185 33.9327 73.8185C34.0821 73.8185 34.724 75.1571 35.3668 76.7513C35.5014 77.0822 35.7855 77.6539 36.0096 78.0304C36.3232 78.5714 36.4126 78.9172 36.4274 79.7603C36.4421 80.332 36.5168 81.1436 36.6072 81.5656C36.6967 81.9709 36.8756 82.9191 37.0103 83.6562C37.2943 85.2058 37.5037 85.6864 38.2802 86.5444C38.639 86.9358 38.9526 87.5223 39.1767 88.1991C39.5354 89.3118 40.0288 90.3957 40.2382 90.5305C40.3129 90.576 40.4171 90.9218 40.4623 91.3132C40.5518 91.8998 40.5222 92.0197 40.3276 92.0197C40.2077 92.0197 40.074 92.1098 40.0288 92.2C39.9689 92.411 40.2077 92.9223 40.4319 93.0878C40.5066 93.1482 40.537 93.3583 40.4918 93.5693C40.3876 94.0806 40.6117 94.4422 40.8211 94.1261C40.9105 93.9755 40.9705 93.9606 40.9705 94.0805C40.9705 94.1856 41.0599 94.2767 41.1641 94.2767C41.284 94.2767 41.4934 94.4115 41.6428 94.577C41.9711 94.9534 42.2699 94.9534 42.6434 94.6225C42.8233 94.457 43.1516 94.3669 43.5399 94.3817C43.8839 94.3966 44.3026 94.3064 44.511 94.1707C44.9445 93.8853 46.0208 93.81 46.8425 94.0052C47.2308 94.0954 47.4853 94.0954 47.6191 93.9755C47.739 93.8853 47.9778 93.8249 48.1724 93.8547C48.367 93.8853 48.5008 93.8249 48.486 93.7347C48.4712 93.6297 48.7406 93.5237 49.0984 93.494C49.8906 93.4038 51.4004 92.411 52.2516 91.448C52.4158 91.2528 52.8041 90.8465 53.1333 90.5453C53.6857 90.0043 54.7168 88.53 54.7168 88.2744C54.7168 88.0782 55.7184 87.0557 55.9121 87.0557C56.0772 87.0557 56.3456 86.4989 56.7191 85.3257C56.9884 84.4835 57.0483 83.3699 56.8094 83.5205C56.5401 83.686 56.66 83.3253 57.0031 82.9191C57.183 82.7081 57.8101 82.3474 58.3782 82.1066C59.14 81.8054 59.5135 81.5498 59.7681 81.1891C59.9765 80.8731 60.0512 80.6323 59.9617 80.5421C59.8723 80.452 59.8723 80.2567 59.9765 80.0011C60.1711 79.5196 60.1416 78.3158 59.947 78.1206C59.8575 78.0304 59.7976 77.8947 59.7976 77.8194C59.7976 77.7292 59.8723 77.759 59.947 77.8798C60.0669 78.0601 60.0964 78.0453 60.0964 77.759C60.0964 77.5786 60.0217 77.4438 59.9175 77.4587C59.8124 77.4884 59.7376 77.2932 59.7229 76.9772C59.7081 76.6909 59.6187 76.4352 59.5135 76.4055C59.4241 76.3757 59.3494 76.1945 59.3494 76.0141C59.3494 75.6237 60.694 74.1187 61.0528 74.1187C61.1874 74.1187 61.2917 74.0592 61.2917 73.9988C61.2917 73.9384 61.4116 73.7125 61.561 73.5173C62.0986 72.7801 62.652 72.3442 63.4885 71.9984C63.9662 71.8171 64.3849 71.607 64.4301 71.5614C64.4744 71.502 64.6091 71.396 64.7437 71.3207C65.132 71.1106 66.1335 69.7413 66.342 69.125C66.4914 68.6881 66.4914 68.4176 66.3724 67.9212C66.2673 67.5605 66.2083 66.432 66.223 65.3193C66.2673 62.8067 66.283 62.9117 65.879 62.7313C65.5949 62.5966 65.4603 62.3409 65.2814 61.5285C64.9531 60.2196 64.9678 60.0244 65.3266 59.9333C65.4907 59.8887 65.6254 59.7678 65.6254 59.6777C65.6254 59.5726 65.5202 59.5271 65.4013 59.5875C65.1025 59.6925 64.9226 59.2715 65.132 58.9405C65.2519 58.7453 65.1919 58.565 64.8627 58.1587C64.6238 57.8882 64.4301 57.5415 64.4301 57.4216C64.4301 57.1055 64.9226 55.7065 65.072 55.6015C65.2214 55.4964 65.9094 53.9013 66.0284 53.39C66.0736 53.2096 66.2525 52.9838 66.4167 52.8936C66.8806 52.638 67.6571 51.7958 67.9559 51.2389C68.5988 49.9608 70.6158 47.779 71.8415 46.9973C72.6484 46.4851 75.0242 43.8683 75.0389 43.4769C75.0389 43.4165 75.2778 42.9805 75.5619 42.5297C75.8459 42.0779 76.0848 41.5964 76.0848 41.4458C76.0848 41.1455 76.996 39.1748 77.1758 39.0995C77.2358 39.0698 77.28 38.9796 77.28 38.8885C77.28 38.8132 77.4442 38.4079 77.6536 37.9859C77.8629 37.5806 78.0271 37.0089 78.0271 36.7077C78.0271 36.3164 78.1018 36.1658 78.3259 36.1063C78.6395 36.0157 78.7299 35.8202 78.4753 35.7299C78.3407 35.6848 78.266 34.8875 78.3563 34.346C78.431 33.9248 77.803 33.7443 77.4746 34.0903C77.1454 34.4212 75.8607 34.8725 75.5471 34.7522C75.4272 34.707 75.1579 34.7522 74.9642 34.8575C74.7696 34.9627 74.4561 35.0079 74.2772 34.9627C74.0826 34.9026 73.7985 34.9928 73.5449 35.1884C73.2461 35.399 72.9768 35.4742 72.6328 35.4291C72.3044 35.3839 71.9752 35.4441 71.6764 35.6247C70.8998 36.1063 70.3317 35.9104 69.7341 34.9627C69.5847 34.7371 69.3163 34.5115 69.1069 34.4663L68.7482 34.3761L69.0922 34.1955C69.6594 33.9098 69.5994 33.4735 68.8828 32.7214C68.5241 32.3453 68.1358 31.8941 68.0159 31.7136C67.896 31.5481 67.7318 31.3976 67.6424 31.3976C67.5677 31.3976 67.3731 31.187 67.2384 30.9464C67.089 30.6906 66.8649 30.45 66.7155 30.3897C66.5661 30.3296 66.3577 30.1942 66.2525 30.0889C66.1483 29.9987 65.9685 29.9385 65.8643 29.9836C65.7296 30.0287 65.6401 29.9235 65.5949 29.6828C65.535 29.412 65.5802 29.2916 65.7296 29.2916C65.9094 29.2916 65.9094 29.2616 65.7148 29.066C65.4308 28.7651 65.3708 28.7802 65.2666 29.1713C65.1772 29.5173 65.1615 29.5173 64.953 29.2164C64.8184 29.0509 64.6542 28.6448 64.5795 28.3139C64.1608 26.5839 63.9515 26.1477 63.2192 25.5761C62.3827 24.9142 62.1733 24.4329 62.1281 22.9737C62.0986 22.402 61.9944 21.8304 61.904 21.7101C61.7998 21.5747 61.6956 21.3039 61.6799 21.0934C61.6799 20.8827 61.6357 20.7173 61.5905 20.7173C61.5462 20.7173 61.2317 20.4615 60.873 20.1457C60.1711 19.5138 59.7524 18.4609 60.2163 18.4609C60.3805 18.4609 60.3353 18.3556 60.0512 18.0998C59.8428 17.9042 59.484 17.3477 59.2295 16.8664C58.9906 16.37 58.6466 15.7231 58.4677 15.4072C58.3035 15.0913 58.1541 14.7603 58.1541 14.6551C58.1541 14.5498 58.0342 14.294 57.8996 14.0985C57.7502 13.8879 57.6155 13.6021 57.6007 13.4516C57.5712 13.2862 57.3167 12.895 57.0336 12.5491C56.7495 12.2181 56.5106 11.7819 56.5106 11.6014C56.5106 11.4058 56.4507 11.2253 56.376 11.1652C56.2865 11.12 56.1814 10.6085 56.1214 10.0369C56.0772 9.46532 55.9425 8.87867 55.8374 8.72826C55.4491 8.20174 53.671 8.38227 53.0134 9.01401C52.8345 9.17947 52.5799 9.26974 52.401 9.22465C52.2369 9.19453 51.8034 9.07415 51.4299 8.99895C51.0564 8.90869 50.6229 8.77334 50.4587 8.69814C49.921 8.45747 48.9195 8.26189 48.546 8.33709C48.2619 8.39724 48.1429 8.33709 48.0682 8.09642C47.9935 7.85575 47.8432 7.78055 47.5001 7.78055C46.6931 7.78055 45.9461 7.4947 45.8566 7.17883C45.8114 6.99831 45.6473 6.87793 45.4831 6.87793C45.3033 6.87793 45.1243 6.80273 45.0792 6.72752C44.855 6.36647 43.4357 6.6974 42.7633 7.26909C42.3004 7.67523 42.1657 8.35215 42.4498 8.81843C42.6886 9.2096 42.091 10.0219 41.5533 10.0369C41.4334 10.0369 41.0599 9.84134 40.7307 9.61573C40.1183 9.16442 39.1767 8.83349 38.5643 8.83349C38.0414 8.83349 37.5784 8.45747 37.4585 7.9159C37.3838 7.61508 37.2196 7.40444 36.966 7.29912C36.7419 7.20886 36.3674 7.04339 36.1286 6.90805C35.8602 6.7727 35.352 6.68244 34.9038 6.6974C34.4104 6.71246 33.917 6.60723 33.5139 6.42671C32.9163 6.1258 32.5124 5.65952 32.707 5.46394C32.7522 5.41885 32.6922 5.37368 32.5576 5.37368C32.4229 5.37368 32.3039 5.43382 32.3039 5.52409C32.3039 5.77981 31.8705 5.68955 31.7054 5.38874C31.5864 5.14807 31.6464 5.02769 32.0051 4.71182C32.2588 4.50117 32.5576 4.36583 32.6774 4.41091C32.7964 4.47115 32.9016 4.42597 32.9016 4.32065C32.9016 4.23048 32.8269 4.20036 32.7522 4.24544C32.647 4.30568 32.6323 4.14022 32.6922 3.74905C32.7669 3.2376 32.7365 3.11731 32.4681 2.98187C32.0946 2.77132 32.0641 2.44038 32.3934 2.10945C32.5124 1.97401 32.5871 1.77843 32.5428 1.65814C32.4976 1.53776 32.528 1.49268 32.6027 1.53776C32.6922 1.58294 32.7522 1.56788 32.7522 1.49268C32.7522 1.20683 32.5428 1.17681 32.2735 1.41747C32.0051 1.65814 31.9894 1.65814 31.9147 1.35724C31.84 1.10151 31.4813 0.875899 31.1078 0.86084C31.0635 0.86084 30.7794 0.996279 30.4806 1.14669ZM58.9906 49.72C59.1105 49.8855 59.1253 50.0351 59.0201 50.156C58.9454 50.261 58.9159 50.3967 58.9611 50.472C59.0506 50.6375 58.737 51.4044 58.5719 51.4044C58.4972 51.4044 58.4529 51.4797 58.4529 51.5699C58.4529 51.6749 58.333 51.8404 58.1984 51.9463C57.9448 52.1416 57.9448 52.1713 58.1984 52.3675C58.5719 52.6677 58.3478 52.7579 57.5565 52.6082C57.1525 52.5329 56.8094 52.5478 56.7043 52.6231C56.4202 52.8638 56.3455 52.5329 56.4359 51.45C56.5853 49.8399 56.6001 49.7953 57.2125 49.5992C57.5261 49.4941 57.8405 49.3584 57.9152 49.2989C58.0794 49.1334 58.7517 49.3891 58.9906 49.72ZM53.8204 55.4964C53.8204 55.7214 53.8951 55.9473 53.9846 55.9928C54.0749 56.0523 54.1044 56.2029 54.0593 56.3237C54.015 56.4437 54.0445 56.6844 54.134 56.8648C54.2686 57.1055 54.2686 57.1957 54.134 57.2412C53.8351 57.3463 53.955 57.8724 54.3285 58.0081C54.6873 58.1587 54.8662 58.4599 54.8662 58.9405C54.8662 59.106 55.0313 59.5726 55.2398 59.9789C55.7037 60.8964 55.7037 60.9112 55.2398 60.7011C55.0009 60.5952 54.8819 60.4455 54.9409 60.3098C54.9861 60.2047 54.9114 59.964 54.7915 59.7836C54.6726 59.6024 54.5674 59.3616 54.5674 59.2566C54.5674 59.1367 54.3737 58.8057 54.1192 58.5194C53.8803 58.2489 53.6562 57.9031 53.6415 57.7525C53.6415 57.6168 53.611 57.2859 53.5815 57.0451C53.552 56.7895 53.5068 56.0523 53.4773 55.3904C53.4321 54.3075 53.4469 54.2322 53.611 54.6384C53.7162 54.8792 53.8056 55.2705 53.8204 55.4964ZM59.2 62.3855C59.2894 62.551 59.3789 63.0028 59.4093 63.3635C59.4241 63.7399 59.5283 64.1304 59.6187 64.2205C59.8428 64.4464 59.8575 65.0479 59.6482 65.1687C59.4388 65.3035 59.5587 67.3951 59.7828 67.4704C59.8723 67.5001 59.947 67.5903 59.947 67.6656C59.947 67.7557 59.8871 67.7706 59.7976 67.726C59.7229 67.6804 59.6482 67.7111 59.6482 67.7864C59.6482 67.8766 59.5735 67.9519 59.484 67.9519C59.3946 67.9519 59.3641 67.8162 59.4241 67.6507C59.484 67.4704 59.4536 67.2593 59.3789 67.1543C59.2295 66.9591 59.0054 65.7999 59.0358 65.3193C59.14 63.5289 59.1105 63.0177 58.9454 62.6867C58.8412 62.4757 58.7517 62.2656 58.7517 62.1903C58.7517 61.9644 59.0506 62.1002 59.2 62.3855Z" fill="white"/>
<path d="M75.7861 65.4243C75.6662 65.6195 75.562 65.996 75.5325 66.2814C75.4873 66.9135 75.3978 67.0037 75.039 66.7778C74.8002 66.6281 74.7402 66.6281 74.7402 66.8085C74.7402 66.9284 74.8297 67.0641 74.9339 67.1087C75.0243 67.1543 74.9643 67.1543 74.7845 67.1087C74.4414 67.0334 74.3815 67.1245 74.4267 67.6804C74.4414 67.8161 74.3815 67.9667 74.292 68.0271C74.2173 68.0718 74.1426 68.2521 74.1426 68.4027C74.1426 68.5979 74.0679 68.6583 73.9185 68.6137C73.7838 68.5533 73.6944 68.6137 73.6944 68.7485C73.6944 69.0497 72.6329 69.8017 71.8259 70.0722C71.4976 70.1782 71.1692 70.3279 71.0945 70.3883C71.0041 70.4487 70.7957 70.5091 70.6011 70.5091C70.3318 70.5091 70.2571 70.5844 70.2571 70.9154C70.2571 71.1552 70.1225 71.5317 69.9731 71.7724C69.6742 72.2233 69.6742 72.5849 69.9731 74.3148C70.1529 75.3225 70.1529 75.3522 69.7194 76.1945C69.4806 76.6611 69.226 77.0971 69.167 77.1426C68.6432 77.5191 68.4495 78.8875 68.823 79.5949C68.9429 79.8356 69.0019 80.2567 68.9576 80.6472C68.9125 81.0385 68.9429 81.3397 69.0471 81.4001C69.1366 81.4596 69.2113 81.6251 69.2113 81.7757C69.2113 82.1066 69.6595 82.5426 70.0035 82.5426C70.1381 82.5426 70.2571 82.603 70.2571 82.6932C70.2571 82.919 71.0346 82.8586 71.3629 82.6179C71.5271 82.4979 71.8416 82.3929 72.0657 82.3929C72.5139 82.3929 73.0968 81.7905 73.0968 81.3546C73.0968 81.2188 73.1862 80.9781 73.3052 80.8126C73.4103 80.6471 73.5892 80.1359 73.6944 79.685C73.8133 79.2333 74.0227 78.6169 74.1573 78.3158C74.3068 78.0155 74.5161 77.4438 74.6056 77.0376C74.7098 76.6314 75.039 75.6534 75.3526 74.841C75.6662 74.0434 75.965 73.1259 76.0102 72.8099C76.1891 71.7269 76.2343 71.5614 76.4289 71.607C76.6078 71.6367 76.6226 71.5019 76.4436 70.3585L76.3385 69.6818L76.6373 70.0425L76.9361 70.419L77.1907 69.9374C77.3696 69.5758 77.4 69.3806 77.2801 69.1696C77.2054 69.0041 77.1307 68.5682 77.1307 68.2075C77.1307 67.8459 77.056 67.3197 76.9666 67.0334C76.7572 66.3716 76.1744 65.1083 76.0849 65.0934C76.0397 65.0934 75.906 65.244 75.7861 65.4243Z" fill="white"/>
</svg>
