<svg width="282" height="67" viewBox="0 0 282 67" fill="none" xmlns="http://www.w3.org/2000/svg">
<g clip-path="url(#clip0)">
<path fill-rule="evenodd" clip-rule="evenodd" d="M106.25 67.0177L46.6253 67.081C46.6253 67.081 44.4193 65.9352 44.468 65.5838C44.5167 65.2323 45.1639 65.2253 46.1939 65.2393C47.2238 65.2534 47.8779 64.6137 46.1939 64.1498C44.5098 63.6858 42.1368 63.7983 42.3455 63.1305C42.3455 62.8494 45.2474 62.772 43.4103 62.048C41.5731 61.324 37.2794 61.7598 36.8479 60.6421C36.4164 59.5245 37.0636 59.5596 37.9266 59.7494C38.7895 59.9392 41.9071 60.5226 40.9537 59.2433C40.0003 57.964 43.1736 58.21 44.0992 58.0624C45.0247 57.9148 53.5843 57.9077 54.9761 57.5914C56.3679 57.2751 57.8363 56.7057 58.3373 56.9447C58.8384 57.1837 59.7291 57.9569 59.9588 57.6476C60.1884 57.3384 61.3506 57.7461 62.1091 58.0061C62.8676 58.2662 65.5886 58.6599 65.5886 57.9358C65.5886 57.2118 63.5009 56.4667 63.6053 55.9817C63.7097 55.4967 66.3889 55.4756 67.3284 55.6232C67.8065 55.6463 68.2564 55.8584 68.581 56.2137C68.9359 56.4878 69.7362 56.2137 70.0841 55.9114C70.4321 55.6091 71.1558 55.8411 71.3855 55.9957C71.6172 56.0789 71.8657 56.1025 72.1086 56.0644C72.3516 56.0264 72.5814 55.9279 72.7773 55.7778C73.0487 55.4404 73.849 55.5599 74.1691 55.9114C74.4892 56.2629 74.7954 56.1223 75.1155 56.066C75.4356 56.0098 75.7001 56.2699 76.0689 56.4527C76.9601 56.6071 77.8765 56.4325 78.6507 55.9606C78.8697 55.7293 79.169 55.5927 79.4856 55.5796C79.8023 55.5665 80.1116 55.6779 80.3487 55.8903C81.2224 56.3648 82.1961 56.6203 83.188 56.6354C83.6125 56.4878 83.8073 55.9325 83.188 55.3842C82.5686 54.8359 81.6152 53.43 81.7962 52.706C81.9771 51.982 82.9653 52.5865 83.3689 52.9239C83.7725 53.2613 83.8978 53.0223 83.689 52.5584C83.4802 52.0945 83.3341 51.989 83.6333 51.511C83.9326 51.033 85.6514 48.6149 86.4656 48.3267C87.2799 48.0385 87.9201 47.7433 88.2263 48.1299C88.5325 48.5165 88.5881 48.9523 87.6069 49.578C86.6257 50.2036 85.1991 51.7922 87.3703 52.3897C89.5415 52.9872 91.3996 55.6654 91.5457 56.4597C91.6919 57.254 91.2117 58.7794 90.1539 58.8497C89.0962 58.92 86.0968 59.9814 86.1386 60.5437C86.1803 61.1061 86.2082 61.4857 87.76 61.6895C89.3119 61.8934 90.3697 61.9426 90.9542 62.2448C92.4307 62.7371 93.9787 62.9748 95.5332 62.9478C96.7859 62.8283 96.6536 62.8283 97.5026 63.1305C98.3516 63.4328 100.244 62.8494 100.683 62.6455C100.996 62.4979 104.058 62.7017 106.285 62.758L106.25 67.0177ZM106.285 62.758V67.0459V62.758Z" fill="white"/>
<path fill-rule="evenodd" clip-rule="evenodd" d="M106.25 67.0178C128.742 67.0178 154.1 66.9756 175.75 66.9686V54.8289C175.23 55.0965 174.687 55.3153 174.128 55.4826C172.576 55.82 173.871 54.2806 174.657 53.7956C175.444 53.3106 176.348 51.6306 176.16 51.2931C175.972 50.9557 173.321 50.7167 171.289 50.5199C169.257 50.3231 167.469 49.3671 166.592 49.339C165.778 49.3869 164.994 49.6592 164.323 50.1263C163.752 50.4637 161.686 50.2177 161.031 50.4988C160.224 50.9076 159.344 51.1467 158.443 51.2018C157.691 51.1315 157.67 51.2791 155.896 52.0453C154.121 52.8115 153.112 51.7008 152.256 51.5673C151.4 51.4337 150.864 52.6287 150.454 52.699C149.451 52.833 148.474 53.1222 147.559 53.5566C146.271 54.1822 143.314 53.4933 142.896 53.409C142.479 53.3246 138.324 53.409 138.025 53.3598C137.372 53.2558 136.709 53.2228 136.049 53.2614C135.003 53.227 133.957 53.3454 132.945 53.6128C131.595 54.0697 128.964 54.5266 128.721 54.3158C128.527 54.159 128.304 54.0439 128.064 53.9774C127.825 53.9109 127.575 53.8945 127.329 53.9291C126.939 54.0486 126.633 54.4563 126.362 54.4915C126.09 54.5266 125.339 54.1822 125.067 54.1963C124.796 54.2103 123.982 54.4493 123.773 54.4704C123.564 54.4915 121.991 54.4071 121.748 54.625C121.504 54.843 121.567 55.4405 121.198 55.574C120.829 55.7076 119.66 55.4053 119.424 56.1645C119.187 56.9236 116.431 58.7513 115.38 58.6599C113.241 58.7217 111.12 59.0764 109.075 59.7143C107.725 60.2555 109.771 61.3873 110.78 61.6403C111.79 61.8934 109.535 62.526 108.247 62.7158C107.552 62.7635 106.855 62.7635 106.16 62.7158L106.25 67.0178Z" fill="white"/>
<path fill-rule="evenodd" clip-rule="evenodd" d="M175.7 54.8288C178.484 53.5073 183.508 50.6674 184.287 50.4003C185.269 50.0629 188.985 50.0418 189.855 49.6974C190.724 49.3529 191.998 49.9153 192.548 50.2035C193.097 50.4917 195.004 49.7255 195.366 49.5005C195.728 49.2756 196.758 49.7677 197.175 49.9364C197.593 50.1051 198.059 49.6482 198.609 49.2334C199.159 48.8187 202.256 48.8749 202.951 49.2826C203.647 49.6903 205.359 49.8169 205.881 49.4513C206.403 49.0858 209.006 49.2334 209.743 49.4513C211.025 49.6204 212.324 49.6204 213.606 49.4513C214.526 49.3604 215.453 49.536 216.278 49.9575C216.897 50.3441 217.83 49.9575 218.366 49.5779C218.902 49.1983 220.634 49.5779 221.149 49.4513C221.764 49.2857 222.335 48.9831 222.819 48.5656C222.911 48.4704 223.028 48.4034 223.156 48.3723C223.283 48.3412 223.417 48.3474 223.542 48.39C223.666 48.4327 223.776 48.5101 223.859 48.6134C223.942 48.7166 223.994 48.8414 224.009 48.9733C224.009 49.4513 225.847 49.4443 226.633 49.4935C226.885 49.5026 227.128 49.5888 227.331 49.7407C227.534 49.8925 227.686 50.103 227.767 50.3441C227.865 50.576 228.115 50.6815 228.916 50.4917C229.716 50.3019 231.08 51.0892 231.664 51.4406C232.249 51.7921 234.288 51.7218 234.601 52.2279C234.914 52.734 236.202 53.7181 237.329 53.451C238.456 53.1839 239.291 52.7481 239.236 54.154C239.18 55.5598 237.552 55.7004 236.967 55.8762C235.449 56.2803 233.908 56.5948 232.353 56.8181C231.4 56.8884 226.536 59.1589 226.556 59.8337C226.577 60.5085 230.732 59.5384 233.286 58.8917C235.84 58.245 237.002 58.723 238.853 58.962C240.704 59.201 241.998 59.5736 242.5 59.5033C243.001 59.433 246.842 59.3486 244.483 60.6702C242.124 61.9917 232.158 67.1934 226.703 67.0458C224.504 66.9895 203.091 66.9755 175.749 66.9825L175.7 54.8288ZM175.749 66.9825V54.8288V66.9825Z" fill="white"/>
<path fill-rule="evenodd" clip-rule="evenodd" d="M141.045 65.5275C140.999 65.5129 140.959 65.4805 140.936 65.4372C140.913 65.3939 140.907 65.3431 140.92 65.2956C140.933 65.249 140.964 65.2095 141.005 65.1858C141.047 65.1621 141.096 65.1561 141.143 65.169C141.184 65.1833 141.218 65.2113 141.241 65.2484C141.264 65.2856 141.273 65.3295 141.268 65.3729C141.258 65.4228 141.229 65.4667 141.187 65.4955C141.146 65.5244 141.095 65.5358 141.045 65.5275V65.5275Z" stroke="white" stroke-width="0.09" stroke-miterlimit="10"/>
</g>
<defs>
<clipPath id="clip0">
<rect width="282" height="67" fill="white"/>
</clipPath>
</defs>
</svg>
