<svg width="140" height="100" viewBox="0 0 140 100" fill="none" xmlns="http://www.w3.org/2000/svg">
<path d="M85.7168 7.46997C85.7168 7.7257 86.1502 7.96637 86.4343 7.87611C86.628 7.81596 86.7626 7.86105 86.8226 8.01155C86.8825 8.16195 86.8078 8.23716 86.5985 8.23716C86.4186 8.23716 86.3439 8.2973 86.4039 8.40262C86.4491 8.49288 86.6427 8.523 86.8373 8.47782C87.0172 8.43274 87.7338 8.46277 88.4061 8.55303C89.6318 8.70353 90.0201 8.64329 89.6014 8.38756C89.2279 8.14689 87.8684 7.78584 87.3308 7.78584C87.0615 7.78584 86.7027 7.68062 86.5533 7.56024C86.225 7.31957 85.7168 7.25942 85.7168 7.46997Z" fill="white"/>
<path d="M43.2056 0.896322C42.1893 1.15204 42.1146 1.18213 42.4586 1.31752C42.7417 1.43786 42.7418 1.4529 42.4282 1.4529C41.9357 1.46794 41.8601 1.75375 42.2493 2.15991C42.6228 2.55102 42.9216 2.62623 43.0258 2.32538C43.0858 2.17495 43.1153 2.17495 43.1153 2.32538C43.1309 2.43068 43.2352 2.52093 43.3551 2.52093C43.474 2.52093 43.5792 2.43068 43.5792 2.32538C43.5792 2.20503 43.6234 2.20503 43.7138 2.35547C43.7885 2.4758 43.9527 2.52093 44.0873 2.4758C44.2211 2.41563 44.625 2.4758 44.9681 2.59614C45.6561 2.82179 47.7626 3.12264 48.7641 3.12264C49.4365 3.12264 49.7796 2.85187 49.2723 2.71649C49.0925 2.67136 48.9578 2.52093 48.9578 2.37051C48.9578 2.02453 48.6 1.90418 47.4342 1.82897C46.2537 1.75375 45.9097 1.64845 46.1043 1.40777C46.2233 1.27238 46.0296 1.18213 45.3269 1.03171C43.8632 0.730847 43.8328 0.730847 43.2056 0.896322Z" fill="white"/>
<path d="M118.888 41.5718C118.888 41.6921 118.828 41.7522 118.739 41.7072C118.664 41.662 118.59 41.6921 118.59 41.7824C118.59 41.8877 118.679 41.9328 118.799 41.8877C119.172 41.7373 120.158 43.1964 119.994 43.6627C119.949 43.768 119.979 43.9034 120.069 43.9635C120.397 44.1591 120.218 44.3095 119.8 44.1892C119.247 44.0387 119.113 44.1591 119.426 44.5051C119.635 44.7458 119.65 44.791 119.457 44.8662C119.322 44.9263 119.232 45.1519 119.232 45.4378C119.232 45.7085 119.262 45.8288 119.292 45.7386C119.397 45.4528 120.039 45.9342 120.144 46.3855C120.248 46.7916 120.637 46.8668 120.771 46.5208C120.831 46.4005 120.951 46.2952 121.07 46.2952C121.474 46.2952 121.279 46.0094 120.681 45.7536C120.353 45.6032 120.084 45.4378 120.084 45.3626C120.084 45.1971 120.293 45.2121 120.488 45.4076C120.607 45.528 120.727 45.513 120.951 45.3776C121.189 45.2271 121.384 45.2422 122.071 45.528C122.534 45.7236 122.982 45.8288 123.088 45.7536C123.206 45.6935 123.222 45.7085 123.162 45.8139C123.102 45.9191 123.132 45.9943 123.222 45.9943C123.341 45.9943 123.372 45.8589 123.312 45.6333C123.177 45.0616 123.356 44.791 123.879 44.791C124.372 44.7759 124.866 44.49 124.866 44.2193C124.866 44.129 124.76 44.0839 124.627 44.1441C124.447 44.2193 124.403 44.114 124.432 43.5423C124.462 43.061 124.522 42.8805 124.671 42.9406C124.776 42.9858 124.866 42.9557 124.866 42.8654C124.866 42.7902 124.731 42.6849 124.567 42.6398C124.312 42.5797 124.253 42.6549 124.179 43.1513C124.073 43.768 123.82 43.8131 123.82 43.1964C123.82 42.7602 123.58 42.715 123.446 43.1362C123.356 43.4221 123.326 43.4221 122.281 43.0309C121.309 42.6849 120.592 42.3239 120.382 42.0833C120.233 41.9027 119.217 41.3311 119.053 41.3311C118.963 41.3311 118.888 41.4364 118.888 41.5718Z" fill="white"/>
<path d="M121.13 46.6712C121.13 46.8066 121.055 46.8668 120.966 46.8066C120.846 46.7314 120.816 46.8216 120.891 47.0924C120.936 47.318 120.906 47.5287 120.816 47.5737C120.712 47.6489 120.742 47.7693 120.906 47.9499C121.026 48.0852 121.1 48.3109 121.04 48.4613C120.98 48.6268 121.026 48.702 121.19 48.702C121.31 48.702 121.489 48.8373 121.578 49.0028C121.818 49.4692 121.862 50.8531 121.638 51.1088C121.444 51.3345 121.429 51.3946 121.429 51.7858C121.429 51.9211 121.25 52.1016 121.026 52.207C120.787 52.2972 120.563 52.4476 120.503 52.5379C120.339 52.7484 120.069 52.2972 120.173 51.9813C120.279 51.6503 120.069 51.545 119.756 51.7707C119.546 51.9211 119.546 51.9963 119.725 52.3122C119.83 52.5228 119.92 52.598 119.935 52.4777C119.935 52.3574 119.965 52.2972 120.009 52.3423C120.099 52.4326 119.741 53.2148 119.606 53.2148C119.426 53.2148 119.457 53.7864 119.636 53.8466C119.725 53.8767 119.725 53.982 119.636 54.1023C119.532 54.2828 119.472 54.2828 119.277 54.1324C119.098 53.982 118.889 53.9669 118.306 54.1173C117.903 54.2076 117.409 54.2828 117.215 54.2677C116.588 54.2076 116.349 54.2677 116.349 54.4483C116.349 54.704 115.602 55.5464 115.273 55.6668C115.123 55.7119 115.004 55.8924 115.004 56.0578C115.004 56.2233 114.914 56.4339 114.824 56.5242C114.72 56.6145 114.48 56.81 114.287 56.9605L113.943 57.2613L114.347 57.7126C114.571 57.9683 114.81 58.1338 114.899 58.0735C114.988 58.0285 115.004 58.0435 114.959 58.1338C114.899 58.209 115.048 58.555 115.273 58.8708C115.497 59.1867 115.676 59.5628 115.676 59.6832C115.676 59.8035 115.826 59.9239 116.02 59.9539C116.199 59.984 116.349 60.0893 116.349 60.1796C116.349 60.2848 116.498 60.1946 116.692 59.984C116.976 59.6681 117.021 59.4575 116.991 58.6302C116.976 58.0735 116.961 57.5771 116.932 57.5019C116.872 57.1259 116.976 57.1409 117.409 57.5622C117.903 58.0586 118.381 58.1939 118.231 57.7878C118.112 57.4869 118.395 56.9754 118.665 56.9754C118.785 56.9754 118.889 57.0357 118.889 57.1259C118.889 57.4117 119.113 57.2763 119.292 56.8852C119.382 56.6746 119.441 56.4189 119.397 56.2985C119.352 56.1933 119.382 56.0578 119.472 55.9977C119.561 55.9525 119.636 55.9977 119.636 56.1181C119.636 56.3888 120.233 56.9303 120.592 57.0056C120.816 57.0357 120.906 56.9303 121.011 56.5542C121.086 56.2835 121.235 56.0729 121.354 56.0729C121.683 56.0729 121.623 55.6517 121.279 55.5464C121.115 55.5013 120.98 55.396 120.98 55.3208C120.98 55.2606 121.115 55.2305 121.279 55.2756C121.444 55.3208 121.578 55.396 121.578 55.4561C121.578 55.5013 121.877 55.5464 122.25 55.5464C122.864 55.5464 122.924 55.5164 122.924 55.1704L122.938 54.7943L123.162 55.2155C123.416 55.6968 123.73 55.6066 123.625 55.0801C123.551 54.6589 123.835 54.5987 124.178 54.9597C124.403 55.1704 124.432 55.1704 124.657 54.9597C124.776 54.8244 124.836 54.6439 124.791 54.5687C124.731 54.4784 124.761 54.3129 124.851 54.2076C124.97 54.0572 124.941 53.9218 124.717 53.666C124.552 53.4705 124.403 53.1847 124.403 53.0042C124.387 52.8236 124.358 52.583 124.343 52.4627C124.328 52.3423 124.298 52.1317 124.283 51.9963C124.283 51.861 124.134 51.6052 123.969 51.4097C123.804 51.2141 123.671 50.9734 123.671 50.8531C123.671 50.7026 123.76 50.6726 123.969 50.7327C124.134 50.7929 124.268 50.7629 124.268 50.6726C124.268 50.5823 124.208 50.5071 124.119 50.5071C124.044 50.5071 123.969 50.1762 123.969 49.77C123.969 49.063 123.924 48.9728 122.998 48.01C122.46 47.4535 122.026 46.8968 122.026 46.7915C122.026 46.6863 121.937 46.596 121.818 46.596C121.698 46.596 121.503 46.5508 121.37 46.5057C121.205 46.4455 121.13 46.4907 121.13 46.6712ZM121.877 47.1075C121.877 47.1375 121.773 47.1977 121.653 47.2579C121.534 47.303 121.429 47.2729 121.429 47.1977C121.429 47.1075 121.534 47.0472 121.653 47.0472C121.773 47.0472 121.877 47.0774 121.877 47.1075ZM119.142 55.5464C119.262 55.8773 119.142 55.9525 118.679 55.8322C118.366 55.757 118.321 55.6968 118.455 55.5313C118.679 55.2456 119.023 55.2606 119.142 55.5464ZM118.052 55.9977C117.947 56.2534 117.604 56.2985 117.469 56.088C117.409 55.9676 117.604 55.8624 118.022 55.7871C118.082 55.7871 118.097 55.8773 118.052 55.9977ZM116.752 56.2534C116.708 56.3738 116.662 56.3286 116.662 56.1632C116.648 55.9977 116.692 55.9074 116.737 55.9676C116.782 56.0128 116.797 56.1481 116.752 56.2534ZM117.185 56.3286C117.081 56.7348 116.722 57.1259 116.468 57.1259C116.409 57.1259 116.364 57.0357 116.393 56.9303C116.409 56.825 116.229 56.7348 115.945 56.7047C115.676 56.6746 115.452 56.5844 115.452 56.4941C115.452 56.3888 115.706 56.3738 116.184 56.434C116.841 56.5242 116.932 56.4941 117.021 56.2233C117.171 55.7721 117.29 55.8623 117.185 56.3286Z" fill="white"/>
<path d="M52.9032 4.16047C52.4992 4.341 52.3351 4.74713 52.5592 5.01792C52.6938 5.19844 52.6044 5.22856 52.051 5.22856C51.6775 5.22856 51.3492 5.2887 51.3187 5.36391C51.304 5.43911 51.0199 5.54443 50.7064 5.58952C50.2876 5.64975 50.1687 5.63469 50.2434 5.51431C50.3928 5.25859 47.4941 5.46923 47.2396 5.74002C47.1353 5.84524 46.582 5.98068 46.0295 6.02577C45.4762 6.08601 44.8638 6.23641 44.6692 6.37176C44.4451 6.5072 44.162 6.56734 43.9378 6.52216C43.7285 6.46202 43.5791 6.49214 43.5791 6.5824C43.5791 6.65761 43.4739 6.73281 43.355 6.73281C43.2351 6.73281 43.1309 6.8531 43.1152 6.98854C43.1152 7.154 43.0709 7.18412 43.0257 7.06374C42.9215 6.79295 42.4281 6.83813 42.3239 7.12388C42.2639 7.25932 42.2787 7.42479 42.3239 7.46987C42.3838 7.51505 42.4585 7.46987 42.488 7.37961C42.5332 7.24426 42.6375 7.24426 42.9068 7.42479C43.1004 7.54508 43.3697 7.63534 43.5191 7.60531C43.6538 7.57519 43.8032 7.6504 43.8327 7.74066C43.9222 7.98133 42.7417 8.01145 42.6079 7.78584C42.5627 7.69557 42.3986 7.63534 42.2639 7.63534C42.0546 7.63534 42.0546 7.66546 42.2187 7.77078C42.5332 7.96627 42.0693 8.07159 40.6057 8.11677L39.3505 8.14679L39.783 8.49278C40.0228 8.68837 40.3659 8.98918 40.531 9.15465C40.7247 9.35023 41.1286 9.50064 41.5464 9.54581C41.9199 9.5909 42.2344 9.68116 42.2344 9.75636C42.2344 9.8166 42.3534 9.90686 42.5028 9.93689C42.6374 9.98207 42.5332 10.0121 42.2639 10.0272C41.9799 10.0272 41.5768 9.95195 41.3675 9.83157C41.0087 9.63608 40.0819 9.42543 38.5583 9.18476C38.2595 9.13959 38.0353 9.19982 37.9155 9.35023C37.7365 9.56087 37.766 9.5909 38.0649 9.60596C38.4531 9.62102 38.3637 9.6661 37.6913 9.8166C37.2736 9.90686 37.2735 9.92183 37.5567 10.1174C37.7061 10.2227 38.0796 10.3882 38.3637 10.4785C38.8571 10.6439 38.8571 10.6439 38.1543 10.5838C37.423 10.5235 37.019 10.2227 37.0042 9.72634C37.0042 9.45555 36.3919 8.83877 36.1373 8.83877C36.0331 8.83877 35.8238 8.74851 35.6596 8.65825C35.4502 8.5229 35.3303 8.50784 35.1957 8.64319C35.0767 8.76357 35.1662 8.85383 35.5102 8.97412C35.7786 9.06438 36.0626 9.0945 36.1521 9.03436C36.2268 8.98918 36.2572 9.0193 36.1973 9.10956C36.1521 9.19982 36.1678 9.30514 36.2572 9.36529C36.5256 9.53075 36.4066 9.71128 35.9584 9.8166C35.7195 9.87674 35.5102 10.0121 35.5102 10.1174C35.5102 10.2227 35.4355 10.343 35.3303 10.3731C35.2409 10.4033 35.5397 10.6289 36.0183 10.8695C36.8244 11.2757 36.8549 11.3208 36.7654 11.7871C36.6907 12.1783 36.735 12.3136 36.9895 12.4791C37.1684 12.5844 37.3031 12.765 37.3031 12.8852C37.3031 13.0507 37.5272 13.0658 38.3941 13.0056C39.3201 12.9304 39.3948 12.9455 38.9023 13.0808C38.1396 13.2915 38.0501 13.5923 38.5878 14.0285C38.9318 14.3144 38.9917 14.4196 38.8423 14.5701C38.7372 14.6753 38.6477 14.916 38.6477 15.0965C38.6477 15.3523 38.5278 15.4576 38.1995 15.5328C37.9302 15.5929 37.7513 15.7284 37.7513 15.8637C37.7513 16.0442 37.6471 16.0744 37.2736 15.9992C37.0043 15.954 36.7202 15.8337 36.6307 15.7434C36.5256 15.6381 36.556 15.623 36.7202 15.6832C36.8844 15.7434 37.0338 15.608 37.2284 15.1568C37.3778 14.8258 37.5419 14.555 37.6019 14.555C37.6766 14.555 37.7061 14.3293 37.6913 14.0587C37.6766 13.6375 37.5871 13.5321 37.0494 13.2915C36.6907 13.141 36.4066 12.9304 36.4066 12.8402C36.4066 12.7499 36.2572 12.434 36.0774 12.1482C35.8985 11.8623 35.7343 11.5014 35.7039 11.3509C35.6448 10.9749 35.3156 10.674 34.8378 10.5537C34.5538 10.4785 34.4938 10.4033 34.5981 10.2979C34.8222 10.0723 34.7927 9.57584 34.5538 9.24491C34.4044 9.04942 34.0309 8.92904 33.3133 8.85383C32.701 8.77863 32.5064 8.71839 32.8199 8.70343C33.3134 8.67331 33.3281 8.67331 33.0597 8.46267C32.6862 8.17691 31.5647 8.14679 31.6551 8.41758C31.6994 8.5229 31.6394 8.70343 31.5205 8.80865C31.4153 8.91398 31.3259 9.27503 31.3259 9.5909C31.3259 10.1024 31.2659 10.2227 30.8776 10.4182C30.3252 10.7041 30.2948 11.0501 30.8029 11.2456C31.087 11.3509 31.1765 11.5014 31.1765 11.8323C31.1765 12.3136 31.5057 12.6747 31.8193 12.5543C31.9382 12.5092 32.2223 12.6145 32.4621 12.765C32.701 12.9304 33.044 13.126 33.2386 13.2012C33.567 13.3366 33.6721 13.5772 33.4627 13.6976C33.388 13.7427 32.8799 13.5772 32.297 13.3366C30.7882 12.7198 30.5346 12.7499 31.2217 13.4719C31.5205 13.7879 31.7741 14.1037 31.7741 14.1789C31.7446 14.7055 30.1159 15.8637 28.6061 16.4354C28.2178 16.5858 27.8296 16.7813 27.7401 16.8866C27.635 17.007 27.8443 17.6238 28.4272 18.9324C29.2794 20.8279 29.6676 22.5126 29.6824 24.2125C29.6824 25.115 29.8917 25.6566 30.4442 26.168C31.2217 26.89 30.8629 28.0935 29.8613 28.0935C29.6224 28.0935 29.3089 28.2289 29.1595 28.3944C28.9058 28.6651 28.9058 28.6952 29.2489 29.1314C29.4435 29.3721 29.7719 29.8234 29.9812 30.1092C30.4894 30.8313 30.9828 30.8313 31.6099 30.1242C32.1928 29.4473 32.6558 29.4322 33.0293 30.0641C33.2682 30.4552 33.2682 30.6206 33.1187 31.2223C32.9693 31.8692 32.9693 31.9444 33.2534 32.155C34.2402 32.8922 34.2402 32.8921 34.0456 33.0275C33.792 33.208 34.1056 33.4788 34.8674 33.7345C35.8689 34.0805 35.6292 34.9529 34.5686 34.8176C34.1655 34.7574 33.9709 34.8025 33.911 34.9529C33.8068 35.2237 33.448 35.2237 33.1787 34.938C33.044 34.8176 32.8199 34.7123 32.6558 34.7123C32.5064 34.7123 32.3717 34.6371 32.3717 34.5468C32.3717 34.4265 32.1476 34.3964 31.6551 34.4716C31.1165 34.5468 30.7282 34.4867 30.0559 34.2309C29.0848 33.8849 27.2467 33.7947 26.9479 34.0955C26.8584 34.1858 26.4397 34.2611 26.0367 34.2611C25.618 34.2611 25.0203 34.3363 24.7068 34.4265C24.1534 34.5769 24.1534 34.5769 24.2438 35.2087C24.3628 36.006 24.5122 36.2918 25.155 37.0138C25.558 37.4651 25.6484 37.6907 25.618 38.1119C25.5885 38.5482 25.6632 38.7136 25.9915 38.9543C26.2156 39.1198 26.3954 39.3455 26.3954 39.4507C26.3954 39.7215 26.9027 39.8719 27.4413 39.7516C27.7844 39.6764 27.919 39.7215 28.1136 40.0374C28.3525 40.3834 28.5471 41.8275 28.3377 41.7072C28.2925 41.6771 27.9043 41.6169 27.4855 41.5717C26.7985 41.5116 26.709 41.5417 26.5596 41.8877C26.4701 42.0832 26.4249 42.324 26.4701 42.3992C26.5292 42.4744 26.3502 42.5345 26.0966 42.5345C25.6779 42.5345 25.6484 42.5646 25.7978 42.8353C25.8873 43.0009 26.0514 43.1362 26.1713 43.1362C26.2903 43.1362 26.4996 43.3318 26.6491 43.5875C26.7837 43.8282 26.9626 44.0388 27.0226 44.0388C27.0825 44.0388 27.1425 44.1742 27.1425 44.3547C27.1425 44.5502 27.2015 44.6254 27.3214 44.5502C27.4108 44.4901 27.5603 44.5502 27.6506 44.6706C27.7548 44.8059 27.9937 44.9414 28.1883 44.9714C28.6965 45.0316 28.7712 45.182 28.6808 45.859C28.6365 46.1899 28.6513 46.4456 28.7408 46.4456C28.9805 46.4456 29.4131 47.3632 29.3236 47.6941C29.2194 48.1304 29.5625 48.7923 29.8465 48.7321C30.0264 48.702 30.0559 48.8073 30.0107 49.1834C29.9517 49.5594 29.9812 49.6346 30.1758 49.5594C30.5493 49.4241 30.8334 49.9205 30.9975 50.9585C31.087 51.4999 31.1912 52.0415 31.2364 52.1619C31.3111 52.3574 31.1165 52.4477 30.3095 52.6583C29.0848 52.944 28.5166 52.8388 27.6654 52.1619C27.3518 51.9062 26.9479 51.7106 26.769 51.7106C26.3207 51.7106 25.9472 51.2593 25.8421 50.5824C25.7821 50.1913 25.8126 49.9806 25.962 49.9054C26.0809 49.8152 26.1556 49.4842 26.1713 49.048C26.1713 48.356 26.1861 48.326 26.5891 48.326C26.8132 48.341 26.9931 48.2658 26.9931 48.1756C26.9931 48.0703 26.7837 48.0401 26.4996 48.0703C25.7821 48.1455 22.7488 46.581 21.4641 45.4678L20.4929 44.6105L19.6859 44.7007C18.9684 44.7909 18.8043 44.7458 18.1919 44.3547C17.8184 44.114 17.265 43.8733 16.9809 43.8131C16.6978 43.753 16.2339 43.5875 15.9655 43.4221C15.592 43.2114 15.3974 43.1813 15.0839 43.3017L14.6956 43.4521L15.0387 43.8131C15.2185 44.0087 15.7562 44.3547 16.2192 44.5803C16.862 44.8962 17.146 45.1369 17.3397 45.5431C17.8479 46.596 17.1903 47.0473 15.1134 47.1226C14.3221 47.1527 13.694 47.1075 13.694 47.0323C13.694 46.9571 13.4994 46.8969 13.2605 46.8969C13.0069 46.8969 12.768 46.8217 12.7229 46.7464C12.6629 46.6562 12.4987 46.6262 12.3493 46.6712C12.1547 46.7315 12.0201 46.6562 11.9011 46.4456C11.7812 46.22 11.6466 46.1598 11.4225 46.235C11.1983 46.2952 11.0342 46.235 10.87 46.0395C10.6459 45.7687 10.526 45.7536 9.40547 45.8439C8.21021 45.9643 7.31376 46.3103 6.8803 46.8367C6.7604 46.9872 6.46159 47.0022 5.63985 46.9119C4.53405 46.8067 4.08583 46.942 4.45935 47.3181C4.81811 47.6791 4.25 47.8897 2.86106 47.9198C2.12879 47.9348 1.50072 48.0101 1.47121 48.0853C1.44169 48.1756 1.32181 48.1905 1.20191 48.1455C1.08294 48.1003 0.992554 48.1455 0.992554 48.2357C0.992554 48.326 1.09769 48.4012 1.21666 48.4012C1.35131 48.4012 1.4417 48.5365 1.4417 48.7773C1.4417 49.1232 1.56067 49.2135 1.99413 49.1684C2.08359 49.1533 2.14354 49.2586 2.11403 49.409C2.09835 49.5594 2.11403 49.74 2.17305 49.8302C2.21824 49.9054 2.26344 50.1161 2.29295 50.2815C2.30771 50.447 2.2782 50.4921 2.24776 50.3869C2.11404 50.086 1.78478 50.1913 1.81521 50.5373C1.82997 50.7629 1.99414 50.9283 2.3529 51.0487C2.63696 51.154 2.77068 51.2442 2.66647 51.2442C2.51706 51.2593 2.51706 51.3195 2.66647 51.5902C2.77068 51.7858 2.92101 51.9814 2.99571 52.0265C3.05474 52.0867 2.99572 52.207 2.84539 52.2972C2.54657 52.4627 2.60653 52.4928 3.30929 52.5079C3.54816 52.5079 3.56291 52.5229 3.35355 52.568C3.20414 52.6131 3.08517 52.7034 3.08517 52.7936C3.08517 52.8688 3.1894 52.914 3.30929 52.8538C3.42826 52.8087 3.5334 52.8388 3.5334 52.914C3.5334 53.0043 3.63761 53.0644 3.75751 53.0644C3.87648 53.0644 3.98161 52.9892 3.98161 52.899C3.98161 52.6583 4.68346 52.8688 5.02746 53.2148C5.25157 53.4405 5.49044 53.5157 5.92391 53.4856C6.50678 53.4405 6.59624 53.3352 6.53629 52.7936C6.47727 52.3574 7.68728 52.7486 8.37436 53.3954C8.82258 53.8015 10.063 53.6511 10.4513 53.1246C10.7649 52.7184 11.0194 52.6734 11.4529 52.944C11.677 53.0945 11.796 53.0795 12.0505 52.8388C12.424 52.5079 12.6334 52.6432 12.2894 53.0043C12.1105 53.1698 12.08 53.3051 12.1852 53.4104C12.2746 53.5007 12.2746 53.6812 12.1999 53.8918C12.1252 54.0723 12.1252 54.2829 12.1852 54.3581C12.3641 54.5536 12.4987 55.5616 12.3641 55.712C12.1695 55.9376 11.6318 57.5923 11.4529 58.4949C11.273 59.4275 10.9447 59.8487 10.3914 59.8487C10.1977 59.8638 9.80941 59.8938 9.55486 59.9239C9.1214 59.984 9.06146 60.0593 9.06146 60.4504C9.06146 61.1724 9.36027 62.1804 9.67476 62.5263C9.82417 62.6918 9.95882 62.9325 9.95882 63.0377C9.95882 63.2634 11.0342 64.4969 11.2288 64.4969C11.273 64.4969 11.4224 64.3916 11.5423 64.2713C11.677 64.1509 11.9011 64.0457 12.0653 64.0457C12.2147 64.0457 12.3493 64.1509 12.3493 64.2713C12.3493 64.3916 12.424 64.4969 12.4987 64.4969C12.5882 64.4969 12.6481 64.5721 12.6481 64.6474C12.6481 64.7376 12.768 64.9331 12.9175 65.0986C13.0512 65.249 13.3057 65.6402 13.4699 65.9561C13.6341 66.2719 13.8886 66.6631 14.038 66.8286C14.3968 67.2196 14.785 67.9568 14.6799 68.062C14.5462 68.1974 15.0838 69.0097 15.2932 69.0097C15.4122 69.0097 15.5321 69.115 15.5763 69.2353C15.6363 69.3557 15.7414 69.4159 15.8309 69.3557C15.9056 69.3106 15.9351 69.3407 15.8908 69.4159C15.8309 69.5061 15.9203 69.7468 16.0845 69.9574C16.2496 70.168 16.3833 70.4388 16.3833 70.5592C16.3833 70.6945 16.458 70.8449 16.5484 70.9051C16.6526 70.9653 16.6821 71.221 16.6231 71.567C16.5632 71.9882 16.5927 72.1838 16.7725 72.3342C16.8915 72.4395 16.9662 72.6501 16.9367 72.8005C16.8767 72.981 16.9809 73.1615 17.2051 73.3119C17.4144 73.4474 17.609 73.6579 17.6542 73.7934C17.6837 73.9438 17.9226 74.1844 18.1614 74.3499C18.4012 74.5003 18.5802 74.6808 18.5506 74.7411C18.5055 74.7861 18.6549 74.9065 18.8495 74.9968C19.1326 75.1321 19.223 75.2825 19.223 75.6436C19.223 75.9294 19.3272 76.2001 19.4914 76.3205C19.626 76.4258 19.7459 76.5762 19.7459 76.6514C19.7459 76.7266 19.9995 77.0425 20.3131 77.3434C20.6119 77.6593 20.8664 78.0053 20.8664 78.1257C20.8664 78.2459 20.9264 78.3362 21.0011 78.3362C21.0758 78.3362 21.2105 78.5469 21.2999 78.8176C21.4641 79.2839 21.4641 79.2839 21.1653 79.0131C21.0011 78.8627 20.9116 78.6822 20.9559 78.6221C21.0011 78.5469 20.9264 78.5318 20.7917 78.5769C20.6423 78.6371 20.5676 78.607 20.5972 78.4717C20.6276 78.3663 20.5224 78.2459 20.3878 78.2159C20.1941 78.1858 20.1489 78.2309 20.2089 78.4415C20.2836 78.6973 20.2836 78.6973 20.0742 78.4415C19.9553 78.2911 19.8058 78.2309 19.7754 78.3062C19.6712 78.4566 20.4782 79.7202 20.5972 79.5998C20.7318 79.4795 21.3599 80.1564 21.3894 80.4272C21.3894 80.5626 21.4493 80.7431 21.4936 80.8183C21.6135 81.0288 22.1216 82.7287 22.1364 82.9995C22.1816 83.7215 22.391 84.0224 22.9139 84.1277C23.2127 84.1728 23.5115 84.1578 23.601 84.0675C23.6757 83.9923 23.8251 83.9622 23.9293 83.9923C24.0344 84.0374 24.348 83.8569 24.6173 83.6162C24.9456 83.3004 25.274 83.1499 25.5885 83.1499C26.0966 83.1499 27.0678 82.7889 27.2172 82.5482C27.2614 82.4729 27.5307 82.3977 27.8148 82.3977C28.1736 82.3977 28.3977 82.2925 28.6218 82.0067C28.8155 81.7509 29.3541 81.4651 30.1601 81.1793C31.6099 80.6528 32.3127 80.2617 32.2527 79.991C32.1633 79.5847 32.4022 79.2689 33.0145 79.0131C34.1803 78.5318 34.3297 78.4866 34.8222 78.4866C35.3755 78.4866 35.5996 78.2911 35.6891 77.7345C35.7195 77.4487 35.8385 77.3434 36.1825 77.3133C36.735 77.2381 37.0042 77.0275 37.0042 76.6665C37.0042 76.3356 37.5419 75.9294 37.9901 75.9294C38.2742 75.9294 38.3037 75.8541 38.289 75.0117C38.2742 74.034 38.4384 73.7783 38.8276 74.1844C39.0212 74.38 39.0812 74.365 39.2758 74.1393C39.4999 73.8686 39.4695 73.4624 39.2306 73.6128C38.977 73.7632 39.0959 73.3872 39.4547 72.9659C39.8882 72.4395 40.2912 71.6573 40.2912 71.3414C40.2912 71.206 40.1565 71.1157 39.9776 71.1157C39.7987 71.1157 39.6336 70.9954 39.5894 70.8149C39.5442 70.6494 39.4547 70.514 39.38 70.514C39.3053 70.514 39.2454 70.4388 39.2454 70.3485C39.2454 70.0326 38.7676 69.7168 38.0796 69.5964C36.7349 69.3407 36.0774 68.4983 36.0774 67.0391C36.0774 66.1065 35.8984 65.9259 35.5849 66.5578C35.2704 67.1595 33.5079 68.9646 33.2986 68.8894C33.1935 68.8593 33.1187 68.8894 33.1187 68.9646C33.1187 69.0398 32.8799 69.0699 32.5958 69.0398C32.3127 69.0097 32.0729 68.9195 32.0729 68.8443C32.0729 68.7691 32.013 68.7089 31.9235 68.7089C31.8488 68.7089 31.7741 68.7992 31.7741 68.9195C31.7741 69.2654 31.4753 69.3557 31.1912 69.1C31.0418 68.9646 30.8481 68.8593 30.743 68.8593C30.624 68.8593 30.5936 68.754 30.684 68.5133C30.8481 68.032 30.743 66.7082 30.5346 66.5728C30.1758 66.3471 29.996 66.4675 29.817 67.0542L29.6372 67.6559L29.3541 67.2497C29.0552 66.7684 29.0101 66.6029 29.2342 66.6029C29.3236 66.6029 29.3836 66.7082 29.3836 66.8436C29.3836 66.9639 29.4583 67.024 29.533 66.979C29.7866 66.8135 29.6971 66.4224 29.3836 66.3471C29.2194 66.302 29.07 66.2118 29.07 66.1366C29.0552 66.0614 29.0396 65.941 29.0248 65.8507C29.0248 65.7755 28.8754 65.6101 28.7112 65.4898C28.5471 65.3694 28.4124 65.1889 28.4124 65.0686C28.3977 64.9633 28.323 64.888 28.2178 64.903C28.1136 64.9331 28.0389 64.8881 28.0389 64.8129C28.0389 64.7376 27.9043 64.6173 27.7401 64.5721C27.5759 64.527 27.4413 64.3766 27.4413 64.2562C27.4413 64.1359 27.3813 64.0457 27.3214 64.0457C27.112 64.0457 26.5292 62.6016 26.6343 62.3007C26.6943 62.1201 26.6786 62.075 26.5891 62.1953C26.4996 62.3157 26.3798 62.3308 26.246 62.2405C26.0514 62.1201 26.0514 62.0901 26.246 62.0901C26.3798 62.0901 26.5891 61.9697 26.7238 61.8193C27.2172 61.3079 27.3813 61.2176 27.6506 61.368C27.7844 61.4432 28.0085 61.4733 28.1579 61.4282C28.3377 61.368 28.5166 61.5034 28.7555 61.8344C28.9353 62.1051 29.0848 62.406 29.0848 62.4962C29.0848 62.5865 29.1447 62.6918 29.2194 62.7218C29.2941 62.7369 29.5477 63.098 29.7718 63.5041C30.0854 64.0306 30.3547 64.2713 30.7282 64.4066C31.0123 64.5119 31.4458 64.7677 31.6846 64.9933C31.9235 65.219 32.2223 65.3995 32.3569 65.3995C32.5515 65.3995 32.5516 65.4295 32.4022 65.5349C32.2527 65.6251 32.357 65.6853 32.7305 65.7605C33.0293 65.8207 33.2386 65.9259 33.1935 66.0162C33.1344 66.0914 33.1787 66.1516 33.2534 66.1516C33.3428 66.1516 33.4176 66.0764 33.4176 66.0012C33.4176 65.8959 33.5227 65.8959 33.7164 66.0012C33.8815 66.0914 34.0908 66.1215 34.1803 66.0764C34.255 66.0162 34.5685 65.941 34.8674 65.911C35.465 65.8358 35.8533 65.595 35.7195 65.3845C35.5996 65.1738 36.2268 65.234 36.3614 65.4295C36.4214 65.5349 36.556 65.8959 36.6307 66.2268C36.8244 66.9639 37.3925 67.2798 38.7824 67.4303C39.9029 67.5506 40.3659 67.6258 40.8888 67.7461C41.5317 67.9116 42.832 67.9417 42.832 67.8063C42.832 67.7461 43.1004 67.716 43.4297 67.7612C43.7884 67.8214 44.0273 67.7912 44.0273 67.686C44.0273 67.5957 44.221 67.5807 44.565 67.6559C44.8638 67.7311 45.5214 67.716 46.0738 67.6258C47.1796 67.4603 47.4637 67.5205 47.4637 67.9568C47.4637 68.1523 47.5688 68.2576 47.7477 68.2576C47.9266 68.2576 48.0613 68.408 48.136 68.6637C48.2559 69.1752 48.6294 69.6114 48.9282 69.6114C49.0481 69.6114 49.3469 69.807 49.571 70.0628C50.1834 70.6945 50.7958 70.9803 51.3787 70.875C51.8416 70.7998 51.8573 70.7998 51.588 71.0254C51.2892 71.2662 51.0503 71.3263 50.5717 71.2812C50.4223 71.2662 50.3033 71.3263 50.3033 71.4317C50.3033 71.7174 52.3646 73.673 52.6486 73.673C53.4261 73.6429 54.5467 72.62 54.2027 72.274C54.0533 72.1235 54.1584 71.567 54.3373 71.567C54.3973 71.567 54.412 71.7325 54.3668 71.9431C54.3373 72.1687 54.3668 72.3191 54.472 72.3191C54.5762 72.3191 54.6066 72.3943 54.5614 72.4695C54.5015 72.5598 54.5762 72.8306 54.6961 73.1014C54.8602 73.4172 54.9054 73.7482 54.8455 74.0942C54.7855 74.38 54.815 74.8463 54.9054 75.1472C55.2937 76.5161 55.5778 77.569 55.7567 78.3663C55.8618 78.8326 56.2049 79.7051 56.5037 80.3219C56.8182 80.9236 57.1917 81.6607 57.3255 81.9465C57.4749 82.2323 57.699 82.8641 57.8189 83.3605C57.9535 83.8418 58.2818 84.579 58.5659 85.0153C59.1193 85.8426 59.8663 87.6176 59.8663 88.0685C59.8663 88.4598 60.6733 89.7082 61.0615 89.9193C61.495 90.1451 62.0327 89.7984 62.1526 89.197C62.2568 88.7154 62.7797 88.4747 63.3331 88.656C63.5572 88.7154 63.6162 88.6857 63.5719 88.55C63.5267 88.4301 63.4078 88.3399 63.2879 88.3399C63.049 88.3399 63.049 88.2191 63.2132 87.6176C63.3027 87.3164 63.4373 87.2114 63.7066 87.2114C64.0349 87.2114 64.0644 87.1668 63.975 86.7752C63.8256 86.0381 63.8403 84.8347 64.0202 84.6241C64.259 84.3382 64.2738 83.1048 64.0497 81.9465C63.7656 80.337 63.8403 79.9007 64.438 80.0511C64.722 80.1263 64.8124 80.0812 64.8871 79.7653C64.9314 79.5547 65.066 79.3892 65.1859 79.3892C65.6931 79.3892 66.1414 79.0282 66.1414 78.607C66.1414 78.3814 66.2013 78.1858 66.276 78.1858C66.5158 78.1858 68.0099 76.6665 68.4876 75.9294C68.7422 75.5383 69.2052 75.102 69.5335 74.9516C69.848 74.7861 70.251 74.5003 70.4456 74.3199C70.7887 74.0039 70.8191 73.8234 70.7444 73.0863C70.714 72.8907 70.8034 72.6802 70.9233 72.62C71.0432 72.5598 71.2968 72.4395 71.4914 72.3342C71.7598 72.1988 71.8502 72.1988 71.9092 72.3793C71.9996 72.605 72.5668 72.5749 73.3738 72.3191C73.6127 72.2289 73.9862 72.1687 74.1955 72.1687C74.7184 72.1537 75.3317 71.6723 75.2119 71.3714C75.1667 71.2361 75.1824 71.0857 75.2414 71.0405C75.3161 71.0105 75.4064 71.1157 75.4507 71.2812C75.4959 71.4617 75.6001 71.5519 75.6748 71.5069C75.839 71.4015 76.0041 71.7475 76.0041 72.1838C76.0041 72.5447 76.3324 73.1014 77.0047 73.8685C77.274 74.1694 77.4981 74.5003 77.4981 74.5906C77.4981 74.6808 77.6171 74.726 77.7675 74.6959C78.0663 74.6056 78.4545 74.9516 78.3494 75.2224C78.3199 75.3277 78.3494 75.5232 78.4241 75.6586C78.5145 75.8541 78.4988 75.9294 78.3651 75.9294C78.2304 75.9294 78.2304 75.9745 78.3651 76.1099C78.5145 76.2604 78.5892 76.2604 78.6639 76.1249C78.8428 75.8541 79.0964 76.0949 79.4257 76.847C79.6793 77.4036 79.7097 77.7194 79.6498 78.6671L79.5603 79.7954L79.9781 79.9158C80.8155 80.1414 81.0839 80.1263 81.2933 79.8104C81.4132 79.645 81.7415 79.3441 82.0403 79.1486C82.3843 78.9078 82.578 78.6521 82.578 78.4415C82.5937 77.9752 83.5796 80.0662 83.7142 80.8183C83.7585 81.1492 83.9079 81.6005 84.013 81.8261C84.132 82.0518 84.2224 82.3977 84.2224 82.6234C84.2224 82.8491 84.3119 82.9995 84.4317 82.9995C84.5507 82.9995 84.7149 83.2101 84.8053 83.4658C85.0294 84.0976 85.0137 84.2029 84.7453 84.1126C84.5811 84.0374 84.5507 84.0825 84.6107 84.263C84.6559 84.3985 84.7601 84.5038 84.8348 84.5038C84.8947 84.5038 84.88 84.7143 84.7896 84.9701C84.6706 85.3161 84.5959 85.3762 84.5064 85.2258C84.4317 85.1205 84.3718 85.0905 84.3718 85.1807C84.3718 85.4665 84.6107 85.6922 84.8947 85.6621C85.2231 85.6319 85.3872 86.0983 85.1336 86.354C85.0294 86.4593 84.9095 86.4443 84.7453 86.3089C84.6107 86.1886 84.5212 86.1886 84.5212 86.2788C84.5212 86.3691 84.6402 86.5044 84.7748 86.5947C85.0589 86.7451 85.1336 87.7682 84.9242 88.6402C84.7748 89.2723 84.9694 90.5811 85.1631 90.3859C85.4619 90.0847 85.8659 90.1898 85.8659 90.5514C85.8659 90.8368 85.8954 90.8516 86.0153 90.6713C86.1195 90.491 86.1647 90.4909 86.1647 90.6564C86.1647 90.7615 86.374 91.1073 86.6129 91.4233C87.0159 91.9346 87.0464 92.0248 86.837 92.1456C86.6129 92.2655 86.6129 92.2962 86.8223 92.4617C87.0316 92.6271 87.0611 92.6271 87.0611 92.3864C87.0611 92.1307 87.0759 92.1307 87.2852 92.4161C87.4051 92.5965 87.4798 93.0175 87.4651 93.3643C87.4494 93.7101 87.5093 94.041 87.5988 94.1014C87.6892 94.1609 87.8082 94.4919 87.8681 94.8377C87.9133 95.1993 88.1217 95.6501 88.3311 95.876C88.5404 96.1019 88.7046 96.4328 88.7046 96.6132C88.7046 96.8539 88.9887 97.1393 89.7956 97.6813C90.9762 98.4788 91.2454 98.7345 91.1855 98.9901C91.1551 99.0952 91.1707 99.1249 91.2002 99.0505C91.3349 98.8246 91.7232 98.9446 91.6337 99.1853C91.5738 99.3657 91.6033 99.4112 91.7684 99.3359C91.9178 99.2755 91.9925 99.3508 91.9925 99.5469C91.9925 99.7124 92.0672 99.8472 92.1566 99.8472C92.2609 99.8472 92.2913 99.7124 92.2461 99.5311C92.1861 99.2904 92.2009 99.2606 92.366 99.3963C92.5006 99.5163 92.5901 99.5163 92.6648 99.3963C92.8142 99.1556 92.6049 98.9446 92.1714 98.9297C91.9178 98.9148 91.8578 98.8851 92.0367 98.8395C92.1714 98.8098 92.2913 98.674 92.2913 98.5532C92.2913 98.4333 92.2461 98.358 92.1861 98.3877C92.1114 98.4333 92.0515 98.2976 92.0515 98.1024C92.0367 97.9072 91.8431 97.5009 91.619 97.1997C91.2602 96.7331 91.215 96.5379 91.215 95.5906C91.2298 94.9883 91.1551 94.2967 91.0508 94.0559C90.8867 93.6199 89.7062 92.3259 89.4821 92.3259C89.4221 92.3259 89.2432 92.1149 89.0938 91.8593C88.8992 91.5442 88.735 91.4233 88.5552 91.4689C88.0922 91.5888 87.704 91.1677 87.4946 90.3404C87.4051 89.9044 87.2253 89.4675 87.1358 89.3922C86.9117 89.2118 86.7171 88.2646 86.897 88.2646C87.0464 88.2646 87.0316 87.8732 86.8665 87.7227C86.8075 87.6632 86.7623 87.7682 86.7623 87.9485C86.7623 88.3399 86.3436 88.55 86.1499 88.2497C85.9553 87.9634 86.0752 86.7 86.374 85.7071C86.5234 85.2559 86.6424 84.4737 86.6581 83.9773C86.6876 83.1048 86.7024 83.0747 87.1063 83.0296C87.4798 82.9844 87.5093 83.0145 87.5093 83.5712C87.5093 84.1277 87.5241 84.1578 88.0323 84.1728C88.6751 84.2029 89.1528 84.4436 89.1528 84.7445C89.1528 84.8798 89.258 84.955 89.4221 84.925C89.5863 84.8949 89.7505 85.0453 89.9303 85.4063C90.0797 85.6922 90.1839 86.0231 90.1987 86.1134C90.1987 86.354 90.7373 86.9106 90.9614 86.9106C91.0361 86.9106 91.0656 86.8203 91.0056 86.715C90.9466 86.6098 90.9614 86.5796 91.0361 86.6548C91.1707 86.7903 91.1855 86.8504 91.2298 87.2867C91.2602 87.6474 91.5443 87.5572 91.5443 87.1816C91.5443 86.8955 91.5738 86.8805 91.8126 87.0915C91.9473 87.2114 92.2009 87.362 92.366 87.4224C92.5753 87.4977 92.6049 87.5572 92.4702 87.6474C92.2009 87.8128 92.2608 89.4675 92.5449 89.4675C92.65 89.4675 92.8142 89.3327 92.9184 89.1672C93.0236 88.9869 93.3971 88.6857 93.7402 88.4747C94.323 88.1438 94.5619 87.7682 94.6071 87.1361C94.6218 87.046 94.6965 87.0008 94.8017 87.031C95.0553 87.0757 95.8328 86.6549 96.3105 86.2186C96.5199 86.0231 96.7735 85.8576 96.8786 85.8576C97.0871 85.8576 97.2522 85.0754 97.1618 84.4737C97.1323 84.2481 97.1775 84.0976 97.2374 84.1427C97.3121 84.1878 97.3711 84.0825 97.3711 83.917C97.3711 83.7516 97.3121 83.5861 97.2374 83.541C97.1775 83.4958 97.0723 83.1349 97.028 82.7437C96.9828 82.3527 96.8335 81.8111 96.7136 81.5704C96.5798 81.3147 96.4747 81.0139 96.4747 80.8784C96.4747 80.7581 96.281 80.4572 96.0265 80.2166C95.7876 79.9759 95.5782 79.7051 95.5782 79.5998C95.5782 79.4946 95.4584 79.3742 95.2942 79.314C94.9511 79.2087 93.1877 77.5089 93.1877 77.2982C93.1877 77.208 92.9636 76.9072 92.6796 76.6064C92.2461 76.1701 92.1714 75.9745 92.1714 75.3879C92.1714 74.9516 92.2461 74.6808 92.366 74.6357C92.4702 74.5906 92.6796 74.3199 92.8142 74.034C92.9489 73.7482 93.113 73.5527 93.1877 73.5978C93.2477 73.6429 93.3519 73.5676 93.3971 73.4474C93.4414 73.327 93.5612 73.2367 93.6655 73.2518C93.7706 73.2819 93.8453 73.1916 93.8453 73.0562C93.8149 72.7403 94.8312 72.3793 95.2343 72.5447C95.3837 72.605 95.6677 72.6501 95.8623 72.635C96.1464 72.605 96.1906 72.6501 96.1159 72.8456C95.9822 73.2217 96.4894 74.2596 96.8187 74.2747C97.1618 74.2747 97.2817 73.9287 97.0723 73.5226C96.9533 73.297 96.9533 73.2217 97.0576 73.2819C97.1618 73.342 97.2217 73.2668 97.2217 73.0863C97.2217 72.9058 97.3121 72.7554 97.4163 72.7554C97.5058 72.7403 97.6699 72.7253 97.7446 72.6952C97.835 72.6802 97.9844 72.6501 98.0887 72.6501C98.1929 72.635 98.2381 72.5447 98.1781 72.4395C98.1182 72.3492 98.1338 72.3191 98.2381 72.3793C98.3275 72.4244 98.4326 72.4094 98.4917 72.3342C98.5516 72.2289 98.7158 72.2289 98.9556 72.3191C99.4933 72.5298 99.6574 72.4997 99.5532 72.2289C99.508 72.1086 99.5228 72.0483 99.6132 72.0935C99.7026 72.1386 99.7626 72.1086 99.7626 72.0183C99.7626 71.9281 99.8373 71.8979 99.9267 71.9581C100.166 72.0935 100.36 71.7174 100.285 71.2662C100.226 70.9051 100.226 70.9051 100.39 71.2962C100.554 71.6874 101.107 71.8979 101.107 71.5821C101.107 71.5069 101.376 71.2962 101.72 71.1307C102.048 70.9502 102.288 70.875 102.228 70.9653C102.183 71.0405 102.213 71.1157 102.288 71.1157C102.377 71.1157 102.452 71.0405 102.452 70.9653C102.452 70.875 102.497 70.8299 102.572 70.8299C103.095 70.9202 103.394 70.7697 103.543 70.3786C103.632 70.1229 103.842 69.8973 104.006 69.8521C104.185 69.807 104.454 69.5664 104.618 69.3106C104.782 69.0699 104.992 68.8593 105.097 68.8593C105.336 68.8593 105.635 68.3027 105.5 68.0771C105.44 67.9868 105.456 67.9417 105.53 67.9868C105.695 68.0921 106.053 67.7311 105.933 67.5957C105.873 67.5506 105.979 67.5055 106.158 67.5055C106.352 67.5055 106.486 67.4152 106.486 67.2648C106.486 67.1444 106.427 67.0692 106.352 67.1143C106.158 67.2347 106.023 66.5728 106.187 66.3772C106.277 66.2719 106.292 66.1516 106.232 66.1065C106.187 66.0463 106.217 66.0012 106.307 66.0012C106.411 66.0012 106.486 65.8658 106.486 65.7154C106.486 65.5499 106.561 65.3694 106.635 65.3243C106.726 65.2791 106.785 65.0686 106.785 64.873C106.785 64.3615 106.934 64.0457 107.174 64.0457C107.293 64.0457 107.398 63.9554 107.398 63.8501C107.473 63.3085 107.458 63.0377 107.338 62.7971C107.263 62.6316 107.278 62.5564 107.398 62.5714C107.502 62.6016 107.577 62.3007 107.607 61.6689C107.622 61.1575 107.577 60.7363 107.502 60.7363C107.442 60.7363 107.368 60.7964 107.368 60.8867C107.353 60.9619 107.338 61.0972 107.323 61.1724C107.293 61.4733 107.084 61.5184 106.845 61.2627C106.68 61.1123 106.471 61.0521 106.247 61.0972C105.739 61.2327 105.933 60.8115 106.502 60.5557C106.95 60.3451 107.039 60.2098 106.785 60.0593C106.695 59.9991 106.666 59.9088 106.71 59.8487C106.74 59.7735 106.591 59.6832 106.352 59.6381C105.873 59.5328 105.635 59.1567 105.979 59.0214C106.083 58.9762 106.172 59.0214 106.143 59.1116C106.128 59.2019 106.203 59.3071 106.307 59.3372C106.396 59.3824 106.486 59.3071 106.486 59.2019C106.486 59.0214 105.979 58.5701 105.216 58.0586C105.141 57.9985 104.962 57.7728 104.842 57.5622C104.245 56.5092 103.587 55.8173 102.9 55.4863C102.228 55.1704 102.168 55.0952 102.257 54.7492C102.302 54.5387 102.541 54.1776 102.78 53.9369C103.214 53.5007 103.334 53.275 103.02 53.4555C102.915 53.5157 103.05 53.3503 103.319 53.0795C103.647 52.7786 103.961 52.6131 104.26 52.6131C104.618 52.6131 104.693 52.553 104.693 52.2522C104.693 51.7858 104.604 51.7407 103.767 51.6504C103.394 51.6203 102.945 51.515 102.78 51.4247C102.467 51.2593 101.645 51.3495 101.765 51.5451C101.794 51.5902 101.734 51.7707 101.615 51.9211C101.436 52.1619 101.346 52.1919 101.033 52.0415C100.823 51.9513 100.659 51.7407 100.659 51.6053C100.644 51.154 100.315 50.8531 99.7921 50.8381C99.105 50.823 98.5664 50.447 98.5664 49.9656C98.5664 49.6648 98.6263 49.5896 98.8062 49.6648C99.2544 49.8302 99.7773 49.5896 99.852 49.1684C99.8963 48.9428 100.136 48.6268 100.375 48.4764C100.614 48.3109 100.808 48.0853 100.808 47.98C100.808 47.634 101.182 47.3783 101.6 47.4535C102.198 47.5739 102.392 47.8747 102.153 48.3711C101.869 48.9277 101.884 49.048 102.198 49.2887C102.452 49.4692 102.452 49.5144 102.243 49.74C102.018 49.9957 102.064 50.2063 102.317 50.2063C102.392 50.2063 102.705 49.9205 103.035 49.5896C103.512 49.0932 103.752 48.9577 104.305 48.8976C104.678 48.8525 105.097 48.8675 105.246 48.9277C105.396 49.0029 105.575 49.0329 105.635 49.018C105.695 49.018 105.888 49.063 106.038 49.1533C106.292 49.2887 106.336 49.4692 106.336 50.3266C106.336 51.0337 106.382 51.2743 106.486 51.1089C106.561 50.9885 106.635 50.9434 106.635 51.0337C106.635 51.2442 107.368 51.5602 107.473 51.3947C107.517 51.3195 107.666 51.3195 107.846 51.4097C107.996 51.4999 108.13 51.5301 108.13 51.485C108.13 51.4398 108.294 51.515 108.504 51.6504C108.877 51.8911 109.012 52.3123 108.728 52.3123C108.473 52.3123 108.563 52.568 108.996 53.0343C109.624 53.7263 109.759 53.9219 109.669 54.0272C109.504 54.1927 109.519 54.9448 109.684 55.0501C109.774 55.1103 109.848 55.3058 109.848 55.5013C109.848 55.8173 109.908 55.8473 110.521 55.8022C110.894 55.7872 111.223 55.6969 111.238 55.6217C111.268 55.5314 111.417 55.4713 111.581 55.4713C111.731 55.4713 111.865 55.4111 111.865 55.3208C111.865 55.2456 111.955 55.2156 112.075 55.2607C112.374 55.381 112.911 54.7944 112.911 54.3732C112.911 53.7715 112.03 52.207 111.313 51.5301C110.939 51.169 110.491 50.7328 110.311 50.5373C110.147 50.3417 109.743 50.0409 109.43 49.8604C109.131 49.6949 108.772 49.394 108.653 49.1985C108.429 48.8675 108.444 48.8374 108.832 48.5968C109.056 48.4764 109.43 48.1153 109.639 47.7995C109.998 47.288 110.013 47.2128 109.818 46.8367C109.564 46.3554 109.61 45.6032 109.893 45.6483C109.983 45.6784 110.073 45.5581 110.073 45.3776C110.073 45.2121 110.133 45.1068 110.207 45.1519C110.282 45.2121 110.417 45.0617 110.491 44.8361C110.581 44.5954 110.655 44.5051 110.655 44.6254C110.67 44.7909 110.73 44.7759 110.894 44.5502C111.073 44.3246 111.104 44.3095 111.118 44.5051C111.118 44.8361 112.164 45.1369 112.643 44.9564C113.121 44.7759 113.957 43.7981 113.957 43.437C113.957 43.0309 114.376 41.4815 114.54 41.2709C114.615 41.1807 114.675 40.4887 114.675 39.7516C114.675 38.9995 114.735 38.2323 114.824 38.0217C114.928 37.7209 114.884 37.4651 114.6 36.8182C114.405 36.367 114.166 35.9458 114.062 35.8856C113.973 35.8254 113.942 35.7352 114.002 35.675C114.062 35.6149 113.957 35.4644 113.793 35.3441C113.241 34.968 112.658 33.3584 113.061 33.3584C113.36 33.3584 114.525 34.3363 114.615 34.6371C114.66 34.8025 114.928 35.1786 115.198 35.4644C115.467 35.7502 115.84 36.3068 116.019 36.6829C116.199 37.059 116.542 37.5554 116.782 37.7659C117.021 37.9766 117.289 38.3827 117.394 38.6835C117.484 38.9844 117.619 39.2251 117.693 39.2251C117.768 39.2251 117.887 39.4507 117.977 39.7215C118.082 40.0074 118.351 40.4285 118.604 40.6692L119.067 41.1055L118.963 40.5639C118.859 40.0224 118.874 40.0224 119.277 40.0976C119.516 40.1427 119.814 40.3232 119.964 40.4887C120.173 40.7444 120.218 40.7595 120.233 40.5639C120.233 40.2781 119.74 39.6764 119.516 39.6764C119.426 39.6764 119.187 39.526 118.993 39.3304C118.784 39.1499 118.455 38.8791 118.246 38.7438C118.036 38.5933 117.768 38.1871 117.648 37.8411C117.529 37.4802 117.38 37.074 117.32 36.9236C117.156 36.5325 117.872 36.5926 118.59 37.0439C119.217 37.4501 119.337 37.4802 119.337 37.2997C119.337 37.2394 119.113 37.059 118.859 36.8934C118.59 36.743 118.096 36.3369 117.753 36.006C117.424 35.66 116.557 34.8477 115.84 34.1858C115.123 33.5239 114.436 32.8019 114.316 32.5762C114.048 32.0647 113.449 31.4029 113.255 31.4029C113.166 31.4029 112.942 31.2223 112.747 30.9817C112.209 30.3649 111.925 30.1845 111.656 30.2897C111.447 30.3649 111.492 30.4402 111.88 30.6809C112.344 30.9666 112.344 30.9666 112.075 31.2675C111.82 31.5533 111.82 31.5984 112.03 31.7489C112.344 31.9895 112.822 32.7416 112.732 32.847C112.612 32.9674 111.865 32.1099 111.865 31.8542C111.865 31.779 111.447 31.4931 110.939 31.2374C110.417 30.9967 109.803 30.6809 109.579 30.5605C109.087 30.2897 107.772 30.1694 107.965 30.4101C108.115 30.6057 107.906 31.2525 107.682 31.2525C107.607 31.2525 107.533 31.1171 107.533 30.9516C107.533 30.7862 107.428 30.6507 107.309 30.6507C107.189 30.6507 107.084 30.5154 107.084 30.3499C107.084 30.1845 107.01 30.049 106.919 30.049C106.83 30.049 106.785 29.9588 106.83 29.8385C106.95 29.5225 106.411 29.0864 106.083 29.2217C105.933 29.2969 105.739 29.327 105.635 29.312C105.545 29.2969 105.425 29.357 105.365 29.4473C105.276 29.5827 105.695 29.6579 106.411 29.6278C106.576 29.6278 106.621 29.658 106.516 29.703C106.367 29.7633 106.382 29.8385 106.576 30.0641C106.71 30.2145 106.755 30.3499 106.666 30.3499C106.591 30.3499 106.546 30.5003 106.591 30.6809C106.635 30.9065 106.561 30.8463 106.367 30.5003C106.112 30.034 105.993 29.9588 105.305 29.8836C104.021 29.7181 104.006 29.688 104.574 28.966C105.216 28.1386 105.456 27.6723 105.261 27.6121C105.097 27.552 105.724 26.1379 105.919 26.1379C105.979 26.1379 105.963 25.9724 105.888 25.7619C105.769 25.461 105.799 25.3557 105.963 25.2955C106.083 25.2354 106.187 25.0398 106.187 24.8443C106.187 24.6035 106.307 24.4381 106.502 24.3629C106.994 24.1673 109.131 24.1373 109.251 24.3178C109.295 24.408 109.475 24.4833 109.639 24.4833C109.803 24.4833 109.908 24.4381 109.863 24.3629C109.834 24.3027 110.342 24.2726 110.999 24.2877C112.135 24.3328 112.195 24.3178 112.12 24.0169C112.06 23.7913 112.104 23.7311 112.284 23.7913C112.882 23.9567 113.599 24.0921 113.718 24.047C113.808 24.0319 114.032 24.047 114.226 24.1071C114.511 24.1823 114.54 24.2426 114.405 24.408C114.212 24.6487 114.376 24.7841 114.884 24.7841C116.065 24.7841 116.349 24.754 116.349 24.6186C116.349 24.5283 116.513 24.4983 116.766 24.5585C117.006 24.6035 117.394 24.5735 117.619 24.4833C118.141 24.2877 117.977 24.1222 117.006 23.8665C116.349 23.701 116.258 23.4904 116.527 22.7985C116.602 22.5878 116.677 22.1817 116.692 21.9109C116.722 21.4446 116.766 21.4145 117.32 21.3544C117.648 21.3243 118.052 21.3092 118.216 21.3092C118.38 21.3243 118.694 21.3243 118.934 21.3393C119.187 21.3393 119.337 21.4145 119.337 21.5499C119.337 21.8508 119.905 22.4073 120.099 22.302C120.173 22.2418 120.368 22.3622 120.532 22.5577C120.727 22.7834 120.816 22.8285 120.831 22.6932C120.831 22.5728 120.876 22.5277 120.936 22.5878C120.995 22.633 121.115 22.4675 121.19 22.1968C121.324 21.8207 121.443 21.6853 121.772 21.6552C122.131 21.6101 122.37 21.3243 122.026 21.3243C121.951 21.3243 121.712 21.1437 121.488 20.9181C121.1 20.527 121.1 20.512 121.414 20.4067C121.772 20.2712 122.221 20.3916 122.086 20.5872C121.997 20.7527 122.789 21.7756 123.013 21.7756C123.297 21.7756 123.177 22.272 122.818 22.6029C122.579 22.8134 122.505 23.0241 122.549 23.2648C122.579 23.4754 122.549 23.7161 122.46 23.8364C122.355 23.9417 122.325 24.2426 122.385 24.4833C122.49 25.0398 122.266 25.6867 121.951 25.6867C121.832 25.6867 121.727 25.7468 121.727 25.8371C121.727 25.9123 121.578 25.9875 121.399 25.9875C121.055 25.9875 121.055 25.9875 121.443 26.3485C121.727 26.6193 121.818 26.8299 121.772 27.0856C121.653 27.7174 122.43 28.7404 124.163 30.2446C124.567 30.5906 125.179 31.1321 125.508 31.4631C125.852 31.779 126.434 32.2904 126.808 32.5912C127.167 32.8921 127.63 33.3133 127.824 33.539C128.018 33.7646 128.377 34.0955 128.601 34.2611L129.034 34.5769L129.273 34.1105C129.543 33.5841 129.468 32.8921 129.109 32.5912C128.84 32.3656 128.84 31.9143 129.109 31.809C129.229 31.7639 129.483 31.7639 129.677 31.809C129.961 31.8692 129.901 31.7639 129.363 31.2975C128.84 30.8162 128.736 30.6357 128.825 30.3649C128.914 30.0791 128.989 30.049 129.453 30.1393C129.901 30.2295 129.976 30.1994 129.916 29.9588C129.887 29.8084 129.602 29.5075 129.288 29.2969C128.377 28.6651 128.018 27.7475 128.825 28.1236C129.034 28.2138 129.244 28.2439 129.304 28.1988C129.437 28.0484 128.75 27.3413 128.466 27.3413C128.138 27.3263 127.406 26.6644 127.406 26.3786C127.406 26.0627 126.853 25.7919 126.42 25.8972C125.881 26.0326 125.283 25.4008 125.403 24.8142C125.478 24.4682 125.403 24.2877 125.105 23.9718C124.731 23.6107 124.731 23.5054 125.059 23.5657C125.119 23.5806 125.314 23.5054 125.493 23.4152C125.657 23.3249 125.762 23.3099 125.702 23.4001C125.657 23.4754 125.717 23.5806 125.837 23.6409C126.076 23.7311 126.27 23.5054 126.15 23.2949C125.956 22.9789 126.509 23.0391 126.808 23.355C127.182 23.7461 127.406 23.7311 127.406 23.2949C127.406 22.7232 128.795 22.6781 129.931 23.2046C130.798 23.6107 130.962 23.6107 130.723 23.1896C130.618 22.994 130.663 22.8436 130.932 22.5728C131.126 22.3773 131.335 22.0463 131.381 21.8508C131.425 21.6401 131.634 21.4296 131.904 21.3393C132.142 21.2641 132.337 21.1136 132.337 21.0384C132.337 20.9481 132.426 20.8729 132.545 20.8729C132.651 20.8729 132.844 20.7677 132.949 20.6323C133.144 20.3916 133.726 20.4067 134.922 20.6624C135.265 20.7376 135.325 20.7075 135.325 20.4517C135.325 20.2563 135.19 20.1058 134.997 20.0306C134.802 19.9855 134.548 19.85 134.429 19.7448C134.309 19.6395 134.04 19.504 133.831 19.4288C133.248 19.2183 131.59 18.2555 131.59 18.1202C131.59 18.0599 131.724 17.8644 131.873 17.6839C132.262 17.2778 132.038 16.9017 131.261 16.6761C130.947 16.5708 130.723 16.4354 130.767 16.3601C130.812 16.2699 131.246 16.4053 131.709 16.646C132.426 17.007 132.74 17.0822 133.607 17.0671C134.473 17.0671 134.787 17.1273 135.4 17.4582C135.803 17.6839 136.296 17.8644 136.476 17.8644C136.64 17.8644 137.207 17.9998 137.701 18.1502C138.553 18.421 138.628 18.421 138.777 18.1803C138.911 17.9697 138.927 17.9697 138.852 18.1954C138.761 18.4962 139.135 18.5564 139.508 18.3157C139.703 18.1954 139.674 18.1502 139.404 18.075C139.21 18.0149 139.105 17.9246 139.151 17.8494C139.195 17.7742 139.151 17.7139 139.076 17.7139C138.986 17.7139 138.777 17.5786 138.628 17.4282C138.329 17.1273 138.329 17.1273 138.717 17.0822C138.941 17.0521 139.151 16.9469 139.18 16.8265C139.225 16.6761 139.18 16.646 139.016 16.7061C138.867 16.7663 138.807 16.7362 138.852 16.6158C138.881 16.5106 138.732 16.315 138.493 16.1797C137.79 15.7585 135.236 15.1568 134.159 15.1568C133.412 15.1568 132.979 15.0665 132.412 14.7957C131.605 14.3896 124.895 12.7048 122.698 12.3438C121.967 12.2234 120.787 12.1031 120.084 12.073C118.171 11.9827 116.453 11.8474 116.124 11.742C115.885 11.6819 115.9 11.727 116.243 12.0579C116.468 12.2686 116.722 12.4491 116.797 12.4491C116.871 12.4491 117.185 12.5995 117.499 12.78L118.067 13.126L117.648 13.1711C117.409 13.2012 117.14 13.156 117.036 13.0658C116.931 12.9755 116.528 12.8552 116.139 12.81C115.751 12.7499 115.407 12.6596 115.377 12.5995C115.332 12.5243 115.436 12.5092 115.602 12.5543C115.766 12.5995 115.9 12.5543 115.9 12.464C115.9 12.3738 115.855 12.3136 115.795 12.3136C115.721 12.3287 115.436 12.3136 115.153 12.2986L114.629 12.2535L115.676 12.0429L115.198 11.9978C114.272 11.9075 114.181 11.9226 114.181 12.1482C114.181 12.3136 114.017 12.3738 113.509 12.3588C112.299 12.3136 109.55 12.2986 109.326 12.3287C108.803 12.4039 107.533 12.1181 107.533 11.9075C107.533 11.6217 106.83 11.2907 105.635 11.005C104.813 10.8094 104.155 10.7793 102.288 10.8545C100.419 10.9297 99.8668 10.9147 99.4333 10.7342C99.1492 10.6138 98.5968 10.4785 98.1929 10.4182C97.1618 10.2979 96.7587 10.1776 96.863 10.0272C97.1028 9.63608 94.1294 9.24491 93.6802 9.60596C93.5465 9.72634 93.4718 9.7413 93.5308 9.63608C93.6959 9.38035 93.3666 9.32011 90.5722 9.06438C87.5398 8.79369 87.644 8.79369 88.107 9.06438L88.4805 9.27503L87.9281 9.29008C87.4946 9.29008 87.3895 9.33517 87.4494 9.51569C87.5093 9.63608 87.7187 9.7413 87.9281 9.7413C88.1374 9.7413 88.2564 9.78648 88.1964 9.84663C88.1522 9.90686 88.2868 10.0422 88.5109 10.1475L88.9287 10.343L88.4805 10.2528C88.2416 10.1926 87.8976 10.1625 87.7335 10.1625C87.5693 10.1776 87.0159 10.1926 86.493 10.1926C85.9858 10.1926 85.4029 10.2678 85.2231 10.3281C85.0137 10.4033 84.5959 10.4033 84.2067 10.313C83.8489 10.2378 83.4007 10.1625 83.2208 10.1475C83.0567 10.1325 82.9368 10.0723 82.9819 9.99703C83.0115 9.93689 82.9672 9.8918 82.8621 9.8918C82.7726 9.8918 82.7283 10.0121 82.7726 10.1475C83.0862 11.1554 83.1018 11.0951 82.5632 11.005C81.7867 10.8545 80.621 10.2829 80.0685 9.75636C79.7992 9.50064 79.4709 9.29008 79.351 9.29008C79.2311 9.29008 79.1416 9.19982 79.1416 9.0945C79.1416 8.67331 76.4375 7.90613 76.2134 8.26717C76.1682 8.32732 76.0483 8.34238 75.9589 8.28223C75.8547 8.222 75.6149 8.14679 75.4064 8.13173C75.1971 8.10171 74.7341 8.01145 74.3597 7.92118C73.882 7.81586 73.6726 7.81586 73.6431 7.92118C73.6126 8.01145 73.5232 8.05653 73.4485 7.99639C73.3738 7.9513 73.3138 7.99639 73.3138 8.07159C73.3138 8.16185 73.4485 8.31226 73.6127 8.41758C73.7777 8.5229 73.9115 8.64319 73.9115 8.68837C73.9115 8.76357 72.6415 8.74851 71.2221 8.62822C70.7739 8.59811 70.2658 8.56799 70.1016 8.55293C69.8775 8.53796 69.848 8.50784 70.0121 8.40252C70.1311 8.32732 70.1468 8.23706 70.0564 8.17691C69.848 8.05653 66.2318 8.01145 66.0372 8.13173C65.813 8.26717 64.7967 7.66546 64.7967 7.39467C64.7967 7.24426 64.603 7.18412 64.1096 7.18412C63.5572 7.18412 63.4078 7.24426 63.3478 7.46987C63.3027 7.66546 63.1837 7.7256 62.9891 7.68052C62.8397 7.63534 62.6008 7.6504 62.4662 7.69557C62.2716 7.77078 62.2568 7.83092 62.4062 7.99639C62.5409 8.17691 62.4809 8.25212 62.0032 8.3725C61.2857 8.58305 60.5681 8.58305 60.688 8.38746C60.7323 8.2972 60.9416 8.23706 61.1362 8.23706C61.3299 8.23706 61.555 8.14679 61.614 8.04147C61.7634 7.81586 62.1526 7.57519 63.0333 7.13894C63.4225 6.95842 63.7813 6.71775 63.8256 6.59737C63.9602 6.25147 63.3027 5.66472 62.8544 5.72496C62.6451 5.75498 62.5704 5.75498 62.6755 5.72496C62.8249 5.66472 62.8092 5.60458 62.6008 5.43911C62.2863 5.19844 62.0474 5.16832 62.1821 5.37897C62.3315 5.61963 62.0779 5.55949 61.7791 5.27364C61.5549 5.07806 61.1658 5.01792 59.6717 5.01792C58.671 5.00286 57.6842 5.06309 57.4905 5.1383C57.2212 5.22856 57.1613 5.2135 57.2065 5.06309C57.3107 4.76219 57.0571 4.32594 56.7878 4.32594C56.6688 4.32594 56.6088 4.38617 56.6531 4.47634C56.8025 4.70205 56.1606 4.65687 55.7714 4.40114C55.3684 4.13045 53.3514 3.96498 52.9032 4.16047ZM64.4979 7.78584C64.6621 7.89107 64.603 7.93624 64.2443 7.93624C63.975 7.93624 63.7509 7.86104 63.7509 7.78584C63.7509 7.59025 64.1991 7.59025 64.4979 7.78584ZM40.9792 13.5171C41.3371 13.9232 41.1581 14.0135 40.7394 13.6524C40.5457 13.487 40.3069 13.3516 40.2018 13.3516C40.0975 13.3516 39.9776 13.2915 39.9324 13.2312C39.783 12.9755 40.7247 13.2463 40.9792 13.5171ZM134.205 15.608C134.249 15.6982 134.19 15.7133 134.07 15.6682C133.801 15.5629 133.756 15.4576 133.966 15.4576C134.055 15.4576 134.159 15.5177 134.205 15.608ZM131.365 18.1653C131.485 18.3608 131.141 18.3608 130.842 18.1653C130.663 18.045 130.678 18.0149 130.947 18.0149C131.126 18.0149 131.321 18.075 131.365 18.1653ZM79.3962 29.1013C79.9938 30.5003 80.0685 30.7862 79.8887 31.0569C79.7393 31.2975 79.7245 31.2975 79.7992 31.0569C79.8444 30.9215 79.8139 30.8012 79.7393 30.8012C79.6498 30.8012 79.5899 30.9366 79.5899 31.1021C79.5899 31.2826 79.695 31.4029 79.8591 31.4029C80.0086 31.4029 80.0528 31.448 79.9486 31.5232C79.8592 31.5834 79.7393 31.7639 79.6793 31.9294C79.6351 32.125 79.3362 32.3355 78.947 32.471C78.4094 32.6815 78.3199 32.7567 78.3651 33.1027C78.4093 33.4336 78.3346 33.5088 77.8117 33.6743C77.3635 33.8097 77.1099 33.8097 76.8701 33.6894C76.5418 33.539 76.5418 33.5239 76.9605 33.5239C77.3783 33.5088 77.9464 33.1479 77.9464 32.8771C77.9464 32.8169 78.081 32.6214 78.26 32.4408C78.4241 32.2754 78.5292 32.0347 78.484 31.9143C78.4398 31.809 78.4841 31.6586 78.5892 31.5985C79.0817 31.2826 79.2163 30.0942 78.9028 28.9509C78.7681 28.5297 79.2016 28.6501 79.3962 29.1013ZM50.6612 39.9622C50.7063 40.0374 50.6464 40.1276 50.5274 40.1879C50.4075 40.233 50.3033 40.3684 50.3033 40.5037C50.3033 40.6241 50.1982 40.7294 50.0792 40.7294C49.9289 40.7294 49.8542 40.8799 49.8542 41.1957C49.8542 41.6019 49.8247 41.647 49.6301 41.4815C49.3617 41.2559 49.3312 40.5789 49.5858 40.5789C49.6752 40.5789 49.7204 40.5339 49.6752 40.4887C49.5406 40.3533 50.0488 39.8569 50.3328 39.8419C50.4675 39.8268 50.6169 39.887 50.6612 39.9622ZM51.5428 39.9321C51.4386 39.9622 51.2588 39.9622 51.1693 39.9321C51.0651 39.887 51.1398 39.8569 51.3492 39.8569C51.5576 39.8569 51.6323 39.887 51.5428 39.9321ZM53.5903 40.1276C53.7544 40.248 53.6945 40.2631 53.3662 40.1879C52.8128 40.0675 52.6938 39.9772 53.0821 39.9772C53.2315 39.9772 53.4704 40.0524 53.5903 40.1276ZM54.4867 40.1127C54.4867 40.2029 54.3521 40.248 54.1879 40.233C54.0237 40.2179 53.8891 40.1578 53.8891 40.0976C53.8891 40.0374 54.0237 39.9772 54.1879 39.9772C54.3521 39.9772 54.4867 40.0374 54.4867 40.1127ZM36.5108 40.3684C36.4666 40.4135 36.3319 40.4285 36.2268 40.3834C36.1078 40.3383 36.1521 40.2931 36.3172 40.2931C36.4813 40.2781 36.5708 40.3232 36.5108 40.3684ZM35.3608 41.0303C35.3608 41.1055 35.2861 41.1807 35.1957 41.1807C35.121 41.1807 35.0915 41.2559 35.1367 41.3311C35.1957 41.4213 35.3608 41.4515 35.5249 41.4063C35.7343 41.3311 35.8238 41.4063 35.8985 41.6921C35.9436 41.9027 36.0774 42.1434 36.1973 42.2487C36.3614 42.3841 36.3614 42.4894 36.1678 42.8654C36.0183 43.1663 35.8689 43.2866 35.7195 43.2265C35.5849 43.1813 35.3903 43.1362 35.2704 43.1362C35.121 43.1362 35.062 42.9256 35.062 42.324C35.062 41.8726 35.002 41.4515 34.9126 41.4063C34.8222 41.3461 34.8378 41.2408 34.9568 41.1055C35.1662 40.8497 35.3608 40.8196 35.3608 41.0303ZM34.8378 41.7824C34.9873 42.2788 34.7475 42.4442 34.5234 42.008C34.2697 41.4965 34.2697 41.4815 34.5234 41.4815C34.6433 41.4815 34.7779 41.6169 34.8378 41.7824ZM34.3896 42.9557C34.2993 43.046 34.0161 42.2788 34.0309 41.9629C34.0309 41.8275 34.1351 41.978 34.255 42.2938C34.374 42.6248 34.4339 42.9106 34.3896 42.9557ZM30.2948 46.3252C30.3842 46.5208 30.6683 46.8668 30.9376 47.0924C31.1912 47.3331 31.3111 47.4836 31.2069 47.4234C31.087 47.3632 30.9081 47.4384 30.7882 47.5888C30.624 47.7995 30.5346 47.8145 30.4894 47.6791C30.4442 47.5888 30.2653 47.4987 30.1011 47.4987C29.7119 47.4987 29.3983 47.0924 29.3836 46.566C29.3836 45.9492 30.0107 45.7838 30.2948 46.3252ZM11.7517 63.5191C11.7517 63.6394 11.6918 63.7448 11.6023 63.7448C11.5276 63.7448 11.4972 63.6394 11.5423 63.5191C11.6023 63.3988 11.6622 63.2934 11.6918 63.2934C11.7213 63.2934 11.7517 63.3988 11.7517 63.5191ZM69.2799 74.8764C69.2799 74.9516 69.2494 75.0268 69.2199 75.0268C69.1747 75.0268 69.1 74.9516 69.0557 74.8764C69.0106 74.7861 69.041 74.726 69.1157 74.726C69.2051 74.726 69.2799 74.7861 69.2799 74.8764ZM20.777 79.0583C20.8213 79.1335 20.7622 79.1937 20.6423 79.1937C20.5224 79.1937 20.4625 79.1335 20.5077 79.0583C20.5529 78.9981 20.6119 78.9379 20.6423 78.9379C20.6719 78.9379 20.7318 78.9981 20.777 79.0583ZM90.8719 86.2938C90.9162 86.3691 90.8867 86.4743 90.7972 86.5346C90.7225 86.5796 90.6469 86.5195 90.6469 86.3991C90.6469 86.1283 90.7373 86.0832 90.8719 86.2938ZM94.0095 87.6632C94.1589 87.8286 94.2041 87.9634 94.1137 87.9634C94.0242 87.9634 93.8748 87.8286 93.7854 87.6632C93.6959 87.4977 93.6507 87.362 93.6802 87.362C93.7107 87.362 93.8601 87.4977 94.0095 87.6632Z" fill="white"/>
<path d="M10.4661 54.1925C10.3167 54.3129 9.92844 54.4182 9.62963 54.4182C9.31606 54.4182 9.06152 54.4784 9.06152 54.5686C9.06152 54.6438 8.92778 54.719 8.74794 54.719C8.29972 54.719 8.44914 55.2004 8.97206 55.4411C9.34557 55.6366 9.43503 55.6216 9.82422 55.3358C10.0483 55.1553 10.3167 55.0199 10.3914 55.0199C10.4818 55.0199 10.5113 54.9297 10.4661 54.8093C10.4218 54.674 10.5113 54.5085 10.6902 54.3881C11.0047 54.1925 11.1089 53.9669 10.8848 53.9669C10.8101 53.9669 10.6312 54.0722 10.4661 54.1925Z" fill="white"/>
<path d="M63.9601 87.8435C63.9002 87.9337 63.9306 88.0536 64.0201 88.0843C64.1243 88.1141 64.199 88.2646 64.199 88.4301C64.199 88.6104 64.1243 88.6709 63.9749 88.6253C63.855 88.5649 63.7507 88.6104 63.7507 88.7006C63.7507 88.7908 63.8255 88.8661 63.9002 88.8661C64.0948 88.8661 64.0947 89.5131 63.9149 89.6934C63.7959 89.8291 64.0643 91.89 64.2737 92.4468C64.4083 92.7926 64.9912 92.9125 65.4689 92.6718C66.2464 92.2814 66.4401 92.0248 66.4401 91.3787C66.4401 90.7615 65.8425 89.3327 65.4542 89.0018C65.3343 88.9116 65.2448 88.7462 65.2448 88.656C65.2448 88.4301 64.4683 87.6632 64.2442 87.6632C64.139 87.6632 64.0201 87.7376 63.9601 87.8435Z" fill="white"/>
<path d="M55.9807 95.4697C55.9807 95.7254 56.0406 95.9512 56.1301 96.0117C56.2048 96.0563 56.2353 96.192 56.1901 96.2971C56.1449 96.4179 56.1753 96.5527 56.2648 96.6131C56.3543 96.6587 56.4289 96.7934 56.4289 96.8836C56.4289 96.9896 56.3699 96.9738 56.2648 96.839C56.1301 96.6587 56.1154 96.6587 56.1901 96.8836C56.2353 97.0342 56.2795 97.2898 56.2795 97.4553C56.2795 97.8011 56.6236 97.8318 56.8772 97.5009C57.0423 97.3047 57.0266 97.2601 56.7582 97.1848C56.5783 97.1393 56.4741 97.0342 56.5193 96.9589C56.6688 96.7182 56.4289 95.7709 56.25 95.876C56.1449 95.9512 56.1154 95.8155 56.1606 95.5004C56.1901 95.2438 56.1753 95.0338 56.1006 95.0338C56.0407 95.0338 55.9807 95.229 55.9807 95.4697ZM56.7278 97.4404C56.7278 97.5157 56.6687 97.591 56.5784 97.591C56.5037 97.591 56.4289 97.5157 56.4289 97.4404C56.4289 97.3503 56.5037 97.2898 56.5784 97.2898C56.6687 97.2898 56.7278 97.3503 56.7278 97.4404Z" fill="white"/>
</svg>
