<svg width="247" height="159" viewBox="0 0 247 159" fill="none" xmlns="http://www.w3.org/2000/svg">
<path d="M219.529 112.34C219.498 112.37 219.065 112.446 218.572 112.505C217.944 112.565 217.601 112.686 217.452 112.882C217.332 113.047 216.913 113.303 216.525 113.483C216.091 113.679 215.793 113.92 215.718 114.13C215.674 114.31 215.524 114.566 215.404 114.717C215.24 114.897 215.24 114.987 215.359 115.062C215.674 115.258 216.66 114.807 217.197 114.251C217.496 113.935 218.004 113.604 218.378 113.483C219.214 113.212 220.171 112.611 220.066 112.431C219.977 112.28 219.648 112.235 219.529 112.34Z" fill="white"/>
<path d="M210.908 77.4108C210.774 77.6214 210.804 79.7875 210.939 80.299C211.028 80.5848 211.013 80.5999 210.819 80.3441C210.341 79.7575 210.281 80.2388 210.669 81.4572C210.924 82.2395 211.312 82.7961 211.611 82.7961C211.7 82.7961 211.76 82.6757 211.76 82.5404C211.76 82.4049 211.806 82.3448 211.865 82.39C211.91 82.4501 211.88 82.6606 211.76 82.8562C211.551 83.2473 211.656 83.7738 211.91 83.6234C211.985 83.5783 212.059 83.6084 212.059 83.6836C212.059 83.9393 211.611 83.8792 211.522 83.6234C211.462 83.503 211.327 83.3978 211.207 83.3978C211.058 83.3978 211.118 83.5633 211.432 83.9543C211.671 84.2702 211.984 84.7366 212.119 85.0074C212.433 85.6391 212.657 85.7595 212.896 85.4286C213.15 85.0976 213.016 84.4658 212.657 84.1349C212.388 83.8942 212.388 83.8791 212.732 83.6986C213.105 83.4881 213.598 83.6385 213.24 83.849C213.09 83.9544 213.09 84.0295 213.254 84.2251C213.449 84.4658 213.479 84.4658 213.643 84.2251C213.808 83.9995 213.837 83.9995 213.972 84.2552C214.061 84.4057 214.181 84.4658 214.24 84.4057C214.315 84.3454 214.271 84.1499 214.166 83.9845C213.823 83.4128 214.091 83.5482 214.779 84.2853C215.406 84.9622 215.511 85.2029 215.167 85.2029C215.107 85.2029 215.063 85.1578 215.078 85.0826C215.122 84.9322 214.704 84.3003 214.57 84.3003C214.36 84.3003 214.45 84.7667 214.674 84.8419C214.823 84.9021 214.898 85.1427 214.898 85.5639C214.898 85.97 214.943 86.1055 215.033 85.97C215.138 85.8046 215.227 85.8046 215.511 86.0152C216.034 86.3763 216.124 86.316 215.854 85.7895C215.72 85.5038 215.675 85.2782 215.765 85.2179C215.84 85.1728 215.929 84.9471 215.974 84.7215C216.034 84.3906 215.974 84.2853 215.63 84.1349C215.167 83.9543 215.047 83.6986 215.421 83.6986C215.541 83.6986 215.645 83.7588 215.645 83.849C215.645 84.0296 215.794 84.0446 216.078 83.8641C216.228 83.7588 216.243 83.6685 216.109 83.4128C215.9 83.0518 215.645 82.9916 215.645 83.3226C215.645 83.5331 215.601 83.5331 215.197 83.3226C214.943 83.1872 214.69 83.127 214.614 83.1721C214.539 83.2022 214.435 83.1421 214.39 83.0066C214.315 82.8111 214.166 82.781 213.643 82.8562C213.136 82.9314 212.97 82.9164 212.91 82.7209C212.821 82.5102 212.985 82.435 213.524 82.4501C213.613 82.4652 213.703 82.42 213.703 82.3749C213.703 82.2244 213.18 81.9085 212.926 81.8935C212.627 81.8935 212.553 81.6829 212.627 81.1113C212.672 80.8405 212.777 80.6901 212.956 80.6901C213.329 80.6901 213.493 79.4265 213.165 78.9301C213.045 78.7346 212.926 78.2983 212.926 77.9674C212.926 77.3806 212.91 77.3806 212.433 77.4709C212.149 77.5161 211.91 77.486 211.85 77.3957C211.7 77.1701 211.058 77.1851 210.908 77.4108Z" fill="white"/>
<path d="M216.093 85.3683C216.093 85.5187 216.288 85.7895 216.527 85.97C216.781 86.1505 216.93 86.3761 216.885 86.5115C216.825 86.6769 216.765 86.6619 216.616 86.4513C216.333 86.0752 216.213 86.2859 216.317 86.9176C216.377 87.2336 216.512 87.4592 216.632 87.4592C216.765 87.4592 216.84 87.6246 216.84 87.8954C216.84 88.2262 216.945 88.3619 217.259 88.4967C217.498 88.6027 217.692 88.7533 217.692 88.8583C217.692 88.9633 217.737 89.1892 217.796 89.3547C217.871 89.6252 217.842 89.6708 217.513 89.6708C217.304 89.6708 217.14 89.6252 217.14 89.5499C217.14 89.4746 217.08 89.4151 216.99 89.4151C216.916 89.4151 216.885 89.6103 216.945 89.8957C217.02 90.2424 216.99 90.3326 216.856 90.2573C216.736 90.182 216.646 90.2573 216.586 90.4525C216.482 90.8439 216.422 90.8439 216.093 90.4377C215.869 90.1365 215.78 90.1216 215.436 90.2871C215.227 90.3772 215.047 90.5576 215.047 90.6933C215.047 90.829 214.913 90.9192 214.674 90.9192C214.464 90.9192 214.271 91.0093 214.24 91.0995C214.211 91.2046 214.136 91.5057 214.047 91.7465C213.972 92.0021 213.927 92.2875 213.972 92.3935C214.061 92.664 214.45 92.6036 214.45 92.3033C214.45 92.1676 214.555 91.912 214.674 91.7614C214.898 91.476 214.898 91.476 214.898 91.7911C214.898 92.1379 215.107 92.2429 215.271 91.9724C215.317 91.8971 215.451 91.8664 215.57 91.9268C215.72 91.9724 215.794 91.8971 215.794 91.6861C215.794 91.4156 215.839 91.3849 216.078 91.5206C216.317 91.6415 216.377 91.8218 216.362 92.453C216.348 93.1306 216.392 93.2654 216.765 93.5666C217.005 93.7618 217.334 93.9273 217.513 93.958C217.692 93.9877 217.827 94.1383 217.856 94.3484C217.916 94.71 218.245 94.7249 218.275 94.3642C218.275 94.2433 218.335 94.0333 218.394 93.8827C218.469 93.7172 218.439 93.4458 218.319 93.2059C218.051 92.664 218.066 92.5283 218.379 92.4837C218.529 92.4688 218.634 92.5441 218.634 92.7095C218.634 92.8443 218.738 93.1 218.858 93.2654C219.052 93.5369 219.067 93.5211 219.082 92.9949C219.082 92.6937 219.157 92.3935 219.232 92.3479C219.321 92.3033 219.381 92.122 219.381 91.9417C219.381 91.3849 218.738 89.2645 218.603 89.3547C218.514 89.4151 218.514 89.2041 218.574 88.8732C218.663 88.3768 218.649 88.3312 218.41 88.4065C218.23 88.4818 218.14 88.4223 218.081 88.2113C217.991 87.8653 217.737 87.8052 217.737 88.136C217.737 88.2569 217.632 88.3619 217.498 88.3619C217.319 88.3619 217.289 88.3015 217.408 88.1658C217.483 88.0609 217.498 87.8503 217.423 87.6848C217.229 87.1884 217.274 87.1283 217.737 87.1884L218.17 87.2486L217.887 86.7823C217.722 86.5115 217.588 86.1355 217.588 85.9399C217.588 85.3683 217.348 85.1426 216.706 85.1126C216.198 85.0824 216.093 85.1276 216.093 85.3683Z" fill="white"/>
<path d="M213.404 86.0905C213.404 86.1807 213.479 86.2859 213.553 86.3311C213.658 86.3913 213.688 86.7824 213.658 87.2487C213.599 88.0915 213.658 88.1965 213.987 87.8655C214.136 87.7301 214.211 87.7301 214.255 87.8655C214.286 87.9708 214.42 88.0008 214.539 87.9558C214.854 87.8354 214.794 88.2569 214.45 88.5572C214.196 88.7682 214.181 88.8584 214.33 89.114C214.435 89.2795 214.599 89.4152 214.689 89.4152C214.794 89.4152 214.898 89.5202 214.958 89.6402C215.093 90.0166 215.317 89.8967 215.496 89.3399C215.585 89.0536 215.735 88.8128 215.809 88.8128C215.9 88.8128 215.914 88.8733 215.869 88.9634C215.765 89.1289 216.228 89.1596 216.602 89.0238C216.96 88.8881 216.886 88.4373 216.467 88.2114C216.168 88.046 216.093 87.8956 216.093 87.4293C216.093 86.963 216.049 86.8576 215.795 86.8576C215.63 86.8576 215.496 86.9178 215.496 87.008C215.496 87.0833 215.377 87.1585 215.212 87.1585C215.003 87.1585 214.958 87.0682 215.018 86.7824C215.078 86.4665 215.018 86.4063 214.734 86.4063C214.539 86.3913 214.211 86.301 214.002 86.1807C213.553 85.925 213.404 85.9099 213.404 86.0905ZM215.75 87.4894C215.705 87.6098 215.66 87.5646 215.66 87.3991C215.645 87.2337 215.69 87.1434 215.735 87.2036C215.78 87.2487 215.795 87.3842 215.75 87.4894ZM215.645 88.5879C215.645 88.6632 215.57 88.6325 215.496 88.5126C215.421 88.3917 215.346 88.2114 215.346 88.1361C215.346 88.046 215.421 88.0915 215.496 88.2114C215.57 88.3322 215.645 88.4977 215.645 88.5879ZM215.9 88.5423C215.855 88.6632 215.809 88.6176 215.809 88.4522C215.795 88.2867 215.84 88.1965 215.884 88.2569C215.929 88.3016 215.944 88.4373 215.9 88.5423ZM215.302 88.8435C215.257 88.9634 215.212 88.9188 215.212 88.7533C215.197 88.5879 215.242 88.4977 215.286 88.5572C215.332 88.6027 215.346 88.7375 215.302 88.8435Z" fill="white"/>
<path d="M210.625 87.1583C210.565 87.4441 210.401 87.8653 210.236 88.0914C210.072 88.3312 209.997 88.5878 210.042 88.6622C210.102 88.7533 210.086 88.7979 210.012 88.783C209.833 88.7226 208.667 89.9264 208.548 90.3019C208.488 90.4981 208.518 90.723 208.607 90.8141C208.727 90.9341 208.772 90.9341 208.772 90.8141C208.772 90.7388 209.115 90.3177 209.519 89.8957C209.937 89.4746 210.266 89.0684 210.266 88.9782C210.266 88.7375 210.908 88.1063 211.223 88.0459C211.626 87.9707 211.686 87.6698 211.312 87.5645C211.103 87.5193 211.013 87.3689 211.013 87.0831C211.013 86.8575 211.073 86.7221 211.163 86.7823C211.252 86.8274 211.312 86.8124 211.312 86.7221C211.312 86.6468 211.177 86.5867 211.013 86.6018C210.804 86.6168 210.684 86.7672 210.625 87.1583Z" fill="white"/>
<path d="M208.368 91.9418C208.294 92.0022 208.13 92.3034 208.01 92.6037C207.905 92.9197 207.756 93.1753 207.681 93.1753C207.621 93.1753 207.487 93.3715 207.412 93.6123C207.323 93.8521 207.084 94.1681 206.889 94.3039C206.59 94.4991 206.545 94.5892 206.694 94.7705C206.829 94.9508 206.8 94.9806 206.47 94.9806C206.246 94.9806 205.963 95.0856 205.843 95.2065C205.709 95.3264 205.484 95.4324 205.32 95.4324C205.126 95.4324 205.036 95.5374 205.036 95.7475C205.036 95.9288 204.767 96.3945 204.439 96.7858C203.945 97.3873 203.737 97.523 203.169 97.5983C202.81 97.6587 202.466 97.7638 202.422 97.8539C202.362 97.9292 202.257 97.959 202.183 97.9144C202.063 97.8391 201.973 98.3949 202.033 98.7863C202.048 98.8467 201.988 99.0419 201.899 99.2074C201.764 99.4482 201.689 99.4788 201.405 99.3134C201.226 99.2074 200.957 99.1479 200.808 99.1777C200.673 99.1925 200.509 99.1024 200.464 98.9824C200.33 98.6515 199.911 98.922 199.627 99.5086C199.373 100.005 199.388 100.562 199.627 101.855C199.836 102.923 200.03 103.239 200.405 103.149C200.658 103.074 200.703 103.134 200.688 103.57C200.688 103.856 200.733 104.397 200.778 104.789C200.897 105.541 200.882 105.526 202.018 105.511C202.541 105.511 202.646 105.556 202.646 105.796C202.646 106.142 202.885 106.338 203.019 106.112C203.079 106.022 203.229 105.992 203.378 106.037C203.527 106.083 203.781 105.977 203.961 105.811C204.14 105.631 204.289 105.57 204.289 105.661C204.289 105.736 204.393 105.811 204.513 105.811C204.633 105.811 204.737 105.886 204.737 105.977C204.737 106.083 204.872 106.112 205.051 106.067C205.544 105.932 205.783 106.112 205.783 106.579C205.783 107.105 205.873 107.12 206.694 106.638L207.352 106.278L207.532 106.609C207.696 106.94 207.711 106.94 207.875 106.504C207.965 106.263 207.995 105.947 207.95 105.796C207.891 105.646 207.98 105.27 208.115 104.954C208.294 104.593 208.323 104.382 208.219 104.353C207.935 104.247 208.189 103.645 208.727 103.134C209.011 102.878 209.295 102.652 209.385 102.652C209.459 102.652 209.489 102.321 209.429 101.855C209.325 100.847 209.564 100.472 210.311 100.516C211.118 100.577 211.163 100.275 210.431 99.6285C209.922 99.1925 209.802 99.0122 209.893 98.7565C209.952 98.5455 209.877 98.2899 209.684 98.0045C209.414 97.628 209.385 97.5081 209.549 97.1623C209.669 96.876 209.669 96.7254 209.549 96.6055C209.34 96.3945 209.624 96.0942 210.177 95.9436C210.715 95.8079 210.804 95.6127 210.341 95.4919C209.893 95.3868 209.848 95.1312 210.281 95.1312C210.655 95.1312 211.163 94.8755 211.163 94.6645C211.163 94.5892 211.013 94.4544 210.834 94.3792C210.401 94.183 209.922 93.8828 209.803 93.7322C209.758 93.6717 209.624 93.6271 209.504 93.6569C209.37 93.6866 209.31 93.5964 209.34 93.4012C209.354 93.2209 209.221 92.9495 208.996 92.7542C208.802 92.5739 208.667 92.3331 208.712 92.2132C208.802 91.9567 208.607 91.7912 208.368 91.9418Z" fill="white"/>
<path d="M183.743 94.2286C183.444 94.7101 183.908 95.372 185.655 97.0266C186.164 97.5081 186.508 97.9739 186.508 98.1849C186.508 98.2899 186.806 98.5911 187.18 98.8616C187.553 99.1172 187.838 99.3878 187.822 99.4482C187.747 99.7642 188.33 101.283 188.57 101.374C188.988 101.509 190.093 103.51 190.183 104.262C190.213 104.623 190.662 105.285 191.334 105.962C191.558 106.188 191.737 106.428 191.737 106.504C191.737 106.563 192.335 107.21 193.067 107.932C194.382 109.241 194.411 109.256 194.875 109.091C195.249 108.971 195.398 108.971 195.562 109.151C195.741 109.331 195.757 109.451 195.608 109.767C195.413 110.189 195.174 110.309 195.174 109.993C195.174 109.767 194.98 109.978 194.935 110.249C194.905 110.414 195.054 110.475 195.473 110.475C195.981 110.475 196.519 110.806 196.399 111.061C196.384 111.106 196.608 111.197 196.922 111.272C197.236 111.332 197.625 111.438 197.789 111.512C198.312 111.753 198.581 111.813 198.671 111.708C198.849 111.528 200.015 111.708 200.569 111.979C201.136 112.28 203.378 112.626 203.766 112.49C203.885 112.431 203.99 112.475 203.99 112.58C203.99 112.671 204.08 112.731 204.184 112.686C204.274 112.656 204.573 112.716 204.841 112.836C205.499 113.107 205.663 113.093 205.559 112.746C205.484 112.505 205.529 112.475 205.783 112.536C205.963 112.58 206.082 112.746 206.082 112.942C206.097 113.258 206.097 113.258 206.306 112.972C206.426 112.806 206.53 112.746 206.53 112.852C206.53 112.942 206.785 113.062 207.098 113.107C207.397 113.167 207.8 113.258 207.965 113.332C208.174 113.408 208.563 113.393 209.011 113.258C209.414 113.152 209.653 113.047 209.534 113.047C209.414 113.032 209.37 112.987 209.414 112.942C209.474 112.882 209.594 112.896 209.698 112.987C209.997 113.213 210.52 113.183 210.729 112.942C210.864 112.777 210.953 112.777 211.103 112.896C211.447 113.183 213.538 113.198 214.45 112.927C214.898 112.791 215.361 112.701 215.466 112.716C215.586 112.731 215.75 112.686 215.854 112.596C215.944 112.521 216.124 112.505 216.228 112.566C216.422 112.686 217.379 112.551 217.543 112.37C217.782 112.13 217.393 112.084 216.018 112.174C215.615 112.205 215.227 112.144 215.152 112.069C215.078 111.964 214.928 112.054 214.734 112.325C214.569 112.551 214.36 112.686 214.271 112.641C214.076 112.521 213.209 112.4 212.313 112.37C211.82 112.37 211.551 112.431 211.461 112.58C211.356 112.746 211.312 112.762 211.312 112.611C211.312 112.475 211.207 112.446 211.028 112.505C210.864 112.551 210.699 112.521 210.64 112.431C210.595 112.355 210.624 112.28 210.714 112.28C210.804 112.28 210.833 112.205 210.774 112.115C210.699 111.994 210.654 111.994 210.58 112.115C210.46 112.295 209.907 112.265 209.728 112.084C209.534 111.889 208.906 111.979 208.816 112.22C208.771 112.34 208.652 112.415 208.532 112.37C208.428 112.325 208.323 112.37 208.279 112.475C208.248 112.596 208.144 112.566 207.965 112.385C207.636 112.054 207.397 112.115 207.202 112.551C207.128 112.731 206.978 112.882 206.874 112.882C206.635 112.882 206.62 112.641 206.844 112.505C207.068 112.355 206.426 111.934 206.157 112.039C205.843 112.159 205.484 111.994 205.484 111.738C205.484 111.512 205.455 111.497 204.438 111.468C203.945 111.453 203.766 111.392 203.721 111.197C203.691 111.001 203.751 110.956 203.975 111.001C204.393 111.076 205.215 110.791 205.14 110.58C205.111 110.49 204.677 110.444 204.034 110.46C203.318 110.49 202.824 110.414 202.526 110.264C202.287 110.144 202.048 110.084 201.988 110.129C201.943 110.189 201.808 110.098 201.689 109.948C201.495 109.677 201.48 109.692 201.241 110.069C201.046 110.354 200.882 110.444 200.583 110.4C200.359 110.385 199.911 110.354 199.582 110.339C199.119 110.324 198.94 110.249 198.835 109.993C198.745 109.813 198.536 109.648 198.342 109.617C198.148 109.587 197.789 109.467 197.52 109.331C197.236 109.166 197.042 109.136 196.997 109.241C196.967 109.346 196.788 109.346 196.489 109.256C196.235 109.196 195.965 109.166 195.891 109.212C195.816 109.271 195.787 109.091 195.847 108.79C195.891 108.519 195.951 107.782 195.996 107.166C196.071 105.631 196.175 105.33 196.534 105.526C196.863 105.691 197.415 105.465 197.415 105.164C197.415 105.044 197.37 105.044 197.281 105.195C197.191 105.33 197.117 105.345 197.057 105.225C196.997 105.134 196.982 104.999 197.027 104.924C197.071 104.849 196.982 104.759 196.818 104.713C196.519 104.638 196.459 104.548 196.31 103.811C196.191 103.314 195.906 103.299 195.413 103.75C195.01 104.127 195.04 104.307 195.503 104.307C195.652 104.307 195.772 104.382 195.772 104.473C195.772 104.578 195.637 104.608 195.443 104.548C195.249 104.502 195.054 104.458 194.994 104.458C194.92 104.458 194.875 104.382 194.875 104.292C194.875 104.202 194.77 104.037 194.651 103.916C194.531 103.781 194.427 103.48 194.427 103.239C194.427 102.878 194.367 102.803 194.083 102.803C193.889 102.803 193.605 102.713 193.456 102.592C193.201 102.412 193.187 102.351 193.381 102.126C193.68 101.765 193.724 101.224 193.471 101.013C193.351 100.908 193.291 100.712 193.336 100.592C193.411 100.411 193.366 100.366 193.187 100.441C193.023 100.501 192.933 100.456 192.933 100.321C192.933 100.2 192.768 100.065 192.559 100.005C192.35 99.9595 192.185 99.8247 192.185 99.7038C192.185 99.5086 192.11 99.4631 191.588 99.4333C191.469 99.4184 191.363 99.2827 191.363 99.1172C191.363 98.9369 191.244 98.8012 191.065 98.7714C190.9 98.7417 190.691 98.6515 190.602 98.5762C190.527 98.5158 190.318 98.4861 190.139 98.5307C189.915 98.5911 189.795 98.5307 189.72 98.3048C189.676 98.1245 189.556 97.9897 189.481 97.9897C189.406 97.9897 189.346 97.9144 189.346 97.8242C189.346 97.6281 189.122 97.4022 188.45 96.9364C188.166 96.7403 187.838 96.4847 187.732 96.3796C187.628 96.2746 187.464 96.1844 187.389 96.1844C187.315 96.1844 187.255 96.0785 187.255 95.9585C187.255 95.8228 187.18 95.6425 187.105 95.5374C187.016 95.4324 186.821 95.1916 186.657 94.9955C186.418 94.7101 186.224 94.6497 185.626 94.6497C185.103 94.6497 184.774 94.5595 184.55 94.3643C184.191 94.0482 183.877 94.0027 183.743 94.2286ZM209.519 112.671C209.519 112.701 209.414 112.731 209.295 112.731C209.175 112.731 209.07 112.671 209.07 112.58C209.07 112.505 209.175 112.475 209.295 112.521C209.414 112.58 209.519 112.641 209.519 112.671Z" fill="white"/>
<path d="M220.876 98.9825C220.756 99.1925 220.666 99.6285 220.651 99.9594C220.651 100.275 220.591 100.547 220.502 100.547C220.427 100.547 220.457 100.621 220.577 100.712C220.726 100.817 220.741 100.893 220.637 100.937C220.532 100.983 220.502 101.163 220.547 101.329C220.622 101.645 220.637 101.645 220.741 101.358C220.83 101.118 220.861 101.148 220.861 101.509C220.876 101.871 220.83 101.915 220.577 101.855C220.218 101.765 220.069 101.945 220.203 102.336C220.307 102.713 221.174 102.863 221.174 102.517C221.189 102.322 221.204 102.322 221.339 102.547C221.637 103.059 221.728 102.652 221.458 102.081C221.07 101.299 221.189 100.968 221.787 101.178C222.384 101.389 222.459 101.268 222.011 100.832C221.653 100.487 221.653 100.472 221.936 100.275C222.205 100.08 222.34 99.3431 222.101 99.3431C222.041 99.3431 221.832 99.4482 221.653 99.5839C221.324 99.8098 221.324 99.794 221.324 99.2074C221.324 98.5009 221.16 98.4256 220.876 98.9825Z" fill="white"/>
<path d="M217.229 99.7939C216.885 100.156 216.557 100.381 216.408 100.336C216.273 100.29 215.645 100.216 215.018 100.156C214.375 100.11 213.852 100.005 213.852 99.9445C213.852 99.7939 213.314 99.6591 213.15 99.779C213.075 99.8246 212.97 99.99 212.91 100.141C212.851 100.29 212.731 100.366 212.657 100.321C212.447 100.185 211.91 100.802 211.91 101.178C211.91 101.329 211.85 101.449 211.79 101.449C211.715 101.449 211.686 101.645 211.731 101.885C211.76 102.141 211.686 102.472 211.551 102.682C211.416 102.863 211.312 103.239 211.312 103.495C211.312 104.006 210.924 104.908 210.7 104.908C210.625 104.908 210.58 105.09 210.625 105.315C210.654 105.555 210.7 105.842 210.7 105.977C210.714 106.142 210.819 106.202 211.058 106.158C211.356 106.097 211.402 106.158 211.431 106.654C211.461 106.969 211.402 107.556 211.297 107.962C211.088 108.835 211.207 109 211.924 108.881C212.403 108.789 212.447 108.745 212.462 108.248C212.493 105.886 212.582 105.21 212.851 105.119C213.254 104.984 213.344 105.164 213.135 105.691C212.97 106.127 213.001 106.202 213.389 106.548C213.703 106.849 213.777 107.015 213.703 107.241C213.584 107.556 213.777 107.918 214.061 107.918C214.151 107.918 214.345 107.782 214.495 107.616C214.629 107.451 214.823 107.316 214.913 107.316C215.032 107.316 215.018 107.406 214.868 107.572C214.495 108.008 214.45 108.474 214.764 108.76C215.032 109 215.063 109 215.346 108.745C215.526 108.579 215.615 108.368 215.57 108.203C215.526 108.068 215.541 107.903 215.601 107.872C215.661 107.827 215.72 107.541 215.72 107.21C215.705 106.744 215.661 106.654 215.436 106.684C215.107 106.744 214.764 106.307 214.854 105.947C214.898 105.796 214.719 105.33 214.464 104.894C214.091 104.292 214.032 104.081 214.166 103.916C214.256 103.796 214.435 103.706 214.539 103.706C214.644 103.706 214.898 103.495 215.078 103.239C215.331 102.893 215.495 102.803 215.75 102.878C216.018 102.939 216.093 102.893 216.093 102.652C216.093 102.246 215.72 102.11 215.257 102.351C215.063 102.457 214.659 102.562 214.36 102.562C213.987 102.577 213.733 102.698 213.538 102.939C213.269 103.27 212.806 103.284 212.806 102.954C212.806 102.878 212.671 102.667 212.493 102.487C212.254 102.246 212.194 102.066 212.268 101.705C212.418 100.937 212.553 100.893 214.45 101.027C216.99 101.193 217.439 101.178 217.439 100.832C217.439 100.742 217.603 100.456 217.812 100.185C218.036 99.885 218.155 99.5838 218.096 99.4332C217.962 99.0874 217.887 99.1172 217.229 99.7939Z" fill="white"/>
<path d="M221.846 105.18C221.608 105.21 221.353 105.315 221.294 105.405C221.204 105.54 221.174 105.54 221.174 105.405C221.174 105.27 221.07 105.3 220.875 105.465C220.516 105.766 220.487 106.037 220.801 105.901C220.965 105.842 221.025 105.917 221.025 106.173C221.025 106.518 221.054 106.533 221.548 106.368C221.832 106.278 222.07 106.112 222.07 106.007C222.07 105.842 222.13 105.842 222.369 105.962C222.549 106.052 222.803 106.082 222.952 106.037C223.116 105.992 223.46 106.082 223.744 106.263C224.372 106.654 224.461 106.638 224.461 106.217C224.461 105.45 223.34 105.014 221.846 105.18Z" fill="white"/>
<path d="M225.657 102.202C225.373 102.367 225.059 102.562 224.954 102.638C224.834 102.743 224.745 102.743 224.685 102.652C224.581 102.487 224.013 102.441 224.013 102.592C224.013 102.848 224.67 103.555 224.909 103.555C225.328 103.555 225.657 103.72 225.657 103.932C225.657 104.367 226.164 104.578 227.046 104.518C227.674 104.473 227.898 104.487 227.823 104.608C227.764 104.713 227.569 104.743 227.375 104.698C227.166 104.638 226.957 104.698 226.852 104.833C226.747 104.969 226.538 105.029 226.404 104.984C226.105 104.894 225.657 105.029 225.657 105.225C225.657 105.3 225.821 105.436 226.031 105.511C226.239 105.586 226.404 105.752 226.404 105.886C226.404 106.007 226.479 106.112 226.568 106.112C226.643 106.112 226.673 106.188 226.628 106.263C226.494 106.489 226.703 107.03 226.867 106.925C226.957 106.879 227.121 106.925 227.241 107.03C227.361 107.12 227.51 107.166 227.554 107.105C227.614 107.045 227.585 106.955 227.494 106.894C227.39 106.82 227.361 106.699 227.45 106.579C227.554 106.398 227.659 106.413 228.122 106.624C228.421 106.774 228.795 107 228.944 107.12C229.093 107.256 229.422 107.39 229.662 107.406C230.244 107.482 232.455 108.549 232.44 108.745C232.426 108.82 232.515 109.03 232.62 109.196C232.739 109.361 232.829 109.602 232.829 109.753C232.829 109.903 232.874 110.023 232.949 110.023C233.008 110.023 233.053 110.264 233.068 110.55C233.068 110.956 233.023 111.076 232.814 111.076C232.53 111.076 231.783 112.039 231.783 112.4C231.783 112.611 233.127 112.611 233.293 112.385C233.337 112.325 233.606 112.235 233.89 112.205C234.368 112.144 234.457 112.19 234.966 112.867C235.519 113.589 235.534 113.604 236.341 113.604C236.804 113.589 237.208 113.634 237.267 113.679C237.312 113.739 237.476 113.709 237.625 113.634C237.849 113.514 237.88 113.529 237.835 113.784C237.805 113.95 237.73 114.16 237.685 114.235C237.64 114.325 237.656 114.386 237.73 114.386C237.909 114.386 238.059 114.025 238.059 113.619C238.059 113.468 238.133 113.332 238.208 113.332C238.298 113.332 238.358 113.227 238.358 113.093C238.358 112.972 238.418 112.896 238.492 112.942C238.567 112.987 238.627 112.867 238.627 112.671C238.627 112.069 239.717 111.287 240.061 111.648C240.121 111.708 240.42 111.828 240.719 111.904C241.047 111.994 241.331 112.19 241.42 112.4C241.495 112.58 241.615 112.731 241.675 112.731C241.75 112.731 241.795 112.852 241.795 113.017C241.795 113.167 241.899 113.378 242.019 113.483C242.138 113.589 242.198 113.724 242.153 113.799C242.108 113.874 242.183 113.935 242.302 113.935C242.437 113.935 242.571 114.1 242.631 114.295C242.691 114.566 242.885 114.702 243.408 114.852C243.797 114.957 244.32 115.033 244.559 115.018C244.813 115.018 245.157 115.108 245.335 115.228C245.725 115.469 246.815 115.514 246.949 115.288C247.009 115.198 246.995 115.138 246.92 115.153C246.86 115.168 246.696 115.168 246.576 115.153C246.397 115.138 246.397 115.108 246.546 115.018C246.681 114.928 246.546 114.822 246.128 114.687C245.59 114.506 245.306 114.235 245.679 114.235C246.023 114.235 245.799 113.95 245.426 113.904C245.082 113.874 245.022 113.799 245.052 113.498C245.097 113.167 245.067 113.152 244.663 113.227C244.26 113.317 244.215 113.273 244.021 112.686C243.901 112.34 243.557 111.813 243.259 111.512C242.945 111.212 242.691 110.821 242.691 110.655C242.691 110.385 242.781 110.324 243.214 110.324C243.617 110.324 243.737 110.264 243.737 110.054C243.737 109.738 243.244 109.226 242.9 109.181C242.766 109.166 242.557 109.046 242.422 108.925C242.273 108.805 241.989 108.67 241.779 108.609C241.451 108.534 241.406 108.459 241.466 108.143C241.495 107.932 241.586 107.767 241.66 107.767C241.735 107.767 241.795 107.662 241.795 107.526C241.795 107.316 241.75 107.316 241.571 107.466C241.376 107.631 241.287 107.602 241.047 107.346C240.883 107.166 240.748 106.955 240.748 106.864C240.748 106.774 240.689 106.729 240.614 106.789C240.54 106.835 240.375 106.759 240.256 106.638C240.121 106.519 239.897 106.413 239.733 106.413C239.568 106.413 239.359 106.308 239.254 106.188C239.165 106.067 238.702 105.872 238.238 105.736C237.76 105.601 237.117 105.33 236.789 105.149C236.46 104.954 236.102 104.833 236.011 104.864C235.907 104.908 235.818 104.864 235.818 104.789C235.818 104.713 235.534 104.608 235.205 104.548C234.861 104.487 234.129 104.202 233.577 103.901C232.635 103.404 232.53 103.375 232.112 103.57C231.857 103.675 231.619 103.886 231.589 104.037C231.544 104.202 231.365 104.307 231.125 104.307C230.917 104.307 230.737 104.367 230.737 104.428C230.737 104.502 230.618 104.698 230.483 104.879C230.334 105.044 230.11 105.33 229.99 105.495C229.87 105.676 229.631 105.811 229.452 105.811C229.198 105.811 229.093 105.676 228.944 105.09C228.84 104.698 228.72 104.473 228.69 104.578C228.585 104.849 228.346 104.638 228.346 104.262C228.346 103.991 228.376 103.961 228.511 104.156C228.645 104.337 228.66 104.322 228.571 104.081C228.511 103.916 228.451 103.525 228.421 103.209C228.346 102.517 228.227 102.307 227.973 102.412C227.868 102.441 227.539 102.351 227.241 102.186C226.583 101.84 226.329 101.84 225.657 102.202Z" fill="white"/>
<path d="M236.744 115.619C236.669 115.724 236.55 115.98 236.49 116.191C236.43 116.402 236.251 116.792 236.071 117.064C235.907 117.349 235.758 117.845 235.728 118.176C235.698 118.507 235.608 118.868 235.519 118.974C235.444 119.079 235.339 119.59 235.295 120.117C235.204 121.26 234.697 122.915 234.308 123.351C234.144 123.517 234.025 123.727 234.025 123.817C234.025 124.118 233.561 124.464 233.187 124.464C232.948 124.464 232.605 124.239 232.231 123.863C231.903 123.532 231.514 123.261 231.365 123.261C231.216 123.261 230.991 123.096 230.886 122.885C230.782 122.675 230.602 122.509 230.498 122.509C230.378 122.509 230.259 122.344 230.199 122.133C230.094 121.726 229.84 121.621 229.84 121.982C229.84 122.133 229.571 121.952 229.108 121.516L228.376 120.809L228.675 120.493C228.839 120.313 229.033 120.027 229.108 119.831C229.183 119.636 229.318 119.531 229.407 119.575C229.496 119.636 229.527 119.771 229.482 119.877C229.407 120.072 229.945 120.298 230.169 120.162C230.289 120.087 230.229 119.38 230.079 119.23C230.035 119.184 229.9 119.244 229.766 119.349C229.571 119.515 229.542 119.485 229.542 119.139C229.542 118.928 229.616 118.763 229.706 118.778C229.795 118.808 230.035 118.522 230.244 118.147C230.543 117.59 230.558 117.454 230.393 117.319C230.274 117.244 230.214 117.078 230.244 116.973C230.289 116.882 230.243 116.792 230.154 116.792C230.065 116.792 229.99 116.853 229.99 116.928C229.99 117.003 229.855 117.093 229.676 117.139C229.452 117.198 229.392 117.169 229.452 117.003C229.556 116.717 229.452 116.733 228.944 117.123C228.6 117.379 228.451 117.409 228.316 117.274C228.212 117.169 227.988 117.093 227.809 117.093C227.614 117.093 227.375 117.003 227.27 116.898C227.166 116.777 226.986 116.717 226.882 116.762C226.792 116.792 226.703 116.687 226.703 116.537C226.703 116.312 226.673 116.296 226.554 116.492C226.419 116.687 226.374 116.687 226.239 116.446C226.15 116.312 226.031 116.22 225.94 116.266C225.865 116.326 225.806 116.221 225.806 116.055C225.806 115.785 225.761 115.77 225.432 115.89C225.224 115.965 225.059 115.98 225.059 115.935C225.059 115.875 224.984 115.905 224.88 116.01C224.67 116.22 224.984 116.657 225.268 116.551C225.552 116.446 225.701 116.928 225.477 117.198C225.343 117.379 225.089 117.409 224.506 117.349C224.058 117.304 223.714 117.334 223.714 117.409C223.714 117.485 223.639 117.544 223.535 117.544C223.266 117.544 222.533 118.447 222.608 118.673C222.653 118.794 222.549 118.943 222.384 119.049C222.205 119.139 222.07 119.29 222.07 119.38C222.07 119.485 221.921 119.711 221.742 119.906C221.473 120.193 221.443 120.298 221.607 120.388C221.95 120.614 221.637 120.839 221.085 120.763C220.786 120.734 220.442 120.779 220.337 120.869C220.158 121.02 220.143 121.004 220.218 120.794C220.278 120.643 220.218 120.524 220.068 120.463C219.934 120.418 219.829 120.283 219.829 120.177C219.829 120.057 219.62 119.816 219.366 119.636C218.933 119.335 218.873 119.32 218.709 119.546C218.604 119.68 218.499 119.771 218.469 119.726C218.305 119.575 217.438 119.5 217.438 119.651C217.438 119.726 217.513 119.801 217.587 119.801C217.678 119.801 217.738 119.952 217.738 120.132C217.722 120.463 217.722 120.478 217.513 120.193C217.304 119.921 217.288 119.921 217.288 120.162C217.288 120.358 217.214 120.403 216.99 120.327C216.736 120.252 216.691 120.298 216.691 120.643C216.691 120.869 216.647 121.02 216.601 120.974C216.437 120.809 215.734 121.636 215.705 122.028C215.69 122.253 215.66 122.493 215.66 122.569C215.645 122.629 215.406 122.644 215.107 122.584C214.763 122.524 214.599 122.539 214.659 122.644C214.719 122.719 214.689 122.824 214.599 122.885C214.495 122.945 214.495 123.065 214.599 123.276C214.704 123.441 214.704 123.561 214.614 123.561C214.539 123.561 214.45 123.682 214.405 123.817C214.375 123.968 214.286 123.802 214.226 123.441C214.166 123.096 214.061 122.809 214.016 122.809C213.956 122.809 213.657 123.065 213.359 123.381C212.926 123.817 212.806 124.074 212.806 124.479C212.806 124.885 212.672 125.157 212.328 125.547C212.059 125.848 211.715 126.254 211.566 126.48C211.192 127.021 210.475 127.367 209.638 127.398C209.22 127.413 208.817 127.518 208.652 127.668C208.503 127.804 208.204 127.924 207.995 127.924C207.785 127.924 207.532 128.029 207.427 128.15C207.292 128.315 207.053 128.361 206.665 128.315C206.336 128.286 206.053 128.315 205.993 128.391C205.947 128.466 205.813 128.526 205.694 128.526C205.574 128.526 205.26 128.721 204.991 128.962C204.737 129.218 204.274 129.519 203.976 129.654C203.677 129.804 203.347 130.09 203.229 130.316L203.049 130.707L202.959 130.255C202.885 129.895 202.839 129.85 202.72 130.03C202.347 130.602 202.197 131.008 202.197 131.414C202.197 131.654 202.032 132.106 201.824 132.407C201.375 133.069 201.375 133.204 201.719 134.347C202.063 135.476 201.988 136.048 201.6 135.204L201.331 134.618L201.032 135.37L200.868 134.994C200.718 134.663 200.702 134.708 200.777 135.28C200.822 135.641 200.972 136.138 201.092 136.378C201.225 136.634 201.345 137.175 201.375 137.612C201.405 138.033 201.48 138.574 201.524 138.83C201.584 139.071 201.629 139.477 201.615 139.732C201.615 139.973 201.584 140.997 201.569 141.974C201.54 143.253 201.465 143.795 201.345 143.824C201.241 143.869 201.151 144.05 201.151 144.231C201.151 144.681 200.748 145.223 200.389 145.223C200.21 145.223 200.046 145.374 199.955 145.615C199.746 146.156 199.762 146.277 200.09 146.277C200.254 146.277 200.419 146.397 200.464 146.547C200.583 146.908 201.061 147.134 201.928 147.239C202.6 147.314 203.393 147.119 203.393 146.878C203.393 146.757 203.87 146.562 204.304 146.502C204.439 146.487 204.677 146.336 204.842 146.171C205.215 145.795 206.291 145.645 208.055 145.735L209.339 145.81L209.997 145.133C210.341 144.772 210.759 144.471 210.893 144.471C211.028 144.471 211.178 144.411 211.223 144.336C211.267 144.26 211.491 144.155 211.715 144.095C211.954 144.05 212.253 143.9 212.388 143.764C212.567 143.599 212.791 143.569 213.135 143.629C213.628 143.719 215.69 143.253 216.018 142.966C216.109 142.892 216.796 142.786 217.558 142.727C218.858 142.621 218.962 142.635 219.306 142.966C219.5 143.148 219.755 143.268 219.859 143.238C219.964 143.192 220.307 143.328 220.606 143.523C220.92 143.704 221.249 143.869 221.353 143.869C221.488 143.869 221.488 143.915 221.353 144.05C221.099 144.306 221.129 144.772 221.383 144.772C221.726 144.772 221.891 146.141 221.577 146.336C221.369 146.472 221.398 146.547 221.817 146.923C222.294 147.345 222.294 147.345 222.34 147.014C222.399 146.637 223.355 145.674 223.67 145.674C223.789 145.674 224.193 145.374 224.566 144.998C224.94 144.622 225.283 144.351 225.343 144.411C225.388 144.471 225.343 144.547 225.253 144.576C225.149 144.622 225.059 144.772 225.059 144.922C225.059 145.073 224.88 145.299 224.67 145.449C224.461 145.584 224.193 145.93 224.073 146.216C223.953 146.502 223.699 146.803 223.52 146.863C223.326 146.939 223.087 147.119 222.967 147.269C222.757 147.51 222.773 147.525 223.116 147.435C223.326 147.374 223.61 147.329 223.759 147.329C223.908 147.329 224.162 147.088 224.327 146.803C224.506 146.517 224.701 146.277 224.775 146.277C225.074 146.277 224.88 147.029 224.461 147.45C223.968 147.946 224.013 148.112 224.61 147.991C224.954 147.915 225.044 147.976 225.208 148.397C225.388 148.834 225.388 148.939 225.118 149.42C224.865 149.886 224.834 150.037 224.984 150.473C225.089 150.759 225.313 151.044 225.492 151.105C225.656 151.18 225.806 151.285 225.806 151.361C225.806 151.436 226.075 151.496 226.419 151.496C226.762 151.496 227.076 151.572 227.135 151.647C227.181 151.737 227.375 151.872 227.554 151.978C227.838 152.127 228.002 152.098 228.6 151.782C228.989 151.572 229.347 151.451 229.392 151.511C229.437 151.572 229.721 151.752 230.035 151.902C230.334 152.068 230.587 152.294 230.587 152.414C230.587 152.594 230.647 152.594 230.901 152.353C231.768 151.572 233.352 150.789 234.129 150.789C235.085 150.789 235.952 150.307 235.967 149.781C235.967 149.676 236.131 149.42 236.341 149.195C236.55 148.969 236.714 148.713 236.714 148.608C236.714 148.518 237.013 148.156 237.386 147.81C237.76 147.465 238.387 146.788 238.762 146.306C239.673 145.163 240.405 144.456 241.092 144.095C241.391 143.929 241.645 143.719 241.645 143.629C241.645 143.538 241.824 143.268 242.063 143.012C242.736 142.275 242.99 141.914 242.99 141.734C242.99 141.628 243.14 141.312 243.333 141.026C244.185 139.717 244.663 138.83 244.723 138.394C244.768 138.138 244.902 137.672 245.022 137.341C245.261 136.724 245.186 136.363 244.947 136.965C244.872 137.16 244.798 137.25 244.798 137.175C244.783 137.01 245.052 135.942 245.186 135.596C245.231 135.476 245.261 135.31 245.246 135.25C245.231 135.175 245.366 134.904 245.53 134.618C245.694 134.347 245.829 134.002 245.814 133.851C245.814 133.64 245.784 133.625 245.725 133.79C245.501 134.408 244.932 134.513 244.932 133.926C244.932 133.776 244.872 133.64 244.798 133.64C244.723 133.64 244.634 133.43 244.588 133.189C244.528 132.933 244.395 132.738 244.275 132.738C244.155 132.738 244.036 132.588 244.006 132.391C243.976 132.211 243.872 132.076 243.767 132.106C243.602 132.136 243.588 131.956 243.677 131.294C243.767 130.481 243.767 130.437 243.468 130.512C243.273 130.571 243.124 130.512 243.08 130.376C243.005 130.181 242.945 130.181 242.75 130.346C242.557 130.512 242.526 130.451 242.557 129.924C242.586 129.549 242.497 129.157 242.347 128.917C242.034 128.451 242.034 128.376 242.318 128.376C242.467 128.376 242.526 128.255 242.482 128.029C242.452 127.849 242.347 127.714 242.243 127.744C241.989 127.804 241.063 127.157 240.957 126.841C240.913 126.69 240.793 126.615 240.659 126.675C240.554 126.721 240.449 126.675 240.449 126.57C240.449 126.48 240.39 126.435 240.316 126.48C240.091 126.631 239.807 126.134 239.882 125.743C239.926 125.532 239.897 125.322 239.822 125.276C239.762 125.232 239.747 125.126 239.792 125.036C239.972 124.75 239.852 123.517 239.628 123.261C239.403 123.02 239.374 121.41 239.598 121.065C239.658 120.959 239.538 120.779 239.299 120.629C238.94 120.388 238.926 120.342 239.15 120.177C239.329 120.042 239.359 119.967 239.225 119.831C239.119 119.726 238.94 119.651 238.821 119.666C238.656 119.666 238.671 119.711 238.881 119.801C239.179 119.936 239.179 119.936 238.881 119.952C238.716 119.982 238.537 119.982 238.477 119.967C238.403 119.967 238.358 120.011 238.358 120.102C238.358 120.177 238.253 120.252 238.119 120.252C237.939 120.252 237.909 120.101 237.939 119.5C237.969 118.943 238.044 118.763 238.179 118.823C238.328 118.884 238.372 118.748 238.358 118.327C238.343 118.026 238.343 117.74 238.358 117.695C238.462 117.379 238.462 117.093 238.343 117.093C238.193 117.093 238.148 117.395 238.193 118.132C238.223 118.432 238.179 118.597 238.088 118.537C237.999 118.492 237.955 118.327 237.984 118.176C237.999 118.041 237.955 117.845 237.88 117.755C237.73 117.544 237.775 117.229 237.984 117.048C238.074 116.973 238.029 116.943 237.88 117.003C237.625 117.078 237.237 116.627 237.401 116.446C237.446 116.402 237.446 116.161 237.386 115.905C237.282 115.424 237.013 115.303 236.744 115.619ZM201.449 135.822C201.449 135.942 201.42 136.048 201.39 136.048C201.36 136.048 201.3 135.942 201.241 135.822C201.196 135.701 201.225 135.596 201.3 135.596C201.39 135.596 201.449 135.701 201.449 135.822ZM229.84 151.165C229.736 151.3 229.616 151.361 229.587 151.331C229.482 151.226 229.691 150.939 229.87 150.939C229.96 150.939 229.96 151.03 229.84 151.165Z" fill="white"/>
<path d="M227.689 154.519C227.48 154.835 227.27 155.377 227.241 155.723C227.196 156.054 227.091 156.475 227.002 156.641C226.911 156.821 226.852 157.227 226.882 157.543C226.911 158.07 226.957 158.145 227.345 158.22C227.809 158.31 228.795 157.935 228.795 157.679C228.795 157.573 228.869 157.573 228.989 157.679C229.139 157.799 229.288 157.739 229.587 157.407C229.811 157.183 229.99 156.881 229.99 156.746C229.99 156.611 230.11 156.506 230.274 156.506C230.453 156.506 230.618 156.37 230.677 156.159C230.737 155.979 230.932 155.587 231.125 155.287C231.589 154.55 231.395 154.384 230.393 154.67C229.079 155.031 229.034 155.031 228.72 154.745C228.556 154.58 228.361 154.429 228.272 154.384C228.197 154.354 228.137 154.234 228.167 154.129C228.241 153.813 228.108 153.933 227.689 154.519Z" fill="white"/>
<path d="M54.5658 0.0759909C53.4609 0.136163 51.6376 0.226416 50.5318 0.271547C49.426 0.316678 48.3202 0.406931 48.0666 0.467103C47.8268 0.512234 47.4533 0.542315 47.2449 0.527274L46.8714 0.482143L47.2449 0.798043C47.5437 1.03872 47.5732 1.09889 47.3638 1.11394C47.2292 1.11394 47.065 1.03872 47.0051 0.948468C46.9608 0.858215 46.781 0.813083 46.6316 0.858215C46.4674 0.903346 46.2433 0.843174 46.1391 0.722831C45.8845 0.482143 45.6909 0.437021 45.8246 0.662659C45.8845 0.752912 45.6909 0.813083 45.3764 0.813083C44.9281 0.813083 44.8387 0.858215 44.9134 1.05377C44.9881 1.24933 44.9429 1.27941 44.6745 1.18915C43.838 0.948468 43.2994 0.948468 43.1057 1.2042C42.9259 1.45992 42.9111 1.45992 42.9111 1.18915C42.9111 0.933427 42.7913 0.918386 41.2225 1.00864C40.2965 1.06881 39.1013 1.14402 38.5774 1.18915C38.0397 1.23429 37.6967 1.23429 37.8009 1.17411C38.1596 0.993599 37.965 0.813083 37.4126 0.813083C37.099 0.813083 36.7698 0.737871 36.6656 0.632568C36.5457 0.512234 35.0212 0.452062 31.3754 0.437022C26.161 0.406931 24.4723 0.497184 23.4117 0.858215C22.993 1.00864 22.649 1.02368 22.186 0.933427C21.7673 0.843174 21.2748 0.843174 20.7519 0.963517C20.3037 1.05377 19.4072 1.15906 18.7644 1.18915C17.0462 1.27941 16.0151 1.42983 16.0151 1.58027C16.0151 1.65548 16.1498 1.71565 16.3139 1.71565C16.4781 1.71565 16.6127 1.8059 16.6127 1.92625C16.6127 2.03155 16.8369 2.19702 17.1052 2.28727C17.4345 2.39257 17.4944 2.4377 17.2851 2.45274C17.1052 2.46778 16.8811 2.55805 16.7769 2.6483C16.6275 2.81377 16.598 2.79872 16.6423 2.63326C16.6727 2.51292 16.538 2.40761 16.3287 2.37753C16.1193 2.3324 15.8353 2.18198 15.6859 2.0165C15.4765 1.79086 15.2081 1.71565 14.6705 1.71565C14.2665 1.71565 13.893 1.77582 13.8482 1.86608C13.8033 1.94129 13.5195 2.0165 13.2356 2.0165C12.9516 2.0165 12.7275 2.07667 12.7275 2.16693C12.7275 2.24215 12.5781 2.31736 12.3988 2.3324C12.2045 2.3324 11.7563 2.45274 11.3827 2.60317C10.8597 2.82882 10.7253 2.94915 10.7253 3.23497C10.7103 3.52078 10.8149 3.61103 11.1586 3.65616C11.4873 3.68625 11.5322 3.73137 11.3528 3.80659C11.1137 3.89685 11.1137 3.92693 11.3827 4.27292C11.6517 4.63392 11.7115 4.64898 13.6539 4.66404C15.6711 4.6791 16.7022 4.87459 16.1046 5.11535C15.91 5.19056 15.791 5.16044 15.7458 5.05512C15.6859 4.87459 14.5801 4.79939 14.177 4.96485C14.0425 5.01003 13.9827 5.16044 14.0425 5.35602C14.1023 5.62671 14.0719 5.65683 13.8033 5.58163C13.6241 5.53655 13.101 5.59669 12.6528 5.70201C12.2045 5.80724 11.816 5.85242 11.7712 5.8223C11.6517 5.70201 11.0839 5.94268 11.0839 6.09309C11.0839 6.18335 11.1586 6.19841 11.2631 6.13817C11.3677 6.06297 11.3827 6.09309 11.3229 6.21347C11.2333 6.34881 11.1436 6.33375 10.9345 6.15323C10.7253 5.95774 10.5011 5.92762 9.99309 6.00282C9.55972 6.06297 9.29079 6.048 9.23103 5.94268C9.17127 5.85242 8.962 5.77721 8.76777 5.77721C8.57354 5.77721 8.37932 5.71698 8.3345 5.64177C8.24476 5.49137 6.87012 5.61175 6.75059 5.77721C6.70577 5.83736 6.57121 5.92762 6.45169 5.9727C6.2724 6.03294 6.2724 6.06297 6.48157 6.06297C6.73565 6.07803 7.01953 6.75495 6.85518 6.92041C6.8253 6.96559 6.31722 7.02573 5.76432 7.05585L4.73332 7.13106L5.16669 6.73989C5.55515 6.37893 5.55515 6.3187 5.34598 6.09309C5.15175 5.8975 5.04717 5.8975 4.80803 6.048C4.44945 6.27361 4.31498 6.27361 4.43451 6.07803C4.56897 5.85242 3.53798 5.8975 2.6265 6.16829C2.11842 6.3187 1.81961 6.48416 1.81961 6.6196C1.81961 6.73989 1.74481 6.80013 1.67011 6.75495C1.58046 6.6948 1.55058 6.60454 1.5954 6.52934C1.71493 6.33375 0.967805 5.92762 0.683932 6.03294C0.325355 6.16829 -0.167784 6.67974 0.0563268 6.67974C0.145971 6.67974 0.175946 6.72492 0.131032 6.78507C-0.0631976 6.96559 0.564408 7.2664 1.16213 7.28146C1.67011 7.28146 1.78972 7.32655 1.75975 7.53719C1.74481 7.77786 1.87937 7.80798 2.85061 7.7628C3.67244 7.73277 4.00114 7.65757 4.1356 7.47705C4.25522 7.31158 4.40462 7.2664 4.59885 7.35667C4.79308 7.43187 4.82297 7.49211 4.6885 7.53719C4.5391 7.59733 4.56897 7.67254 4.7632 7.82304C4.92755 7.94332 4.95744 8.01853 4.85285 8.03359C4.58392 8.03359 4.61379 8.33449 4.88273 8.33449C5.00225 8.33449 5.10693 8.27425 5.10693 8.19905C5.10693 8.13891 5.43563 8.10879 5.83903 8.15397C6.49651 8.21411 6.63097 8.16903 6.98964 7.80798C7.31834 7.47705 7.34822 7.37172 7.18387 7.25134C7.01953 7.14612 7.01953 7.08588 7.16893 7.02573C7.25858 6.99562 7.34822 6.86027 7.34822 6.73989C7.34822 6.42402 8.63331 6.45413 8.75283 6.77001C8.8126 6.90535 8.82753 7.04079 8.81259 7.04079C8.78271 7.05585 8.58849 7.14612 8.37932 7.23638C8.02065 7.38678 7.67701 8.00356 7.91606 8.04865C8.37931 8.13891 9.12644 8.18399 11.4275 8.27425C13.3402 8.34946 14.1319 8.31943 14.2813 8.19905C14.4463 8.0637 14.521 8.0637 14.5957 8.19905C14.7147 8.37958 16.3434 8.28931 17.2104 8.03359C17.6881 7.89824 18.1068 7.55225 18.1068 7.29652C18.1068 6.83015 16.0446 6.72492 14.0126 7.07082C13.3551 7.17614 12.7723 7.23638 12.6976 7.1912C12.6229 7.14612 12.2643 7.08588 11.8907 7.07082C11.2183 7.02573 10.5608 6.67974 11.1735 6.67974C11.3528 6.67974 11.5322 6.63466 11.5919 6.55946C11.6517 6.49922 12.5632 6.43908 13.5942 6.43908C14.64 6.42402 15.8952 6.40896 16.3886 6.3939C16.8811 6.37893 17.4197 6.36387 17.5839 6.37893C17.8827 6.3939 17.8827 6.3939 17.5839 6.5444C17.3745 6.63466 17.5535 6.66468 18.1815 6.60454C18.8391 6.55946 18.9885 6.57442 18.7496 6.67974C18.3014 6.86027 18.3162 6.98065 18.7939 6.98065C19.0485 6.98065 19.2126 6.89039 19.2578 6.67974C19.3021 6.49922 19.4662 6.37893 19.6756 6.37893C20.229 6.37893 20.9456 6.06297 20.9456 5.8223C20.9456 5.65683 20.8413 5.61175 20.5573 5.68695C20.3037 5.76215 20.2133 5.73204 20.2732 5.62671C20.3184 5.55151 20.5121 5.47631 20.6919 5.47631C20.8708 5.47631 21.2296 5.37108 21.4685 5.23564C21.723 5.10029 22.2607 4.96485 22.6647 4.93483C23.7105 4.84456 24.0388 4.72418 23.7695 4.55872C23.6358 4.46846 23.7253 4.4534 24.0241 4.51363C24.3081 4.57378 24.5322 4.5286 24.5922 4.43843C24.6512 4.34813 24.8163 4.27292 24.9657 4.27292C25.1151 4.27292 25.3835 4.10744 25.5633 3.91189C25.9064 3.55086 26.2956 3.44556 27.9538 3.28009C28.4021 3.25001 28.9849 3.09958 29.2542 2.97924C29.5226 2.84386 29.8214 2.72351 29.9413 2.70847C33.0641 2.13684 33.9163 1.94129 33.7512 1.83599C33.6617 1.77582 33.8259 1.76078 34.1247 1.82094C34.4392 1.86608 34.7675 1.83599 34.8718 1.74573C35.0811 1.59531 37.2328 1.2042 37.3379 1.32454C37.3674 1.35462 37.2927 1.49 37.1581 1.62539C36.9939 1.79086 36.6351 1.86608 36.0679 1.86608C34.9317 1.88112 31.8237 2.49787 31.7342 2.73855C31.7047 2.8589 31.8836 2.91907 32.3623 2.91907C32.7358 2.91907 33.0494 2.97924 33.0494 3.06949C33.0494 3.35531 32.3466 3.56591 30.9577 3.68625C28.7756 3.86676 26.4293 4.22779 25.9811 4.46846L25.5781 4.6791L25.9664 4.84456C26.1757 4.94979 26.4598 5.02509 26.6239 5.02509C26.7733 5.02509 26.9375 5.08523 26.9827 5.14538C27.0122 5.20552 26.6839 5.2507 26.2357 5.23564C25.7874 5.22058 25.3835 5.26576 25.3392 5.34096C25.294 5.41616 25.4287 5.47631 25.638 5.47631C25.8917 5.47631 25.9968 5.53655 25.9369 5.67189C25.8022 6.01788 26.9827 6.70986 27.8496 6.80013C28.3726 6.84521 28.581 6.81509 28.5063 6.70986C28.4473 6.60454 28.5515 6.58948 28.8798 6.67974C29.1491 6.75495 29.4036 6.78507 29.4783 6.73989C29.8362 6.51428 32.0183 6.57442 33.1093 6.84521C34.2898 7.13106 34.6633 7.28146 34.1994 7.28146C33.8563 7.28146 34.0353 7.6876 34.4392 7.79292C34.7528 7.88318 34.7528 7.89824 34.4982 8.09373C34.2299 8.30437 34.2299 8.30437 34.4982 8.37958C34.7076 8.43972 34.6928 8.45478 34.4235 8.46984C34.2299 8.46984 34.11 8.54504 34.1699 8.6353C34.2151 8.71051 34.3645 8.74062 34.5139 8.69545C34.6781 8.6353 34.6476 8.72557 34.394 8.95118L34.0205 9.28211L34.3645 9.19184C34.7076 9.11664 34.7076 9.11664 34.454 9.40249C34.2151 9.65821 34.2151 9.73342 34.394 9.83874C34.5729 9.95903 34.5434 9.98915 34.2898 9.98915C33.9163 9.98915 33.8259 10.2148 34.1404 10.3502C34.2594 10.3953 34.1847 10.5458 33.9006 10.7714C33.5418 11.0873 33.5123 11.1625 33.6913 11.4182C33.8563 11.6288 34.0205 11.6739 34.4392 11.5987C34.738 11.5536 35.0212 11.5686 35.0664 11.6589C35.1115 11.7342 35.0516 11.7491 34.9317 11.704C34.7971 11.6589 34.6928 11.689 34.6928 11.7792C34.6928 11.8695 34.8275 11.9447 35.0064 11.9447C35.2158 11.9447 35.2905 11.8544 35.261 11.6739C35.2453 11.5386 35.2905 11.4182 35.3652 11.4182C35.4399 11.4182 35.4998 11.5085 35.4703 11.5987C35.4399 11.7191 35.5745 11.7943 35.7691 11.7943C36.0227 11.7943 36.127 11.8846 36.1426 12.0951C36.1721 12.4111 35.9776 12.5012 35.8134 12.2456C35.6944 12.05 33.991 12.05 33.8859 12.2306C33.8259 12.3058 33.8859 12.4111 33.9753 12.4562C34.0805 12.5012 33.9753 12.5163 33.7512 12.4712C33.5123 12.426 33.3629 12.4411 33.4081 12.5163C33.4524 12.5915 33.3629 12.8323 33.1988 13.0278L32.9147 13.4039L33.3924 13.6747C33.8259 13.9003 33.9606 13.9003 34.6781 13.7197C35.604 13.4941 35.7691 13.2835 35.201 13.0127C34.9769 12.9225 34.8422 12.7871 34.9022 12.742C34.9465 12.6818 35.0811 12.7269 35.1706 12.8172C35.2757 12.9225 35.4998 12.9977 35.6787 12.9977C36.0974 12.9977 36.1122 13.4791 35.7092 14.0808C35.4546 14.4568 35.3652 14.4719 34.7224 14.3967C34.05 14.3215 33.9753 14.3516 33.6166 14.7878C33.3924 15.0436 33.184 15.2541 33.1241 15.2541C32.9599 15.2541 32.3023 16.0514 32.3023 16.2469C32.3023 16.3673 32.4213 16.4575 32.5707 16.4726C32.7653 16.4726 32.7505 16.5026 32.496 16.608C32.1225 16.7584 31.7794 17.2999 31.9878 17.4203C32.0625 17.4654 32.093 17.661 32.033 17.8415C31.9731 18.0972 32.0035 18.1423 32.2276 18.0671C32.4213 17.9919 32.4665 18.0219 32.3918 18.1875C32.3466 18.3078 32.3623 18.4131 32.437 18.4131C32.5117 18.4131 32.4812 18.6688 32.377 18.9696C32.2129 19.466 32.2129 19.5563 32.4065 19.6767C32.5707 19.7669 32.5864 19.8271 32.4665 19.9023C32.2424 20.0377 32.5117 20.8199 32.7653 20.8199C32.8695 20.8199 32.9 20.9854 32.8548 21.2712C32.7948 21.5119 32.8105 21.7225 32.8852 21.7225C32.9442 21.7225 33.0789 21.9933 33.184 22.3092C33.2735 22.625 33.4524 22.9409 33.5723 22.9861C33.6913 23.0312 33.7964 23.2117 33.7964 23.3772C33.7964 23.7081 33.9753 23.7533 34.3645 23.5426C34.7224 23.3622 36.0375 23.7683 36.0375 24.0691C36.0375 24.1895 36.1574 24.3249 36.3068 24.37C36.4415 24.4151 36.7098 24.5205 36.8897 24.6107C37.3075 24.8213 38.0102 24.5806 38.2039 24.1594C38.2786 23.9789 38.428 23.8285 38.5331 23.8285C38.6226 23.8285 38.7425 23.6931 38.8025 23.5277C38.8467 23.3772 39.116 23.0162 39.3844 22.7454C39.6537 22.4746 39.923 22.0534 39.982 21.8278C40.042 21.5721 40.2366 21.3464 40.4607 21.2712C40.6553 21.196 41.0131 20.9553 41.2372 20.7447C41.4613 20.5341 41.7602 20.3235 41.9096 20.2784C42.0442 20.2332 42.1641 20.0979 42.1641 19.9926C42.1641 19.8723 42.3135 19.6466 42.4777 19.4811C42.687 19.2856 42.7765 19.075 42.7165 18.8794C42.6723 18.7139 42.687 18.5936 42.747 18.6087C42.9407 18.6688 43.8076 18.2175 43.7181 18.0972C43.6729 18.0219 43.957 17.9618 44.3305 17.9618C44.8387 17.9618 44.9881 17.9167 44.9134 17.7662C44.8239 17.6309 44.8534 17.6309 45.0176 17.7512C45.3321 17.9919 46.0487 18.1423 46.0487 17.9618C46.0487 17.8866 46.1538 17.8114 46.2728 17.8114C46.3927 17.8114 46.4969 17.7362 46.4969 17.6459C46.4969 17.5707 46.5716 17.5406 46.6463 17.5858C46.7367 17.6459 46.8861 17.6309 46.9903 17.5557C47.0955 17.4805 47.5437 17.2999 47.9919 17.1495C48.4844 16.9841 49.1125 16.623 49.5607 16.2169C49.9785 15.8558 50.4866 15.5249 50.7107 15.4648C50.9505 15.4196 51.1894 15.2692 51.2789 15.1337C51.3988 14.9232 51.443 14.9081 51.5629 15.0886C51.6524 15.239 51.8765 15.2692 52.3551 15.194C54.5068 14.863 56.7331 14.3666 57.375 14.0507C57.719 13.8852 58.0474 13.7499 58.1073 13.7499C58.182 13.7499 58.6902 13.5543 59.2435 13.3136L60.259 12.8924L59.393 12.7871C58.182 12.6517 57.1067 12.4411 57.5244 12.4111C57.7937 12.396 57.8685 12.3208 57.8233 12.05C57.7938 11.7792 57.8537 11.7191 58.2125 11.7191C58.526 11.7191 58.6607 11.7943 58.6902 11.9899C58.7049 12.1553 58.7649 12.3208 58.8248 12.3659C58.9595 12.5163 60.5283 12.6517 60.7072 12.5314C60.7976 12.4712 60.9018 12.1403 60.9165 11.7792C60.947 11.1625 60.9165 11.1174 60.4084 10.8617C59.9601 10.651 59.9306 10.621 60.2894 10.6962C60.7671 10.7864 61.2753 10.4705 60.9617 10.275C60.8123 10.1697 60.8418 10.1396 61.0364 10.1396C61.2301 10.1396 61.2901 10.0643 61.2154 9.8538C61.1259 9.55289 61.4551 9.38743 62.2022 9.38743C62.8146 9.38743 63.1881 8.87597 62.6799 8.74063C62.4853 8.69545 62.5157 8.66542 62.7841 8.6353C62.9935 8.62024 63.2176 8.60519 63.2923 8.62024C63.5164 8.66542 64.637 8.13891 64.8168 7.89824C64.9063 7.77786 65.0861 7.73277 65.2198 7.77786C65.3545 7.82304 65.5039 7.80798 65.5491 7.73277C65.609 7.64251 65.5343 7.58227 65.3997 7.58227C65.265 7.58227 65.2051 7.50707 65.2503 7.43187C65.3102 7.34161 65.1608 7.28146 64.9063 7.28146C64.4728 7.28146 64.1887 7.61239 64.3686 7.89824C64.458 8.04865 63.7857 8.09373 63.6363 7.92826C63.5763 7.88318 63.6658 7.73277 63.8309 7.62745C64.2487 7.32655 64.174 6.57442 63.711 6.25855C63.2775 5.9727 63.4869 5.8223 64.1887 5.8975C64.5779 5.94268 64.6821 6.01788 64.6222 6.19841C64.5622 6.33375 64.5927 6.3939 64.6821 6.33375C64.7873 6.25855 64.8168 6.33375 64.7716 6.52934C64.6526 6.99562 64.8767 6.87533 65.0409 6.37893C65.1304 6.1232 65.3102 5.92762 65.4292 5.92762C65.5491 5.92762 65.6238 5.8223 65.5933 5.65683C65.5638 5.47631 65.3849 5.40111 64.9809 5.37108C64.6674 5.37108 64.3686 5.31084 64.3086 5.2507C64.2487 5.1755 64.3538 5.16044 64.518 5.20552C64.6969 5.2507 64.9367 5.23564 65.0409 5.16044C65.1903 5.07018 65.1304 5.01003 64.8463 4.88965C64.6369 4.81445 64.4128 4.66404 64.3538 4.57378C64.2791 4.4534 64.1887 4.4534 64.0393 4.58884C63.6815 4.88965 63.6068 4.58884 63.9646 4.28796C64.2339 4.04727 64.4433 4.00214 64.921 4.07735C65.4292 4.13753 65.5039 4.12249 65.4292 3.91189C65.3692 3.74642 65.4144 3.6712 65.5933 3.65616C65.8027 3.65616 65.8027 3.62608 65.5491 3.52078C65.1756 3.37035 65.3849 3.28009 66.3561 3.1748C66.7148 3.12966 67.0579 3.02437 67.1031 2.94915C67.1474 2.8589 67.4462 2.75359 67.745 2.69343C68.0595 2.63326 68.2688 2.52796 68.2236 2.45274C68.1785 2.37753 68.3878 2.31736 68.6719 2.31736C68.9559 2.31736 69.2243 2.25719 69.2695 2.19702C69.3147 2.1218 69.8229 1.98642 70.4048 1.88112C71.9146 1.61035 71.5558 1.39975 69.4484 1.29445C68.2089 1.24933 67.6555 1.27941 67.5061 1.39975C67.2525 1.61035 66.6097 1.47496 66.7443 1.24933C66.8043 1.17411 66.7296 1.11394 66.6097 1.11394C66.475 1.11394 66.3856 1.18916 66.416 1.29445C66.4308 1.38471 66.3256 1.50505 66.1762 1.53514C66.0268 1.56523 65.9373 1.50505 65.9521 1.39975C65.9825 1.29445 65.8626 1.17411 65.6985 1.14402C65.5343 1.11394 65.4439 1.12898 65.5186 1.2042C65.5786 1.26437 65.3102 1.44488 64.921 1.59531C64.0698 1.92625 63.9803 1.92625 64.3538 1.67052C64.5032 1.55018 64.5779 1.38471 64.518 1.27941C64.458 1.18915 64.518 1.08385 64.6369 1.03872C64.7716 0.993599 64.981 0.933427 65.1156 0.888296C65.5186 0.752912 65.3102 0.69274 64.2192 0.587446C63.6511 0.527275 62.9335 0.39189 62.6347 0.286587C61.9181 0.0308594 57.2413 -0.0894745 54.5658 0.0759909ZM48.6938 1.18915C48.6938 1.44488 48.6938 1.44488 48.3498 1.3095C48.1109 1.21924 48.1109 1.2042 48.3802 1.09889C48.5296 1.03872 48.6642 0.978558 48.679 0.978558C48.679 0.963517 48.6938 1.06881 48.6938 1.18915ZM63.0839 1.26437C62.964 1.33958 62.7251 1.39975 62.56 1.39975C62.3211 1.38471 62.3211 1.36967 62.6347 1.26437C63.1586 1.09889 63.3522 1.09889 63.0839 1.26437ZM17.9122 1.50505C17.8679 1.55018 17.7333 1.56523 17.6291 1.52009C17.5092 1.47496 17.5535 1.42983 17.7185 1.42983C17.8827 1.41479 17.9722 1.45992 17.9122 1.50505ZM18.6593 2.58813C18.3014 2.61822 18.0321 2.73855 17.9122 2.93411C17.6734 3.32522 17.5387 3.29514 17.6134 2.8589C17.6881 2.45274 18.1363 2.31736 18.8539 2.46778C19.1527 2.52796 19.1232 2.55805 18.6593 2.58813ZM21.0203 2.46778C21.0654 2.543 20.9907 2.61822 20.8561 2.61822C20.6172 2.61822 20.6172 2.63326 20.8865 2.84386C21.1549 3.05445 21.1401 3.05445 20.7666 2.90403C20.4374 2.75359 20.3931 2.67838 20.5121 2.51292C20.7214 2.27223 20.9013 2.25719 21.0203 2.46778ZM18.555 3.47565C18.555 3.61103 18.5098 3.65616 18.4508 3.58095C18.3761 3.50574 18.271 3.40043 18.1815 3.34026C18.0921 3.28009 18.152 3.21993 18.3014 3.21993C18.4351 3.21993 18.555 3.32522 18.555 3.47565ZM18.2562 3.73137C18.2562 3.7765 18.1963 3.85172 18.1068 3.89685C18.0321 3.94198 17.9574 3.91189 17.9574 3.83668C17.9574 3.74642 18.0321 3.6712 18.1068 3.6712C18.1963 3.6712 18.2562 3.70129 18.2562 3.73137ZM15.4175 4.34813C15.3124 4.46846 15.1629 4.57378 15.0735 4.57378C14.984 4.57378 15.044 4.46846 15.2081 4.34813C15.5817 4.06231 15.6564 4.06231 15.4175 4.34813ZM29.9561 5.28082C29.8519 5.31084 29.672 5.31084 29.5826 5.28082C29.4783 5.23564 29.5531 5.20552 29.7615 5.20552C29.9708 5.20552 30.0455 5.23564 29.9561 5.28082ZM27.715 5.43122C27.6098 5.46125 27.4309 5.46125 27.3415 5.43122C27.2363 5.38605 27.311 5.35602 27.5204 5.35602C27.7297 5.35602 27.8044 5.38605 27.715 5.43122ZM3.08966 6.3939C3.25401 6.64963 3.07472 6.70986 2.86555 6.45413C2.74603 6.3187 2.74602 6.22843 2.83567 6.22843C2.92531 6.22843 3.04484 6.30373 3.08966 6.3939ZM0.728753 6.6196C0.683931 6.66468 0.549465 6.67974 0.44488 6.63466C0.325354 6.58948 0.370175 6.5444 0.534523 6.5444C0.69887 6.52934 0.788516 6.57442 0.728753 6.6196ZM59.8707 9.23702C59.9159 9.31222 59.8854 9.38743 59.8107 9.38743C59.7213 9.38743 59.6466 9.31222 59.6466 9.23702C59.6466 9.14676 59.6761 9.08661 59.7065 9.08661C59.7508 9.08661 59.8264 9.14676 59.8707 9.23702ZM59.5424 9.68833C59.1089 9.86886 59.0941 10.2449 59.5119 10.3653C59.9159 10.5006 59.8107 10.6059 59.3773 10.4855C59.1836 10.4405 59.049 10.2901 59.049 10.1246C59.049 9.97409 58.929 9.7786 58.7953 9.7033C58.586 9.58301 58.6754 9.55289 59.1984 9.55289C59.7508 9.55289 59.8107 9.58301 59.5424 9.68833ZM60.887 9.64316C60.7819 9.67327 60.5735 9.67327 60.4388 9.64316C60.2894 9.59807 60.3789 9.56795 60.6177 9.56795C60.8723 9.56795 60.9765 9.59807 60.887 9.64316ZM60.947 9.929C60.9018 9.97409 60.7671 9.98915 60.6629 9.94406C60.543 9.89888 60.5882 9.8538 60.7524 9.8538C60.9165 9.83874 61.006 9.88382 60.947 9.929ZM32.8252 19.436C32.7801 19.4811 32.6611 19.436 32.5559 19.3307C32.4213 19.1803 32.437 19.1652 32.6454 19.2555C32.7948 19.3006 32.8695 19.3908 32.8252 19.436Z" fill="white"/>
</svg>
