<svg width="82" height="56" viewBox="0 0 82 56" fill="none" xmlns="http://www.w3.org/2000/svg">
<path d="M63.5197 0.399788C63.4597 0.475001 63.1462 0.580295 62.7874 0.640466C62.1593 0.745769 60.8894 1.28731 60.7252 1.52799C60.6653 1.60321 60.5463 1.60321 60.4559 1.55807C60.3665 1.4979 60.2917 1.52799 60.2917 1.60321C60.2917 1.69346 60.3812 1.78372 60.4863 1.78372C60.5758 1.79876 60.8294 1.82884 61.0093 1.84389C61.2186 1.85893 61.5018 1.73859 61.6668 1.55807C61.8458 1.39261 61.9352 1.3174 61.891 1.40765C61.831 1.51294 61.9352 1.61825 62.1298 1.67842C62.5928 1.79876 62.7127 1.78372 62.6076 1.61825C62.5633 1.52799 62.6232 1.51294 62.7422 1.55807C62.8769 1.60321 62.9368 1.72355 62.8769 1.8138C62.8169 1.91911 63.1757 1.93415 64.0426 1.87397C64.7896 1.82884 65.1779 1.84389 64.999 1.91911C64.7592 2.0244 64.8348 2.05449 65.3126 2.05449C65.746 2.06953 65.9701 1.99432 66.0301 1.84389C66.0743 1.72355 66.2385 1.61825 66.4036 1.61825C66.7919 1.61825 67.1654 1.46782 67.1654 1.30235C67.1654 1.22713 67.0307 1.16696 66.8813 1.16696C66.7172 1.16696 66.5678 1.10679 66.5383 1.01654C66.4931 0.896194 65.5219 0.745769 64.5655 0.715679C64.3414 0.715679 64.3267 0.670557 64.4761 0.490041C64.6402 0.294485 64.5803 0.264404 64.1321 0.264404C63.8332 0.264404 63.5639 0.324567 63.5197 0.399788ZM65.2978 1.16696C65.1484 1.33244 64.8496 1.46782 64.6402 1.45278L64.252 1.43773L64.6255 1.3174C64.8348 1.25722 64.8939 1.182 64.7749 1.16696C64.655 1.15192 64.7149 1.07671 64.9243 1.01654C65.5219 0.820981 65.5819 0.851063 65.2978 1.16696ZM61.487 1.37756C61.487 1.42269 61.4271 1.4979 61.3376 1.54303C61.2629 1.58817 61.1882 1.55807 61.1882 1.48286C61.1882 1.39261 61.2629 1.3174 61.3376 1.3174C61.4271 1.3174 61.487 1.34748 61.487 1.37756Z" fill="white"/>
<path d="M58.3788 1.07672C58.1104 1.16698 57.9306 1.30236 57.9905 1.36253C58.0505 1.4227 58.02 1.46784 57.9306 1.46784C57.8264 1.46784 57.7517 1.39262 57.7517 1.31741C57.7517 1.1369 56.6754 1.1369 55.5853 1.31741C54.8373 1.4227 55.0467 1.51297 56.063 1.51297C56.3323 1.51297 56.5112 1.57313 56.466 1.64835C56.4218 1.70851 56.407 1.76868 56.4365 1.78373C57.2287 1.91912 58.2146 1.91912 58.1399 1.78373C58.0652 1.67843 58.1694 1.61826 58.3788 1.61826C58.6186 1.61826 58.6628 1.66339 58.5282 1.75364C58.2893 1.88903 58.9764 2.06954 59.7539 2.06954C60.1126 2.06954 60.1726 2.02441 59.9928 1.91912C59.8738 1.82886 59.574 1.81382 59.3204 1.85895C58.9174 1.9492 58.9017 1.93416 59.0816 1.70851C59.1858 1.57313 59.4099 1.46784 59.574 1.46784C59.7234 1.46784 59.8138 1.39262 59.7686 1.31741C59.7234 1.22715 59.5445 1.16698 59.3804 1.16698C59.231 1.16698 59.0963 1.09176 59.0963 1.01655C59.0963 0.836037 59.0069 0.836037 58.3788 1.07672Z" fill="white"/>
<path d="M36.0848 1.73859C35.9501 1.88901 35.7113 1.9191 35.3083 1.85893C34.86 1.78371 34.7106 1.8138 34.6359 2.00936C34.5907 2.14474 34.6359 2.31021 34.7549 2.38543C34.8748 2.46064 34.8895 2.52081 34.8001 2.52081C34.7106 2.52081 34.5455 2.41551 34.4266 2.28012C34.3214 2.14474 34.0973 2.06953 33.888 2.11466C33.6943 2.14474 33.5144 2.1297 33.4702 2.06953C33.4397 2.00936 33.022 1.99432 32.5433 2.00936C32.0656 2.03944 31.4975 2.05449 31.2733 2.06953C30.945 2.06953 30.8851 2.1297 30.9598 2.32526C31.0197 2.47568 31.2291 2.76149 31.4375 2.95705L31.8267 3.31808L31.4227 3.07739C31.1839 2.92696 30.9893 2.88183 30.9293 2.97209C30.8851 3.04731 31.1239 3.24286 31.4827 3.42333C32.2297 3.78438 32.2897 3.79944 32.0508 3.49863C31.692 3.06235 32.8126 3.76932 33.2156 4.20558C33.4102 4.44624 33.6795 4.62677 33.8133 4.62677C33.9627 4.64183 34.3362 4.76221 34.6654 4.92767C35.5471 5.36393 35.8902 5.31875 36.0101 4.77717C36.07 4.52145 36.2047 4.32596 36.3089 4.32596C36.533 4.32596 37.3999 3.57383 37.1906 3.57383C37.1159 3.57383 37.1758 3.49863 37.3252 3.40837C37.624 3.22781 38.1018 3.34816 38.5952 3.7393C38.9088 3.97997 38.9235 4.01009 38.6699 4.16049C38.3711 4.34102 38.4753 4.37104 39.1633 4.32596C39.4317 4.3109 39.6862 4.37104 39.7462 4.4613C39.8504 4.64183 40.5375 4.53651 40.792 4.3109C40.8667 4.23569 41.0456 4.17555 41.2098 4.17555C41.3592 4.17555 41.4339 4.10025 41.3896 4.02505C41.3445 3.93479 41.1056 3.87464 40.8667 3.87464C40.6269 3.87464 40.4185 3.76932 40.3586 3.63398C40.2986 3.46851 40.1492 3.40837 39.8956 3.45345C39.6862 3.49863 39.5221 3.46851 39.5221 3.40837C39.5221 3.19773 38.1617 2.64115 37.9081 2.74645C37.7135 2.82166 37.6987 2.79158 37.8334 2.6562C37.9524 2.53585 38.2964 2.52081 38.9539 2.58098C40.5522 2.76149 41.9273 2.67124 42.0315 2.37038C42.062 2.28012 42.2114 2.21995 42.3608 2.21995C42.7491 2.21995 42.869 1.96422 42.5545 1.79876C42.1219 1.57311 40.2986 1.48286 40.1944 1.67842C40.1492 1.79876 40.0892 1.78371 40.0293 1.64832C39.8956 1.37756 39.2223 1.42269 39.2223 1.7085C39.2223 1.90405 39.1781 1.9191 38.9982 1.76867C38.6846 1.4979 36.3393 1.48286 36.0848 1.73859ZM37.3999 2.49072C37.4442 2.6261 37.3695 2.68628 37.1906 2.64115C37.0559 2.62611 36.9065 2.50576 36.8623 2.40047C36.8171 2.26508 36.8918 2.20491 37.0707 2.25004C37.2053 2.26508 37.3547 2.38543 37.3999 2.49072ZM34.4413 3.49863C34.4413 3.54371 34.3214 3.57383 34.172 3.57383C34.0226 3.57383 33.888 3.46851 33.888 3.3632C33.888 3.19773 33.9627 3.16764 34.172 3.28799C34.3214 3.3632 34.4413 3.46851 34.4413 3.49863ZM33.3955 3.87464C33.3955 3.94985 33.3355 4.02505 33.2461 4.02505C33.1714 4.02505 33.0967 3.94985 33.0967 3.87464C33.0967 3.78438 33.1714 3.72424 33.2461 3.72424C33.3355 3.72424 33.3955 3.78438 33.3955 3.87464Z" fill="white"/>
<path d="M73.0079 4.73223C72.7985 4.77741 72.4849 4.91275 72.2903 5.03313C72.0515 5.1986 71.3192 5.30392 70.064 5.39409C68.2711 5.51447 67.6283 5.61979 67.4641 5.81538C67.3 6.02593 66.1794 6.47724 65.9249 6.44712C65.7312 6.417 65.6565 6.4923 65.686 6.68779C65.7607 7.16922 65.5218 7.57535 65.0284 7.81602L64.5507 8.05669L64.9242 8.2071C65.1483 8.31242 65.2073 8.37256 65.0579 8.37256C64.9242 8.38762 64.6254 8.55309 64.3856 8.76373C64.0425 9.04948 64.0121 9.13974 64.2214 9.13974C64.595 9.13974 64.535 9.42559 64.1025 9.59106C63.8931 9.66626 63.728 9.83172 63.728 9.9521C63.728 10.268 64.132 10.5388 64.476 10.4485C64.6401 10.4033 64.7444 10.4334 64.6844 10.5086C64.6401 10.5838 64.7896 10.7193 65.0137 10.7945C65.3272 10.9148 65.4471 10.9148 65.5513 10.7644C65.6408 10.614 65.6712 10.629 65.6712 10.8096C65.6712 11.1405 65.9848 11.2458 67.1653 11.351C68.9582 11.4865 69.1528 11.4865 69.2275 11.2608C69.2718 11.1104 69.2275 11.0802 69.0477 11.1405C68.9139 11.2006 68.8235 11.1856 68.8687 11.1104C68.9139 11.0502 68.6741 10.8998 68.3606 10.7945C68.0322 10.6892 67.7629 10.5538 67.7629 10.5086C67.7629 10.4485 67.584 10.2981 67.3442 10.1627C66.9412 9.92199 66.6867 9.13974 67.0159 9.13974C67.1054 9.13974 67.1653 9.06454 67.1653 8.98934C67.1653 8.77879 68.7341 7.18419 68.9434 7.18419C69.0329 7.18419 69.2275 7.0639 69.3769 6.91349C69.72 6.5675 70.3628 6.37192 72.3208 5.98084C74.9206 5.45433 75.4436 5.1234 74.2179 4.77741C73.6498 4.627 73.6055 4.627 73.0079 4.73223ZM65.3272 8.02657C65.2821 8.07175 65.1483 8.08681 65.0432 8.04163C64.9242 7.99655 64.9685 7.95137 65.1326 7.95137C65.2977 7.9364 65.3872 7.98149 65.3272 8.02657Z" fill="white"/>
<path d="M43.0332 10.8094C42.9733 10.8997 42.8239 10.9298 42.6892 10.8696C42.5703 10.8245 42.301 10.9298 42.0916 11.1253C41.8822 11.3209 41.7633 11.381 41.8232 11.2757C41.8979 11.1554 41.7928 11.0953 41.434 11.0953C40.7921 11.0953 40.2535 11.2457 40.3439 11.3961C40.4334 11.5465 39.7011 11.7571 39.2381 11.7119C38.9836 11.6819 38.9236 11.727 38.9983 11.8774C39.0887 12.0279 39.073 12.0429 38.9089 11.8774C38.5501 11.5465 37.579 11.697 37.579 12.088C37.579 12.3137 37.5642 12.3137 37.0265 12.3739C36.4132 12.434 36.2048 12.5844 36.2795 12.9003C36.3238 13.0658 36.2795 13.2463 36.2048 13.3065C36.0996 13.3667 36.0849 13.3215 36.1596 13.2012C36.249 13.0508 36.1891 13.0358 35.8608 13.111C35.4873 13.2012 35.4577 13.1862 35.6219 12.9906C35.906 12.6596 35.6219 12.6747 34.8297 13.0658C34.3363 13.2915 34.1869 13.4419 34.2468 13.6074C34.3068 13.7728 34.2772 13.818 34.1721 13.7427C33.9627 13.6224 32.9473 14.0285 32.9473 14.2392C32.9473 14.4497 33.0064 14.4497 33.6197 14.194C33.9037 14.0737 34.1426 13.9984 34.1426 14.0285C34.1426 14.0587 34.352 14.0285 34.5908 13.9533C34.8592 13.8781 35.039 13.8781 35.039 13.9684C35.039 14.0436 34.9348 14.1038 34.8149 14.1038C34.695 14.1038 34.5908 14.2392 34.5908 14.3896C34.5908 14.5551 34.292 14.9011 33.8438 15.2169C33.4398 15.5178 33.0967 15.8186 33.0967 15.8938C33.0967 15.969 32.9621 16.0593 32.7979 16.1045C32.5886 16.1496 32.4991 16.315 32.4991 16.5708C32.4991 17.0822 32.0057 17.5636 31.4975 17.5636C31.1535 17.5636 31.124 17.5937 31.3029 17.729C31.4828 17.8645 31.4975 17.8945 31.3186 17.9698C31.2135 18.0149 30.8547 18.3158 30.5412 18.6316C30.0182 19.1582 29.9288 19.2032 29.6447 19.0378C29.3911 18.8723 29.3164 18.8874 29.167 19.0829C29.0618 19.2183 28.8977 19.2935 28.7778 19.2484C28.6284 19.2032 28.5989 19.2484 28.6588 19.4139C28.7188 19.5794 28.6284 19.6696 28.3001 19.7448C28.0612 19.805 27.8666 19.9103 27.8666 19.9855C27.8666 20.0607 27.7024 20.151 27.4931 20.2111C27.2837 20.2563 27.1195 20.3615 27.1195 20.4518C27.1195 20.527 27.0596 20.5571 26.9997 20.512C26.925 20.4668 26.6713 20.5571 26.4168 20.7226C25.9686 20.9933 25.9538 21.0384 25.939 22.1366C25.9243 23.0842 25.9686 23.2497 26.1484 23.1896C26.3873 23.0993 26.462 23.355 26.2526 23.4905C26.0737 23.5957 26.0589 24.4833 26.2379 24.4833C26.3126 24.4833 26.3725 24.6186 26.3725 24.7841C26.3725 24.9646 26.5966 25.2203 26.9701 25.461C27.7467 25.9574 28.5537 25.9574 29.226 25.461C29.5101 25.2655 30.0182 24.9495 30.377 24.769C30.721 24.5886 31.0041 24.3329 31.0198 24.1974C31.0198 24.0019 31.0493 23.9869 31.1093 24.1824C31.1535 24.3027 31.2882 24.4682 31.3933 24.5284C31.5123 24.5886 31.6017 24.8293 31.6017 25.0549C31.6017 25.2805 31.7364 25.6265 31.9015 25.8371C32.0657 26.0477 32.2003 26.2734 32.2003 26.3335C32.2003 26.4087 32.4392 26.7096 32.7232 27.0104C33.0064 27.3113 33.1714 27.582 33.0967 27.6121C33.0064 27.6423 32.9473 27.7625 32.9473 27.8829C32.9473 28.0032 32.9021 28.0784 32.8422 28.0784C32.6033 28.0333 31.7521 28.2891 31.7521 28.3944C31.7521 28.5448 30.8704 28.7554 30.7505 28.6501C30.721 28.6049 30.7505 28.4395 30.84 28.2891C30.9894 28.0333 30.9894 28.0333 31.0041 28.2891C31.0041 28.4395 31.0788 28.5147 31.1535 28.4696C31.2439 28.4094 31.2734 28.3192 31.2282 28.244C31.184 28.1687 31.2135 28.0784 31.3029 28.0183C31.5722 27.8528 31.468 27.4918 31.1535 27.4918C30.8547 27.4918 30.7357 27.1308 30.9894 26.9653C31.1692 26.86 31.1535 25.9875 30.9746 25.9875C30.9147 25.9875 30.8547 26.0477 30.8547 26.1379C30.8547 26.2131 30.7653 26.2884 30.6463 26.2884C30.5411 26.2884 30.3622 26.3937 30.2571 26.514C30.1529 26.6343 29.8836 26.7396 29.6447 26.7396C28.8377 26.7396 28.2853 28.3492 28.8829 28.966C29.0923 29.2067 29.107 29.4022 28.9124 29.5225C28.8377 29.5677 28.8082 29.703 28.8682 29.8385C28.9272 30.004 29.0019 30.019 29.1513 29.8836C29.3164 29.7482 29.3607 29.7633 29.3607 29.9588C29.3607 30.0942 29.2859 30.1994 29.1965 30.1994C29.0766 30.1994 29.0766 30.2747 29.2112 30.4251C29.5405 30.8162 29.1365 31.1171 28.4494 31.0118C28.0612 30.9366 27.7624 30.9817 27.5383 31.1322C27.3289 31.2675 26.9997 31.3277 26.7313 31.2977C26.0285 31.1923 25.3866 31.5834 25.2667 32.2002C25.1173 32.9975 24.1314 33.9 23.0099 34.276C22.3533 34.4867 22.2481 34.5769 22.1439 35.0583C22.024 35.5397 21.9346 35.63 21.4264 35.7653C21.0981 35.8556 20.7541 36.0661 20.6498 36.2166C20.4405 36.5626 19.9176 36.6077 19.6188 36.3219C19.5136 36.2016 19.2296 36.0661 18.9907 36.006C18.6024 35.9157 18.572 35.9308 18.6771 36.2466C18.9907 37.2696 18.9612 37.3448 18.3479 37.3448C18.0343 37.3448 17.706 37.2846 17.6008 37.2245C17.4072 37.1041 16.2709 37.2395 15.9131 37.435C15.629 37.5705 15.5986 38.3226 15.8679 38.3226C15.9721 38.3226 16.0625 38.3827 16.0625 38.473C16.0625 38.5482 16.152 38.5783 16.2562 38.5331C16.6002 38.3978 17.2578 38.7438 17.1683 38.9995C17.1231 39.1198 17.1526 39.2251 17.2578 39.2251C17.3472 39.2251 17.3767 39.1499 17.3325 39.0747C17.1683 38.8039 17.706 38.9243 18.0343 39.2251C18.2289 39.3906 18.2732 39.526 18.169 39.526C18.0343 39.526 18.0491 39.6012 18.2142 39.7667C18.3479 39.887 18.453 40.0675 18.453 40.1427C18.453 40.2179 18.5572 40.2781 18.6919 40.2781C18.8118 40.2781 18.8717 40.3383 18.8265 40.4286C18.7813 40.5038 18.797 40.579 18.8717 40.579C18.9464 40.579 19.0055 40.6692 19.0055 40.7595C19.0055 40.8648 19.0359 41.0152 19.0654 41.1055C19.1254 41.3161 18.916 42.8204 18.7371 43.407C18.5572 43.9486 18.1394 44.2494 17.706 44.1141C17.4514 44.0388 15.4492 43.8884 13.5669 43.8282C13.1334 43.8132 12.7451 43.753 12.6852 43.6929C12.4758 43.4822 11.9234 43.5875 11.6541 43.8884C11.5047 44.0538 11.2658 44.1893 11.1311 44.1893C10.7124 44.1893 10.504 44.5502 10.6682 44.9865C10.7429 45.1821 10.8323 45.8139 10.8471 46.3855C10.8923 47.4836 10.5483 48.7472 10.1001 49.1082C9.98017 49.2135 9.92114 49.3037 9.96541 49.3037C10.0254 49.3037 10.0106 49.4993 9.9359 49.755C9.8612 50.0258 9.86119 50.2064 9.95065 50.2064C10.0254 50.2064 10.0853 50.3117 10.0853 50.432C10.0853 50.5523 10.1748 50.6426 10.279 50.6125C10.4736 50.5824 10.504 51.3495 10.3242 52.0114C10.22 52.3725 10.2495 52.3875 10.8619 52.3725C11.2206 52.3725 11.6541 52.3123 11.8487 52.2522C12.3864 52.0717 12.7746 52.2973 13.0292 52.9291C13.2828 53.591 13.8509 53.8617 14.1645 53.4706C14.4928 53.0644 15.3745 52.7786 16.2866 52.7636C16.7791 52.7636 17.302 52.7636 17.4514 52.7486C17.5861 52.7486 17.8102 52.5379 17.9301 52.2973C18.0943 51.9964 18.3184 51.8159 18.6172 51.7558C18.9612 51.6955 19.1253 51.5301 19.3043 51.0938C19.4242 50.7629 19.6188 50.5072 19.723 50.5072C19.8272 50.5072 19.9923 50.4018 20.0965 50.2816C20.2607 50.086 20.2459 50.0108 20.067 49.8604C19.7082 49.5745 19.663 49.2285 19.9176 48.8224C20.4553 48.0251 21.3665 47.0474 21.5758 47.0474C21.6957 47.0474 22.1439 46.8668 22.5774 46.6412C23.3835 46.2351 23.8326 45.6334 23.5338 45.3325C23.4581 45.2573 23.3834 45.0317 23.3834 44.8511C23.3834 44.1141 24.9679 43.8433 25.8791 44.4299C26.3725 44.7458 26.7156 44.6857 27.2542 44.2042C27.5383 43.9486 27.9413 43.7078 28.1802 43.6628C28.4199 43.6026 28.6883 43.4371 28.763 43.2866C28.8377 43.1362 29.0019 42.9858 29.1218 42.9407C29.4354 42.8204 30.7053 43.407 30.7053 43.6778C30.7053 43.7981 30.7957 44.0238 30.8999 44.2042C31.0493 44.46 31.0346 44.5353 30.8104 44.7157C30.6158 44.8511 30.5863 44.9414 30.721 45.0166C30.8105 45.0767 30.9451 45.0467 31.0041 44.9263C31.1093 44.7759 31.1692 44.7759 31.3629 44.9263C31.4975 45.0467 31.6017 45.2271 31.6017 45.3325C31.6017 45.4528 31.7364 45.5431 31.9015 45.5431C32.0657 45.5431 32.2003 45.5882 32.2003 45.6634C32.2003 45.8891 33.6944 46.9571 34.0375 46.9722C34.2321 46.9722 34.5604 47.1527 34.7697 47.3783C34.9791 47.619 35.2632 47.7995 35.3978 47.7995C35.5325 47.7995 35.6367 47.9048 35.6367 48.0401C35.6367 48.1756 35.8313 48.3561 36.0849 48.4463C36.4132 48.5667 36.5783 48.7773 36.7572 49.3037C36.9066 49.7249 36.9371 49.9957 36.8319 50.0258C36.7572 50.0559 36.6825 50.2064 36.6825 50.3417C36.6825 50.6877 35.3083 51.0036 34.2321 50.8983C33.3504 50.823 33.0967 50.8983 33.0967 51.2593C33.0967 51.515 34.4414 52.3123 34.8592 52.3123C34.9496 52.3123 35.0842 52.4026 35.1433 52.5079C35.2032 52.6282 35.4126 52.7486 35.6071 52.8087C35.9807 52.899 36.2942 52.4928 36.1448 52.1017C36.0996 51.9663 36.0996 51.6805 36.1448 51.4699C36.2195 51.169 36.309 51.1089 36.5479 51.1841C36.9214 51.3045 37.579 50.7478 37.579 50.3117C37.579 50.1612 37.7136 49.9957 37.8778 49.9506C38.2965 49.8453 38.267 49.2737 37.8031 49.0029C37.4747 48.7923 37.46 48.7321 37.6241 48.4012C37.7735 48.1004 37.9082 48.0401 38.2513 48.0703C38.5058 48.1004 38.7299 48.1906 38.7447 48.2659C38.7742 48.3411 38.9089 48.5216 39.0435 48.6419C39.2676 48.8676 39.2971 48.8676 39.4318 48.5667C39.6264 48.1154 39.1782 47.6641 37.8778 47.0323C36.9961 46.6111 36.8771 46.4908 36.9961 46.2651C37.0708 46.1147 37.0865 45.9943 37.0265 45.9794C36.9666 45.9794 36.6226 45.9643 36.2795 45.9342C35.7713 45.9041 35.5324 45.7838 35.1137 45.3475C34.8297 45.0467 34.5908 44.6857 34.5908 44.5353C34.5761 44.1591 34.3215 43.8583 33.6639 43.4672C33.0516 43.0912 32.8274 42.6398 33.0967 42.3089C33.201 42.1735 33.2157 42.0832 33.0967 42.008C32.7979 41.8275 32.9473 41.5417 33.4398 41.3612C34.0375 41.1506 34.4709 41.1205 34.1721 41.3011C34.0375 41.3913 34.0227 41.5417 34.1278 41.8125C34.3068 42.3089 34.5908 42.4894 34.755 42.2186C34.8444 42.0532 34.8896 42.0983 34.8896 42.3389C34.8896 42.5195 34.9643 42.715 35.039 42.7601C35.1285 42.8053 35.1884 42.715 35.1884 42.5496C35.1884 42.3841 35.2631 42.2036 35.3674 42.1434C35.4873 42.0682 35.502 42.1133 35.4421 42.2939C35.383 42.4443 35.4273 42.6549 35.5767 42.7902C35.7409 42.9708 35.7566 43.061 35.6367 43.1362C35.4421 43.2566 36.1448 43.8884 36.4732 43.8884C36.5931 43.8884 36.8024 44.0238 36.9371 44.1893C37.0865 44.3547 37.3696 44.4901 37.579 44.5051L37.9525 44.5202L37.579 44.6405C37.2202 44.7609 37.2202 44.7609 37.6841 44.7759C37.9377 44.791 38.207 44.8511 38.2513 44.9414C38.2965 45.0166 38.4606 45.0918 38.61 45.0918C38.7447 45.0918 39.2077 45.3475 39.6264 45.6483L40.4029 46.22L40.3135 47.1527C40.2388 48.0251 40.2535 48.0853 40.6427 48.3411C40.8816 48.4915 40.971 48.6419 40.8668 48.702C40.6575 48.8374 40.8364 49.3037 41.0909 49.3037C41.2099 49.3037 41.4045 49.409 41.5244 49.5445C41.7633 49.7701 41.7633 50.0409 41.5392 50.5674C41.4792 50.7178 41.4792 50.8833 41.5687 50.9434C41.6434 50.9886 41.7485 51.1541 41.8075 51.2894C41.9127 51.5902 42.2115 51.6505 42.2115 51.3797C42.2115 51.0036 42.7787 51.7558 42.8838 52.2671C42.9733 52.7335 43.0185 52.7786 43.3468 52.7034C43.6013 52.6282 43.7056 52.6734 43.7056 52.8388C43.7056 52.9591 43.7803 53.0644 43.855 53.0644C43.9444 53.0644 44.0044 52.9892 44.0044 52.914C44.0044 52.8238 44.0791 52.7636 44.1538 52.7636C44.2432 52.7636 44.3032 52.9291 44.3032 53.1396C44.3032 53.3503 44.3779 53.5158 44.4526 53.5158C44.7367 53.5158 44.6767 52.7486 44.3484 52.0867C44.1833 51.7707 44.1833 51.6955 44.318 51.8159C44.4231 51.9212 44.6315 52.0114 44.7966 52.0114C45.006 52.0114 45.0502 51.9362 44.9755 51.6955C44.8861 51.4398 44.9313 51.3947 45.2301 51.4398C45.4984 51.4699 45.5584 51.4248 45.5289 51.1991C45.4837 50.9434 45.4985 50.9284 45.7078 51.0938C45.8425 51.2142 45.9467 51.2443 45.9467 51.1841C45.9467 51.1239 46.0518 51.1541 46.1708 51.2593C46.2907 51.3646 46.3949 51.5753 46.3949 51.7407C46.3949 52.0114 46.4106 52.0114 46.6347 51.8009C46.8431 51.5902 46.8284 51.5301 46.56 51.2293C46.3801 51.0487 46.2455 50.9585 46.2455 51.0186C46.2455 51.2443 45.7677 50.7478 45.6331 50.4018C45.5584 50.1913 45.3795 50.0559 45.1996 50.0559C44.9903 50.0559 44.8409 49.9054 44.7367 49.6046C44.6472 49.3489 44.5125 49.1533 44.4378 49.1533C44.2737 49.1533 43.8255 48.2808 43.8845 48.0703C43.9149 47.98 44.1538 48.0853 44.4074 48.3109C44.8713 48.702 45.1397 48.8224 44.9755 48.5516C44.9156 48.4613 44.9903 48.4463 45.1397 48.5065C45.349 48.5817 45.3795 48.5516 45.2891 48.3109C45.1996 48.0853 45.2144 48.0552 45.3638 48.2056C45.7226 48.5667 45.8572 48.4012 45.5132 48.0401C45.1701 47.6792 45.1701 47.6792 45.4689 47.5136C45.6931 47.3933 45.812 47.3933 45.8867 47.5287C45.9467 47.634 45.9319 47.6491 45.8277 47.5889C45.7226 47.5287 45.6479 47.5588 45.6479 47.634C45.6479 47.9199 46.0518 47.8145 46.1413 47.5136C46.2012 47.2429 46.2602 47.2429 46.7094 47.4084C46.9925 47.4987 47.366 47.6641 47.5606 47.7694C48.0236 48.0251 48.5023 47.9499 48.8158 47.5588C49.0104 47.3181 49.2345 47.2429 49.6228 47.2579C49.9069 47.273 50.2204 47.1978 50.3099 47.0775C50.4897 46.8668 50.4897 46.8668 49.9668 46.6412C49.5029 46.4456 48.861 45.2573 49.0851 45.0317C49.1746 44.9414 49.2345 44.7307 49.2345 44.5502C49.2345 44.3547 49.3535 44.1893 49.5186 44.1441C49.7575 44.0839 49.8174 43.9185 49.8617 43.3469C49.9069 42.715 49.9668 42.5797 50.3247 42.4142C50.6087 42.2788 50.7286 42.0983 50.7286 41.8425C50.7286 41.632 50.9223 41.2559 51.1768 40.9851C51.4157 40.7144 51.625 40.4135 51.625 40.3082C51.625 40.2179 51.7892 40.1277 51.9986 40.1277C52.2227 40.1277 52.3721 40.2179 52.3721 40.3534C52.3721 40.579 53.1496 40.7896 53.9713 40.7745C54.2397 40.7595 54.4195 40.8196 54.3743 40.8948C54.3291 40.9701 54.2249 41.0303 54.1502 41.0303C53.9556 41.0303 53.3285 41.632 53.5074 41.647C53.702 41.6771 53.8966 41.7223 54.2849 41.8576C54.5542 41.9479 54.6132 42.0682 54.5837 42.3691C54.5385 42.7 54.5984 42.7601 54.972 42.8053C55.256 42.8354 55.4506 42.7752 55.5401 42.6248C55.6148 42.4894 55.8389 42.3841 56.0326 42.3841C56.2272 42.3841 56.4365 42.3089 56.4817 42.2337C56.526 42.1434 56.81 42.0832 57.0941 42.0832C57.4529 42.0832 57.6023 42.008 57.6023 41.8576C57.6023 41.6019 57.677 41.647 58.364 42.2637C58.5135 42.4142 58.7376 42.5345 58.8418 42.5345C58.9469 42.5345 59.171 42.6398 59.3352 42.7601C59.4846 42.8805 59.7087 42.9858 59.8286 42.9858C59.9476 42.9858 60.1569 43.0912 60.3063 43.2265C60.5304 43.4221 60.6651 43.4371 61.0386 43.3168C61.4121 43.1814 61.5763 43.1964 61.9803 43.4221C62.2339 43.5876 62.6978 43.753 62.9809 43.8132C63.265 43.8733 63.8183 44.1141 64.1918 44.3547C64.8042 44.7458 64.9684 44.791 65.6859 44.7007L66.4929 44.6105L67.464 45.4679C69.1075 46.8969 73.0677 48.7171 72.7984 47.9048C72.7689 47.8145 72.6343 47.7243 72.4996 47.7243C72.3502 47.7243 71.6032 47.0172 70.8257 46.1598C69.6009 44.8361 69.4063 44.5353 69.4063 44.099C69.4063 43.6026 68.9729 42.9858 68.4647 42.7752C68.3457 42.7301 68.331 42.67 68.4352 42.5797C68.5246 42.5195 68.6593 42.2637 68.734 42.0231C68.8834 41.5568 69.6452 41.0303 69.9744 41.1506C70.0639 41.1807 70.1534 41.1205 70.1534 41.0002C70.1534 40.6993 70.5269 40.3835 71.498 39.887C71.9462 39.6463 72.3502 39.4358 72.3954 39.4056C72.4397 39.3755 72.2755 39.1951 72.021 38.9995C71.6631 38.6986 71.5884 38.5331 71.6179 38.1119C71.6474 37.6908 71.5432 37.4651 71.1549 37.0138C70.5121 36.2918 70.3627 36.006 70.2428 35.2087C70.1534 34.5769 70.1534 34.5769 70.7067 34.4265C71.0203 34.3363 71.6179 34.2611 72.0366 34.2611C72.4397 34.2611 72.8584 34.1859 72.9478 34.0956C73.2466 33.7947 75.0847 33.885 76.0559 34.2309C76.7282 34.4867 77.1165 34.5468 77.6551 34.4716C78.1476 34.3964 78.3717 34.4265 78.3717 34.5468C78.3717 34.6371 78.5063 34.7123 78.6557 34.7123C78.8199 34.7123 79.044 34.8176 79.1787 34.938C79.448 35.2237 79.8067 35.2237 79.9109 34.9529C79.9709 34.8025 80.1646 34.7575 80.5685 34.8176C81.6291 34.9529 81.868 34.0805 80.8673 33.7346C80.1055 33.4788 79.791 33.208 80.0456 33.0275C80.2393 32.8922 80.135 32.7868 79.2681 32.155C78.9693 31.9445 78.9545 31.8843 79.1187 31.2224C79.2681 30.6057 79.2681 30.4702 79.0292 30.0641C78.6557 29.4324 78.1927 29.4473 77.6099 30.1242C76.9818 30.8313 76.4893 30.8313 75.9812 30.1093C75.7718 29.8234 75.4435 29.3721 75.2489 29.1315C74.9049 28.6952 74.9049 28.6652 75.1594 28.3944C75.3088 28.2289 75.6224 28.0935 75.8613 28.0935C76.8628 28.0935 77.2216 26.89 76.4441 26.168C75.8917 25.6566 75.6824 25.115 75.6824 24.2125C75.6676 22.5126 75.2784 20.8279 74.4272 18.9325C73.8443 17.6238 73.6349 17.007 73.7401 16.8866C73.8295 16.7814 74.2178 16.5858 74.6061 16.4354C76.1306 15.8637 77.7445 14.7055 77.774 14.179C77.774 14.0887 77.49 13.7427 77.1469 13.3968C76.4146 12.6898 75.5025 12.3739 73.7401 12.2234C72.1556 12.073 72.0809 12.0579 71.2149 11.6819C70.632 11.4412 70.3922 11.3961 70.2733 11.5164C70.1386 11.6518 70.1838 11.7722 70.4227 11.9978C70.6016 12.1783 70.8109 12.2836 70.8856 12.2385C71.035 12.1482 72.2008 12.6898 72.4996 12.9755C72.7837 13.2614 72.7385 13.3516 72.3198 13.3516C72.0514 13.3516 71.9767 13.4118 72.0366 13.5772C72.1113 13.7427 72.0661 13.7728 71.8872 13.7127C71.7673 13.6675 71.6631 13.5772 71.6631 13.5322C71.7074 13.2312 71.439 12.765 71.1845 12.7048C70.8709 12.6146 70.7814 12.8402 71.095 12.9455C71.1845 12.9755 71.0055 13.0658 70.6763 13.126C70.348 13.1862 70.0187 13.2915 69.9293 13.3516C69.8546 13.4118 69.4663 13.4569 69.0632 13.4569C68.6741 13.472 68.2563 13.5472 68.1364 13.6524C68.0321 13.7427 67.7776 13.8029 67.5839 13.7728C67.1652 13.7127 67.0453 13.2614 67.4188 13.156C67.5682 13.111 67.4189 13.0808 67.0905 13.0658C66.7613 13.0658 66.3435 13.156 66.1636 13.2764C65.9995 13.3968 65.626 13.5171 65.3567 13.5322C65.0735 13.5472 64.5801 13.7277 64.2518 13.9082C63.9225 14.1038 63.5195 14.2542 63.3544 14.2542C62.8914 14.2692 62.4432 14.6001 62.458 14.9311C62.458 15.0965 62.3538 15.2771 62.2339 15.3373C61.8308 15.5178 61.0838 15.4576 60.8892 15.232C60.785 15.1116 60.6051 15.0064 60.4862 15.0064C60.0675 15.0064 60.3958 14.6453 60.9639 14.4949L61.532 14.3295L61.0239 13.9383C60.6199 13.6224 60.2916 13.5322 59.4246 13.472C58.3189 13.3968 57.8411 13.5472 58.6481 13.7277C59.0659 13.818 59.0963 13.8781 59.0963 14.4648C59.0963 15.0064 59.1563 15.1417 59.4698 15.2771C59.8581 15.4576 59.9328 15.6833 59.7087 16.0443C59.6193 16.1947 59.515 16.2097 59.2752 16.0744C59.1111 15.9841 58.827 15.9089 58.6629 15.9089C58.4839 15.9089 58.3493 15.8036 58.3493 15.6682C58.3493 15.5178 58.1999 15.578 57.8706 15.8938C57.6023 16.1496 57.273 16.3602 57.154 16.3602C57.0341 16.3602 56.7353 16.5257 56.4965 16.7062L56.063 17.0521L56.407 17.3831C56.9594 17.8945 56.6311 18.075 55.6148 17.8043C55.1665 17.6839 54.6436 17.5034 54.449 17.4132C54.2102 17.2778 54.046 17.2778 53.7915 17.4132C53.4327 17.6087 53.4484 18.0149 53.8062 18.0149C53.9261 18.0149 54.0156 18.075 54.0156 18.1653C54.0156 18.2405 54.2102 18.3158 54.449 18.3158C54.6879 18.3158 54.912 18.4059 54.972 18.5414C55.1066 18.9325 54.2102 18.8723 53.4327 18.4511C53.1339 18.3007 52.776 18.1653 52.6414 18.1653C52.492 18.1653 52.3721 18.075 52.3721 17.9698C52.3721 17.8494 52.2374 17.6389 52.0733 17.4884C51.8492 17.2778 51.8197 17.1574 51.9386 16.9318C52.1185 16.5858 51.8196 16.2849 51.1464 16.1345C50.938 16.0894 50.7286 15.954 50.6834 15.8488C50.6235 15.7133 50.8928 15.7284 51.8344 15.9089C54.9424 16.5557 55.8084 16.5557 56.7353 15.8938C57.2131 15.5479 57.2582 15.2169 56.8847 14.7506C56.6311 14.4347 55.5253 13.8932 55.3907 14.0135C55.3602 14.0587 55.1066 13.9835 54.853 13.848C54.5984 13.7127 54.3596 13.6074 54.3144 13.6074C54.1954 13.6224 53.8514 13.487 53.1191 13.1711C52.7456 13.0056 51.8197 12.8101 51.0717 12.7198C50.1605 12.6146 49.6828 12.4942 49.6828 12.3739C49.6828 12.1632 48.6517 11.9526 48.4276 12.1182C48.3381 12.1783 47.9646 12.1934 47.5901 12.1482L46.9178 12.073L47.4112 11.8925C47.6953 11.7871 47.8742 11.6518 47.8299 11.5766C47.71 11.381 45.9771 10.9147 45.7973 11.02C45.7078 11.0651 45.6479 11.035 45.6479 10.9598C45.6479 10.8696 45.4237 10.7943 45.1397 10.7943C44.7966 10.7943 44.5725 10.8997 44.4074 11.1253C44.2432 11.3659 44.1685 11.3961 44.1538 11.2457C44.1538 11.1253 43.9749 10.9298 43.7508 10.8245C43.2573 10.5988 43.1531 10.5988 43.0332 10.8094ZM43.7056 11.0953C43.7056 11.1705 43.6309 11.2457 43.5414 11.2457C43.4667 11.2457 43.4363 11.1705 43.4815 11.0953C43.5266 11.005 43.6013 10.9448 43.6456 10.9448C43.6761 10.9448 43.7056 11.005 43.7056 11.0953ZM45.349 11.005C45.349 11.1403 44.9008 11.2155 44.8261 11.0953C44.7662 11.005 44.8713 10.9448 45.0355 10.9448C45.2144 10.9448 45.349 10.9749 45.349 11.005ZM38.4754 12.4491C38.4754 12.5243 38.3712 12.5543 38.2513 12.5092C38.1323 12.4491 38.0272 12.3889 38.0272 12.3588C38.0272 12.3287 38.1323 12.2986 38.2513 12.2986C38.3712 12.2986 38.4754 12.3588 38.4754 12.4491ZM36.9813 12.7499C36.9813 12.8251 36.8624 12.9003 36.7277 12.9003C36.5036 12.9003 36.4879 12.8703 36.6825 12.7499C36.9666 12.5694 36.9813 12.5694 36.9813 12.7499ZM35.3978 13.7427C35.4421 13.8631 35.4273 13.9232 35.3379 13.8781C35.2484 13.833 35.1884 13.7277 35.1884 13.6375C35.1884 13.4268 35.2927 13.472 35.3978 13.7427ZM36.5783 13.6074C36.4732 13.6375 36.2942 13.6375 36.2048 13.6074C36.0996 13.5623 36.1744 13.5322 36.3837 13.5322C36.5931 13.5322 36.6678 13.5623 36.5783 13.6074ZM43.2426 16.9017C43.5562 16.9618 43.7056 17.0822 43.7056 17.2627C43.7056 17.4733 43.6309 17.5185 43.392 17.4583C43.1531 17.3981 43.0932 17.4282 43.1375 17.5786C43.2278 17.8193 42.301 18.767 41.9726 18.767C41.8527 18.767 41.7633 18.8272 41.7633 18.8874C41.7633 19.0979 40.8963 19.5191 40.6722 19.4289C40.5523 19.3838 40.4029 19.4139 40.3439 19.5042C40.2987 19.5943 40.3587 19.7147 40.4776 19.7599C40.687 19.8351 40.687 19.8802 40.4933 20.0607C40.3282 20.2262 40.3135 20.3615 40.4186 20.5721C40.5081 20.7376 40.627 20.9933 40.687 21.1287C40.7617 21.2792 40.7921 21.7455 40.7765 22.1667C40.7469 22.8136 40.7764 22.9338 40.9858 22.9188C41.1204 22.9188 41.2247 22.979 41.2099 23.0693C41.1952 23.1745 41.4045 23.2949 41.6886 23.34C41.957 23.4002 42.2115 23.5054 42.241 23.5957C42.2714 23.701 42.6892 23.6409 43.392 23.4604C44.0044 23.2949 44.602 23.1896 44.7071 23.2347C44.8261 23.2798 44.9755 23.2497 45.0355 23.1594C45.0807 23.0693 45.6036 22.964 46.1708 22.9188C47.0377 22.8586 47.2766 22.8888 47.5901 23.1294C48.0088 23.4453 47.9646 23.5657 47.3965 23.6108C47.1724 23.6258 46.9925 23.7311 46.9925 23.8514C46.9925 24.047 46.2455 24.032 44.7514 23.8364C44.0496 23.7462 42.3009 24.5434 42.7787 24.739C43.0332 24.8443 43.0037 25.1 42.7344 24.9947C42.6145 24.9346 42.5103 24.8142 42.5103 24.6938C42.5103 24.5735 42.4209 24.4833 42.3305 24.4983C42.0473 24.5133 41.5087 24.7541 41.7328 24.769C42.0021 24.7841 41.9569 25.085 41.6738 25.085C41.4792 25.085 41.4497 25.1752 41.5392 25.4911C41.6581 25.9875 41.778 26.123 41.8675 25.8672C41.9127 25.777 42.0621 25.6867 42.2262 25.6867C42.3757 25.6867 42.5103 25.6265 42.5103 25.5513C42.5103 25.3707 43.0932 25.2354 43.1974 25.4009C43.2426 25.4761 43.392 25.5362 43.5266 25.5362C44.0339 25.5362 43.8845 27.0255 43.392 27.0405C43.3468 27.0405 43.0627 26.8148 42.7492 26.5291C42.241 26.0778 42.1368 26.0477 41.7633 26.1831C41.1804 26.4087 40.8069 27.3113 40.9111 28.244C41.0006 29.0111 40.7469 29.4473 40.224 29.4473C40.0894 29.4473 39.9704 29.5526 39.9704 29.673C39.9704 29.8084 39.8053 29.9738 39.6116 30.0792C39.2077 30.2597 38.6995 30.1393 38.8489 29.8986C39.1182 29.4624 36.9961 29.658 36.6078 30.1242C36.5331 30.2145 36.0397 30.38 35.5325 30.5004C34.5604 30.6959 34.1426 30.5906 34.1426 30.1242C34.1426 29.703 33.7239 29.7633 32.2898 30.4101C31.9762 30.5454 31.6774 30.6207 31.6174 30.5756C31.4975 30.4402 32.2003 29.8836 32.3497 29.9738C32.4087 30.019 32.4991 29.9437 32.5581 29.8234C32.6033 29.7031 32.7527 29.5978 32.8726 29.5978C33.0064 29.5978 33.0663 29.5225 33.022 29.4473C32.9621 29.3571 32.8422 29.3421 32.7527 29.4022C32.6328 29.4774 32.6328 29.4324 32.7527 29.2668C32.857 29.1465 32.9021 28.9961 32.8422 28.9509C32.7979 28.8908 32.8274 28.8456 32.9169 28.8456C33.022 28.8456 33.0967 28.7253 33.1115 28.5749C33.1263 28.4094 33.1714 28.4545 33.2314 28.6952C33.3208 29.0261 33.4251 29.0713 33.9932 29.0713C34.5456 29.0713 34.6655 29.0111 34.7255 28.7704C34.8002 28.3341 35.1884 28.1085 35.8313 28.0935C36.249 28.0935 36.3837 28.0333 36.3837 27.8227C36.3837 27.6121 36.4132 27.5971 36.5331 27.7927C36.6078 27.913 36.6973 27.9732 36.7277 27.9431C36.9066 27.7475 37.2654 26.6795 37.1907 26.6043C37.1307 26.5591 37.056 26.6043 37.0265 26.6946C36.9066 27.0405 36.6678 26.9051 36.7572 26.5441C36.8319 26.2734 36.9214 25.7318 36.9666 25.2203C36.9813 25.1602 37.1307 25.0699 37.3253 25.0098C37.5043 24.9495 37.6841 24.8894 37.7284 24.8743C37.7736 24.8593 37.9525 24.7991 38.1471 24.7239C38.326 24.6638 38.4754 24.5133 38.4754 24.3779C38.4754 24.2426 38.5805 24.0621 38.6995 23.9718C38.8793 23.8364 38.8793 23.7462 38.7299 23.4453C38.5501 23.0693 38.4311 22.994 37.6537 22.648C37.1907 22.4374 37.0265 22.0915 37.2202 21.6552C37.2801 21.5199 37.3253 21.219 37.3253 21.0084C37.3253 20.7527 37.46 20.527 37.7431 20.3315C37.9829 20.1811 38.1766 19.9704 38.1766 19.8952C38.1766 19.7448 39.2224 19.2183 39.5369 19.2183C39.6116 19.2183 39.9252 18.9776 40.2388 18.6767C40.6427 18.2857 40.7322 18.1202 40.5828 18.0299C40.4186 17.9246 40.4481 17.8043 40.7174 17.4433C40.9111 17.1875 41.1205 17.007 41.1952 17.0521C41.2551 17.0973 41.3151 17.0521 41.3151 16.9769C41.3151 16.7964 42.4956 16.7513 43.2426 16.9017ZM31.6017 18.3458C31.6017 18.5564 30.8852 19.2183 30.661 19.2183C30.5863 19.2183 30.6011 19.113 30.7053 18.9927C30.8104 18.8723 30.84 18.767 30.78 18.767C30.7053 18.767 30.8105 18.6316 31.0041 18.4662C31.3933 18.1202 31.6017 18.0901 31.6017 18.3458ZM28.8682 20.0607C28.823 20.1058 28.6883 20.1208 28.5841 20.0758C28.4642 20.0306 28.5094 19.9855 28.6736 19.9855C28.8377 19.9704 28.9272 20.0156 28.8682 20.0607ZM32.0509 29.4473C32.0509 29.5076 31.9458 29.6128 31.8111 29.658C31.6921 29.703 31.6322 29.6881 31.6774 29.5978C31.7216 29.5076 31.6921 29.4473 31.6174 29.4473C31.527 29.4473 31.4524 29.3872 31.4524 29.312C31.4524 29.2368 31.587 29.2067 31.7521 29.2518C31.9163 29.2969 32.0509 29.3872 32.0509 29.4473ZM41.0457 29.4774C40.9415 29.5828 40.8668 29.5978 40.8668 29.5076C40.8668 29.2969 41.0458 29.1164 41.15 29.2217C41.1804 29.2668 41.1352 29.3872 41.0457 29.4774ZM31.3029 29.7332C31.3029 29.658 31.3933 29.673 31.5123 29.7782C31.8268 30.0641 31.3776 30.2897 30.9147 30.0641C30.4222 29.8385 30.4369 29.5677 30.9294 29.7482C31.1692 29.8385 31.3029 29.8385 31.3029 29.7332ZM26.1484 32.4408C26.1032 32.5311 25.9842 32.6063 25.9095 32.6063C25.8348 32.6063 25.8496 32.5161 25.9538 32.3958C26.1632 32.155 26.3126 32.2002 26.1484 32.4408ZM59.3951 39.6614C59.1111 39.8118 58.827 39.9171 58.7671 39.872C58.6924 39.8419 58.6481 39.902 58.6481 40.0224C58.6481 40.1427 58.7975 40.2932 58.9912 40.3383C59.2753 40.4286 59.2909 40.4587 59.0816 40.579C58.9469 40.6542 58.7828 40.8948 58.7376 41.1205C58.6333 41.4965 58.6029 41.5116 57.7517 41.4364C57.273 41.4063 56.81 41.4364 56.7353 41.5116C56.6459 41.6019 56.466 41.4966 56.2871 41.2559L55.9735 40.8497L56.3766 40.4135C56.6007 40.1728 56.9889 39.9622 57.2287 39.9171C57.4824 39.887 57.7959 39.8118 57.961 39.7516C58.3493 39.5862 59.1111 39.4056 59.5445 39.3906C59.8729 39.3755 59.8581 39.4056 59.3951 39.6614ZM42.5103 50.7027C42.585 50.6726 42.6145 50.7629 42.5703 50.8833C42.5103 51.0036 42.4208 51.1089 42.3461 51.1089C42.2714 51.1089 42.1663 51.1239 42.1063 51.139C42.0473 51.169 41.9874 50.9434 41.957 50.6576C41.9127 50.1461 41.9127 50.1461 42.1516 50.432C42.2714 50.5974 42.4356 50.7178 42.5103 50.7027ZM45.349 50.3568C45.5436 50.4771 45.5436 50.5072 45.3195 50.5072C45.1849 50.5072 45.0207 50.432 44.9755 50.3568C44.8566 50.1612 45.0502 50.1612 45.349 50.3568ZM44.4074 50.8983C44.3631 50.9434 44.2285 50.9585 44.1243 50.9133C44.0044 50.8682 44.0496 50.823 44.2137 50.823C44.3779 50.8081 44.4674 50.8532 44.4074 50.8983ZM44.7071 51.4398C44.662 51.5602 44.6168 51.515 44.6168 51.3496C44.602 51.1841 44.6472 51.0938 44.6915 51.1541C44.7367 51.1991 44.7514 51.3345 44.7071 51.4398Z" fill="white"/>
<path d="M2.25522 15.9993C2.12057 16.1197 1.8817 16.2401 1.71754 16.2551C1.55337 16.2701 1.41873 16.3604 1.41873 16.4657C1.41873 16.571 1.35878 16.6613 1.29883 16.6613C1.22413 16.6613 1.04521 16.7665 0.881045 16.8869C0.6265 17.1125 0.671688 17.1125 1.53862 17.0674C2.71819 16.9922 2.83809 17.3382 1.67235 17.5037C0.970506 17.6089 0.790669 17.6992 0.895807 17.8646C0.940076 17.9399 1.05997 18.0151 1.13468 18.0151C1.22414 18.0151 1.25456 17.9549 1.20937 17.8948C1.10516 17.7142 2.22571 17.8797 2.34468 18.0753C2.56879 18.4062 2.46457 18.6169 2.09105 18.6169C1.86694 18.6169 1.71754 18.7071 1.71754 18.8274C1.71754 18.9778 1.89646 19.023 2.43506 18.9929C2.83809 18.9628 3.34625 19.038 3.61556 19.1734C4.1975 19.4442 5.51266 19.4893 6.12504 19.2637C6.96246 18.9478 7.62003 18.7371 8.30712 18.5416C9.24875 18.2709 10.2346 17.624 10.2346 17.278C10.2346 17.1125 10.0557 16.932 9.78644 16.8117C9.54757 16.7064 9.38248 16.571 9.42767 16.4958C9.47286 16.4205 9.41292 16.3604 9.30778 16.3604C9.18881 16.3453 9.23308 16.2551 9.41292 16.1197C9.69698 15.8941 9.68222 15.8791 9.15837 15.9693C8.8448 16.0295 8.57643 15.9993 8.51648 15.9091C8.36707 15.6684 7.84414 15.7286 7.84414 15.9844C7.84414 16.1197 7.7095 16.21 7.5149 16.21C7.32122 16.21 6.75311 16.21 6.24494 16.21C5.52742 16.21 5.28855 16.2701 5.16958 16.4808C5.03493 16.7214 5.02017 16.7214 4.92978 16.4657C4.78038 16.1047 4.40686 16.1498 4.40686 16.5259C4.40686 16.7365 4.33216 16.8117 4.18275 16.7665C4.06378 16.7064 3.92913 16.7365 3.88393 16.8117C3.71977 17.0674 3.54085 16.9772 3.61556 16.6763C3.65982 16.4808 3.52518 16.3153 3.1369 16.0746C2.49408 15.6985 2.53928 15.6985 2.25522 15.9993Z" fill="white"/>
<path d="M15.1209 20.6775C14.9568 20.8279 15.001 21.204 15.1504 21.0987C15.2251 21.0536 15.345 21.0987 15.405 21.189C15.4492 21.2792 15.4197 21.4146 15.3303 21.4748C15.1956 21.55 15.2251 21.6403 15.405 21.7907C15.6438 21.9712 15.6586 21.9712 15.5691 21.7455C15.524 21.5951 15.5396 21.4447 15.6291 21.3995C15.7038 21.3394 15.7333 21.2491 15.689 21.1739C15.6438 21.0987 15.6734 21.0084 15.7637 20.9483C15.8385 20.9031 15.9131 20.7678 15.9131 20.6775C15.9131 20.5571 15.868 20.5571 15.7785 20.7076C15.689 20.843 15.6143 20.858 15.5544 20.7376C15.4345 20.5571 15.2703 20.5271 15.1209 20.6775Z" fill="white"/>
<path d="M18.3184 24.3779C18.229 24.4681 18.1543 24.6336 18.1543 24.7389C18.1543 24.9646 17.5262 25.1451 17.0337 25.0548C16.7644 24.9947 16.6002 25.0699 16.4361 25.3406C16.0469 25.9273 15.6143 26.3034 15.4492 26.2132C15.3745 26.153 15.2104 26.1981 15.0757 26.2884C14.9116 26.4388 14.8968 26.529 15.0462 26.7096C15.1504 26.8299 15.2251 26.9653 15.2104 26.9954C15.1809 27.0104 15.1661 27.0857 15.1661 27.1458C15.1661 27.221 15.2251 27.1758 15.2998 27.0555C15.3745 26.9352 15.4649 26.9201 15.5239 27.0104C15.5691 27.1006 15.3902 27.2511 15.0914 27.3414C14.8074 27.4316 14.5685 27.5821 14.5685 27.6573C14.5685 27.7475 14.6875 27.7325 14.8673 27.6422C15.1062 27.5218 15.1661 27.5218 15.1661 27.7023C15.1661 27.8227 15.2851 27.943 15.4345 27.9882C15.6291 28.0333 15.5986 28.0785 15.2851 28.2138C15.0462 28.3041 14.8673 28.4545 14.8673 28.5298C14.8673 28.7704 15.1661 28.8757 15.3745 28.7102C15.5839 28.5447 15.7637 28.635 15.7637 28.9058C15.7637 28.996 15.689 28.9659 15.6143 28.8456C15.4944 28.65 15.4649 28.6651 15.4649 28.8907C15.4649 29.1164 15.5396 29.1464 15.9131 29.0712C16.2867 28.996 16.3466 29.0111 16.2719 29.2067C16.2267 29.342 16.1225 29.4474 16.0469 29.4474C15.9574 29.4474 15.9722 29.5978 16.0773 29.7632C16.1668 29.9438 16.2867 30.034 16.3466 29.9588C16.496 29.7482 17.5566 29.7482 17.4672 29.9588C17.4367 30.0491 17.5262 30.2747 17.6756 30.4251C17.9449 30.741 17.9449 31.2524 17.6461 31.4329C17.5566 31.4932 17.2274 31.5081 16.9286 31.4631C16.5855 31.4329 16.3614 31.4631 16.3614 31.5533C16.3614 31.6436 16.4361 31.6736 16.5108 31.6285C16.7792 31.4631 16.6749 31.6887 16.3309 32.0046L15.9879 32.3356L16.3614 32.2753C17.0189 32.1851 16.9138 32.6816 16.212 32.9673C15.3745 33.2982 15.4345 33.7045 16.3466 33.7495C17.0632 33.7797 17.6009 34.1106 16.9442 34.1106C16.5855 34.1106 15.9131 34.5919 15.9131 34.8477C15.9131 34.9078 15.6734 35.0883 15.3902 35.2387C15.1062 35.4043 14.9116 35.5547 14.9568 35.5998C15.1209 35.7653 15.5239 35.7352 15.868 35.5095C16.0773 35.3742 16.3761 35.314 16.6298 35.3591C16.9442 35.4193 17.1232 35.3591 17.3021 35.1635C17.4967 34.9229 17.706 34.8928 18.5877 34.9379C19.1706 34.968 19.6483 34.9379 19.6483 34.8627C19.6483 34.8026 19.9324 34.7574 20.2912 34.7725C20.9487 34.8175 22.1883 34.3814 22.1883 34.1257C22.1883 34.0354 22.084 33.9602 21.9641 33.9602C21.681 33.9602 21.6653 33.569 21.9494 33.4637C22.3681 33.2982 22.6669 32.6514 22.5027 32.3205C22.2934 31.9444 21.5159 31.7639 21.1728 32.0347C20.9487 32.2001 20.933 32.2001 21.1129 31.9896C21.2623 31.794 21.2623 31.6586 21.1129 31.3126C21.0234 31.072 20.9331 30.8012 20.9331 30.726C20.9183 30.5304 20.5005 30.1243 20.1113 29.8986C19.9471 29.8083 19.7535 29.5526 19.7083 29.327C19.5589 28.7554 19.1706 28.259 18.8718 28.2439C18.513 28.2439 18.5278 27.7626 18.9013 27.4918C19.0655 27.3714 19.2001 27.1909 19.2001 27.1006C19.2001 26.9954 19.3043 26.7998 19.439 26.6794C19.7977 26.3034 19.5441 26.1379 18.6025 26.1379C18.1247 26.1379 17.6756 26.0627 17.6313 25.9874C17.5861 25.8973 17.6166 25.837 17.706 25.837C17.8102 25.837 18.05 25.7017 18.2585 25.5362C18.4678 25.3708 18.5877 25.2353 18.5278 25.2353C18.4531 25.2353 18.5425 25.0849 18.7067 24.8893C18.8718 24.7089 19.0507 24.4832 19.0959 24.3929C19.2296 24.1673 18.5278 24.1673 18.3184 24.3779ZM15.4649 26.4388C15.4649 26.514 15.3902 26.5892 15.2998 26.5892C15.2251 26.5892 15.1956 26.514 15.2408 26.4388C15.2851 26.3485 15.3598 26.2884 15.405 26.2884C15.4345 26.2884 15.4649 26.3485 15.4649 26.4388Z" fill="white"/>
<path d="M13.4175 29.1164C13.0587 29.2367 12.3569 30.049 12.6253 30.049C12.7157 30.049 12.7452 30.1242 12.7 30.1994C12.6557 30.2897 12.3117 30.3198 11.9382 30.2897C11.4153 30.2295 11.2511 30.2746 11.1312 30.5003C11.027 30.6958 11.0418 30.8011 11.1764 30.8463C11.3111 30.9065 11.3111 30.9515 11.1764 31.117C10.8923 31.4029 10.9375 31.5082 11.3553 31.6134C11.8782 31.7488 11.8183 32.0046 11.1312 32.516C10.5788 32.9372 10.3242 33.5088 10.6977 33.5088C10.7724 33.5088 10.8029 33.584 10.7429 33.6894C10.6682 33.8097 10.7134 33.8247 10.8776 33.7646C11.027 33.7195 11.1312 33.7344 11.1312 33.8247C11.1312 34.0804 12.2822 33.8247 13.044 33.4186C13.4175 33.2231 13.9257 33.0575 14.195 33.0575C14.6128 33.0575 14.6875 32.9974 14.8369 32.4709C14.942 32.155 15.0167 31.6285 15.0167 31.2975C15.0167 30.8011 15.0757 30.6658 15.3902 30.5304C15.8237 30.3349 15.8679 29.9588 15.4944 29.5074C15.1956 29.1615 14.0151 28.9358 13.4175 29.1164Z" fill="white"/>
<path d="M29.8992 44.6705C29.8393 44.806 29.6299 44.9564 29.4353 45.0014C29.2417 45.0466 29.0618 45.2121 29.0323 45.3625C28.9428 45.7537 29.167 46.4606 29.4501 46.6713C29.6899 46.8367 29.6742 46.8818 29.3007 47.1225C28.9871 47.3331 28.8681 47.3632 28.7778 47.2127C28.6883 47.0774 28.6284 47.1075 28.5841 47.303C28.5389 47.4685 28.5988 47.7242 28.7031 47.8747C28.823 48.0251 28.8829 48.2959 28.8377 48.4613C28.6136 49.6497 28.6136 49.74 28.9428 49.9204C29.2112 50.0559 29.3007 50.0408 29.4501 49.8303C29.5552 49.6798 29.7489 49.6045 29.8688 49.6497C30.1529 49.77 30.2423 49.4843 30.2875 48.2056C30.3318 47.3482 30.2875 47.1375 30.0634 46.9721C29.8245 46.7915 29.8089 46.7013 29.9583 46.1898C30.1529 45.5581 30.1077 44.2344 29.8992 44.6705Z" fill="white"/>
<path d="M45.1554 54.0723C45.0955 54.1174 45.0503 54.2829 45.0503 54.4182C45.0503 54.6138 45.2301 54.7041 45.6784 54.7793C46.0214 54.8394 46.3507 54.9448 46.395 55.035C46.4549 55.1253 46.7989 55.1253 47.2923 55.065C48.0541 54.9448 48.3382 54.7492 47.9047 54.5988C47.77 54.5536 47.7405 54.5988 47.8152 54.7341C47.9047 54.8846 47.8447 54.8696 47.6502 54.7041C47.5007 54.5687 47.0378 54.4484 46.6191 54.4333C46.216 54.4032 45.8425 54.328 45.8278 54.2528C45.7973 54.1776 45.7079 54.1625 45.6184 54.2077C45.529 54.2678 45.4238 54.2227 45.3648 54.1324C45.3048 54.0421 45.2145 54.0121 45.1554 54.0723Z" fill="white"/>
</svg>
