<svg width="107" height="90" viewBox="0 0 107 90" fill="none" xmlns="http://www.w3.org/2000/svg">
<path d="M16.683 23.2954C16.2645 23.4759 15.8611 23.6714 15.8014 23.7317C15.7416 23.7918 15.5473 23.8369 15.368 23.8369C15.1738 23.8369 14.9496 23.9422 14.8451 24.0626C14.7404 24.1829 14.6059 24.2582 14.5462 24.213C14.3519 24.0926 13.5002 24.4537 13.3508 24.7245C13.1415 25.1306 13.3956 25.4014 13.8887 25.266C14.1278 25.1908 14.4266 25.1306 14.5462 25.1006C14.6657 25.0704 14.8899 24.9952 15.0692 24.905C15.2335 24.8147 15.6221 24.6493 15.9358 24.5289C16.414 24.3334 16.5634 24.1378 16.5186 23.6865C16.5186 23.6414 16.7427 23.6263 17.0266 23.6565C17.4898 23.7166 17.5347 23.6865 17.5347 23.3255C17.5347 23.1149 17.5197 22.9344 17.5048 22.9494C17.4749 22.9494 17.1162 23.1149 16.683 23.2954Z" fill="white"/>
<path d="M84.9249 0.505659C84.5514 0.550781 84.2524 0.671124 84.2524 0.776427C84.2524 0.88172 84.118 1.06224 83.9536 1.18258C83.7893 1.30292 83.6847 1.43832 83.7295 1.4834C83.7743 1.52858 84.3122 1.58872 84.9099 1.6339C85.5077 1.66392 86.0755 1.76925 86.1651 1.85951C86.2548 1.94977 86.5835 2.02497 86.8824 2.02497C87.3605 2.02497 87.48 1.94977 87.6594 1.57366C87.8835 1.13745 87.8835 1.12241 87.4202 0.911811C87.1513 0.791468 86.7778 0.671125 86.5685 0.626003C86.3594 0.580872 86.0605 0.5207 85.8961 0.475569C85.7318 0.445488 85.2985 0.445487 84.9249 0.505659Z" fill="white"/>
<path d="M78.694 1.1825C77.5286 1.36302 77.1101 1.5736 77.917 1.5736C78.2009 1.5736 78.4998 1.63374 78.5894 1.69398C78.694 1.75412 78.3056 1.7993 77.7377 1.7993C76.9757 1.7993 76.6618 1.85944 76.5572 2.02491C76.3481 2.3709 76.7964 2.5213 77.7826 2.41598C78.694 2.32572 79.4412 1.97973 79.0676 1.82932C78.963 1.78424 79.0974 1.78424 79.3814 1.82932C79.74 1.88947 79.8595 1.8745 79.7848 1.75412C79.7101 1.63374 79.7997 1.5736 80.0239 1.5736C80.2182 1.5736 80.4722 1.49839 80.5917 1.42319C80.786 1.28781 80.786 1.25772 80.5917 1.12233C80.3228 0.956866 80.1136 0.956867 78.694 1.1825Z" fill="white"/>
<path d="M72.3733 2.31074C71.3871 2.401 70.6699 2.56646 68.9963 3.09298C68.7423 3.16818 68.3687 3.22842 68.1596 3.22842C67.9504 3.22842 67.5768 3.30362 67.3078 3.39388C66.74 3.60443 66.6653 3.96548 67.2331 3.86016C67.4722 3.81508 67.6664 3.87522 67.7412 3.9956C67.8458 4.16107 67.9354 4.14601 68.1745 3.92031C68.3837 3.72482 68.4883 3.6947 68.4883 3.83014C68.4883 3.96548 68.6228 3.9956 68.9664 3.92031C69.4148 3.83014 69.4297 3.8451 69.1607 4.04069C68.8768 4.2663 68.8768 4.2663 69.2653 4.28136C69.4895 4.28136 69.8331 4.22121 70.0423 4.13095C70.2515 4.05575 70.4308 4.02563 70.4308 4.05575C70.4308 4.10083 70.2515 4.20615 70.0273 4.29641C69.6687 4.43176 69.6389 4.47694 69.863 4.59723C69.9974 4.67252 70.4009 4.76279 70.7595 4.79281C71.1481 4.82293 71.3871 4.89813 71.3572 5.01851C71.2676 5.43971 72.1044 5.49985 73.9273 5.19895C74.9284 5.03348 76.348 4.86801 77.0802 4.82293C78.1709 4.76279 78.5893 4.67252 79.2169 4.34159C80.1434 3.86016 80.0537 3.60443 79.0077 3.66458L78.3054 3.6947L78.5445 3.33365C78.7686 2.97269 78.7387 2.77711 78.4698 2.77711C78.3951 2.77711 78.3802 2.85231 78.4399 2.95763C78.4997 3.06295 78.4848 3.07792 78.3652 3.01778C78.2755 2.95763 77.9468 2.98766 77.633 3.07792C76.5571 3.40885 76.6169 3.37883 76.856 3.52923C77.0353 3.64961 77.0054 3.67964 76.7515 3.67964C76.348 3.67964 76.2882 3.93537 76.6767 4.02563C76.8112 4.07081 76.5422 4.10083 76.0641 4.11589C75.5859 4.11589 75.2273 4.07081 75.2721 3.9956C75.4514 3.70976 74.779 3.37883 73.8526 3.2735C72.9112 3.18324 72.8963 3.16818 73.3445 2.98766C73.5986 2.88243 73.7331 2.77711 73.6434 2.76205C73.5687 2.74699 73.6882 2.7019 73.9273 2.64176C74.1813 2.59658 74.3756 2.4762 74.3756 2.401C74.3905 2.20551 73.8078 2.19045 72.3733 2.31074ZM72.0595 3.6947L72.7469 3.81508L72.0446 3.7699C71.671 3.73987 71.2676 3.7699 71.1481 3.8451C70.9986 3.95043 71.0285 3.98054 71.2526 3.9956C71.417 3.9956 71.4768 4.04069 71.3871 4.07081C71.2975 4.11589 71.0584 4.07081 70.8641 3.9956C70.6101 3.89028 70.5802 3.8451 70.7745 3.8451C70.9089 3.83014 71.0285 3.75484 71.0285 3.66458C71.0285 3.55935 70.8492 3.54429 70.5503 3.60443C70.0572 3.6947 70.0572 3.6947 70.4308 3.48415C70.6848 3.34871 70.894 3.31868 71.0883 3.42391C71.2377 3.49911 71.671 3.61949 72.0595 3.6947ZM72.5974 3.37883C72.5526 3.45403 72.3733 3.52923 72.2089 3.52923C72.0446 3.52923 71.9549 3.45403 71.9998 3.37883C72.0446 3.28856 72.2239 3.22842 72.3882 3.22842C72.5526 3.22842 72.6423 3.28856 72.5974 3.37883ZM72.448 4.73267C72.5078 4.82293 72.3434 4.88307 72.0446 4.86801C71.5813 4.85295 71.5664 4.85295 71.9251 4.73267C72.1342 4.67252 72.3135 4.61229 72.3285 4.59723C72.3434 4.58226 72.4032 4.64241 72.448 4.73267Z" fill="white"/>
<path d="M63.3631 5.28925C63.1091 5.33434 62.8849 5.4998 62.7803 5.72551C62.6907 5.921 62.5263 6.08646 62.4367 6.08646C62.3321 6.08646 61.9435 6.25202 61.5551 6.46257C61.1665 6.67321 60.7781 6.83868 60.6884 6.83868C60.5988 6.83868 60.4044 6.92885 60.2849 7.04923C60.1505 7.15455 59.732 7.3651 59.3436 7.5156C58.9551 7.66601 58.6711 7.83147 58.716 7.90668C58.7458 7.96682 58.8654 7.99694 58.9701 7.96682C59.2539 7.86159 59.7171 8.29775 59.6125 8.56854C59.478 8.91453 59.8367 8.98973 60.5838 8.74906C60.9424 8.62868 61.5102 8.52345 61.824 8.50839C62.1527 8.49333 62.5861 8.35799 62.7952 8.20749C63.3033 7.84653 65.0217 7.27484 65.1263 7.4404C65.1711 7.50054 64.9769 7.60586 64.7079 7.65095C64.4538 7.71109 64.0953 7.84653 63.9459 7.96682C63.6619 8.19252 63.6619 8.19252 63.9309 8.38801C64.1849 8.5836 64.17 8.61371 63.7366 8.76412C63.1838 8.9597 63.1688 8.98973 63.4975 9.3056C63.6918 9.51624 63.9608 9.5313 65.0964 9.4561C66.6355 9.33572 66.6056 9.33572 67.2033 9.36584C67.4424 9.3809 67.6067 9.44104 67.5469 9.48613C67.5021 9.53131 66.6952 9.59145 65.7688 9.62157C63.5274 9.66665 62.8102 9.80209 62.8102 10.163C62.8102 10.6595 63.2286 10.9002 64.1251 10.9002C64.7677 10.9002 64.9171 10.9453 64.7826 11.0807C64.678 11.186 64.6032 11.3665 64.6032 11.5019C64.6032 11.7275 64.7826 11.7426 65.9182 11.7125C66.6355 11.6824 67.5619 11.5922 67.9654 11.5019C68.3837 11.4117 69.0113 11.3063 69.3848 11.2762L70.0572 11.2161L69.4595 11.3365C68.2343 11.5922 67.9504 11.7877 68.0401 12.3894C68.055 12.5398 67.9354 12.5699 67.4872 12.4797C66.8745 12.3743 66.74 12.2991 66.8745 12.1638C66.9343 12.1186 67.0986 12.1487 67.2631 12.239C67.6216 12.4346 67.8009 12.2841 67.5171 12.0134C67.3527 11.8479 67.2182 11.8329 66.8895 11.9682C66.0527 12.2991 64.17 12.4346 63.6469 12.1939C63.4378 12.0886 63.393 12.1036 63.4677 12.2239C63.5424 12.3594 63.378 12.4045 62.8849 12.3743C62.0929 12.3443 62.2574 12.1638 63.2286 12.0134C64.0056 11.893 64.155 11.6824 63.7217 11.3365C63.4826 11.1409 63.1539 11.0657 62.5412 11.0807C62.078 11.0957 61.3607 10.9905 60.9723 10.855C60.5838 10.7197 60.1654 10.5993 60.0608 10.5993C59.9413 10.5993 59.7768 10.4941 59.6723 10.3737C59.4183 10.0729 58.208 10.0729 57.6103 10.3887C57.3413 10.509 56.9976 10.5842 56.8333 10.5241C56.5195 10.4188 56.4148 10.1481 56.6838 10.1481C56.7735 10.1481 56.8333 10.2082 56.8333 10.2985C56.8333 10.3737 56.908 10.4489 56.9976 10.4489C57.0723 10.4489 57.1171 10.3887 57.0723 10.3135C57.0275 10.2383 57.0872 10.1481 57.2068 10.0878C57.3263 10.0428 57.431 9.93744 57.431 9.84718C57.431 9.66665 56.7137 9.80209 56.3849 10.0578C56.1758 10.2383 55.3988 10.5993 55.2494 10.5993C55.2195 10.5993 55.2344 10.3285 55.2792 9.99758C55.3539 9.51624 55.3241 9.3809 55.1149 9.3056C54.9804 9.24546 54.816 9.27558 54.7413 9.3809C54.5919 9.63663 53.8746 9.99758 53.531 9.99758C53.3368 9.99758 53.277 9.92238 53.3517 9.74185C53.4264 9.54636 53.3965 9.51624 53.1574 9.60651C53.008 9.68171 52.739 9.75691 52.5747 9.77197C51.5585 9.92238 49.7505 10.3135 49.5414 10.4489C49.3471 10.5693 49.392 10.5842 49.7356 10.5241C50.1241 10.4489 50.1391 10.4489 49.8999 10.5993C49.6908 10.7497 49.5414 10.7347 49.2276 10.5842C48.8092 10.3737 47.4195 10.2985 47.4195 10.479C47.4195 10.5542 47.285 10.5993 47.1356 10.5993C46.9713 10.5993 46.7321 10.7197 46.5977 10.855C46.1644 11.2913 44.4909 11.0356 44.6701 10.5542C44.715 10.4188 44.5207 10.3586 43.9529 10.3285C42.9219 10.2834 42.3391 10.163 42.3391 9.96756C42.3391 9.89235 41.8908 9.83212 41.2633 9.84718C40.6656 9.84718 39.7392 9.78703 39.2012 9.69677C38.6633 9.60651 37.6621 9.48613 36.9598 9.42598C36.0185 9.35078 35.7047 9.27558 35.7346 9.12517C35.7645 8.95971 35.5852 8.92958 34.9426 8.97467C34.3599 9.00479 34.1059 8.9597 34.0461 8.80921C34.0013 8.70398 33.8668 8.64374 33.7472 8.70398C33.6277 8.74906 33.4783 8.68892 33.4036 8.55348C33.299 8.37305 33.1645 8.38801 32.4024 8.6588C31.9093 8.82426 31.0725 8.98973 30.5347 9.01985C29.9967 9.04997 29.1599 9.17025 28.6668 9.3056C28.1887 9.44104 27.576 9.54636 27.3071 9.54636C26.7841 9.54636 25.6485 9.92238 24.3933 10.509C23.8852 10.7497 23.0335 10.9754 22.3013 11.0657C21.6141 11.1559 20.852 11.3214 20.6278 11.4417C20.3887 11.5621 20.075 11.6523 19.9106 11.6523C19.537 11.6523 19.552 11.9081 19.9255 12.0283C20.329 12.1638 20.6129 12.6752 20.3887 12.9008C20.1348 13.1566 20.1945 13.307 20.5232 13.307C20.7324 13.307 20.7922 13.3822 20.7174 13.5627C20.583 13.9388 20.075 14.36 19.791 14.345C19.3727 14.3149 18.6405 14.0892 18.8945 14.0742C19.029 14.0742 19.2233 13.9539 19.3279 13.8335C19.5669 13.5327 19.4026 13.5327 18.0577 13.8486C16.7727 14.1344 16.0555 14.2999 14.9945 14.5104C14.083 14.706 13.7693 14.9016 14.1428 15.052C14.367 15.1423 14.367 15.1873 14.098 15.5634C13.6946 16.12 13.8589 16.2103 15.1888 16.1952C15.7715 16.1802 16.3244 16.2404 16.4141 16.3156C16.5336 16.4209 16.7727 16.3908 17.1313 16.2404C17.7589 15.9846 18.1922 15.9395 17.8336 16.1652C17.6543 16.2855 17.6543 16.3156 17.8187 16.3156C18.1324 16.3156 17.2957 17.0526 16.8624 17.158C16.6531 17.203 16.2497 17.203 15.9658 17.158C15.6669 17.0978 15.4428 17.1129 15.4428 17.203C15.4428 17.4438 14.5164 17.6845 13.9784 17.5792C13.4705 17.4738 13.0819 17.6093 12.275 18.1508C12.0658 18.3013 11.7819 18.4215 11.6475 18.4215C11.4084 18.4215 10.3475 18.8728 10.213 19.0383C10.1682 19.0834 9.94402 19.1737 9.71988 19.2339C9.30149 19.3391 8.92793 19.9559 9.10725 20.2418C9.15207 20.317 9.01758 20.4372 8.82334 20.5125C8.50955 20.6328 8.44977 20.7532 8.46472 21.1894C8.47966 21.6708 8.52449 21.7309 8.85322 21.7309C9.07736 21.7309 9.49574 21.6708 9.79459 21.5956C10.3026 21.4752 10.3475 21.4903 10.213 21.7309C10.1233 21.8813 9.92908 22.0468 9.77965 22.107C9.61529 22.1521 9.39115 22.3628 9.25666 22.5583C9.12219 22.7689 8.89805 22.9344 8.76357 22.9344C8.58426 22.9344 8.55438 22.9795 8.67391 23.0998C8.79346 23.2202 8.92793 23.2202 9.16701 23.0848C9.39115 22.9645 9.46586 22.9645 9.40609 23.0697C9.25666 23.2954 9.40609 23.2804 9.91413 23.0096C10.4371 22.7388 11.1693 22.8592 11.0498 23.175C10.9452 23.4609 11.4084 23.4458 11.6176 23.1449C11.752 22.9795 11.8865 22.9494 12.1555 23.0548C12.5141 23.1901 12.5141 23.1901 11.8566 23.6865C11.4831 23.9573 10.8854 24.3033 10.5118 24.4687C10.1383 24.6342 9.70494 24.8147 9.54057 24.8899C9.37621 24.9651 8.73368 25.1907 8.12104 25.3863C6.76129 25.8376 6.17854 26.0934 6.17854 26.2739C6.17854 26.3491 6.04405 26.334 5.89463 26.2588C5.61073 26.0934 5.13257 26.2287 3.41419 26.8906C2.41305 27.2817 2.23374 27.3268 1.66593 27.387C0.948696 27.4623 -0.171985 28.0339 0.0222714 28.2295C0.111925 28.3196 0.276291 28.3196 0.470538 28.2144C0.634905 28.1241 0.963637 28.0489 1.20272 28.0489C1.42685 28.0489 1.81536 27.9436 2.06938 27.8083C2.30846 27.6879 2.65213 27.6127 2.8165 27.6578C2.98086 27.7029 3.24983 27.6277 3.39925 27.5224C3.54867 27.402 3.72798 27.3419 3.80269 27.372C3.86246 27.4171 3.95212 27.387 4.01189 27.2968C4.17626 27.011 4.84866 27.1313 4.93831 27.4472C5.02797 27.7932 5.14751 27.8232 5.40153 27.5675C5.52107 27.4472 5.62567 27.4472 5.79003 27.5826C5.96934 27.733 6.04405 27.7029 6.17854 27.4623C6.31301 27.2065 6.29807 27.1463 6.10383 27.1463C5.98428 27.1463 5.87969 27.0411 5.87969 26.9056C5.87969 26.7251 5.96934 26.68 6.25324 26.7552C6.49232 26.8154 6.76129 26.7552 7.00037 26.6048C7.19462 26.4844 7.4337 26.4092 7.50841 26.4694C7.68772 26.5747 8.67391 26.1535 8.9877 25.8376C9.10725 25.7323 9.25666 25.6722 9.33138 25.7173C9.40609 25.7774 9.46586 25.7323 9.46586 25.6421C9.46586 25.5518 9.64517 25.5217 9.92908 25.5669C10.198 25.6119 10.3475 25.597 10.3026 25.5067C10.2578 25.4315 10.4819 25.3262 10.8107 25.2659C11.1394 25.2058 11.5578 25.0554 11.7371 24.905C12.021 24.6944 12.4244 24.5289 13.5003 24.213C13.5452 24.198 13.7693 24.1077 13.9934 24.0174C14.2324 23.9121 14.5313 23.8369 14.6658 23.8369C14.8003 23.8369 15.1888 23.6714 15.5175 23.4609C15.8462 23.2653 16.2647 23.0848 16.429 23.0848C16.8773 23.0848 17.2209 22.6636 16.9221 22.468C16.7578 22.3628 16.7727 22.3327 17.0118 22.3176C17.1761 22.3025 17.3853 22.3025 17.4749 22.3176C17.5796 22.3327 17.6842 22.2424 17.744 22.107C17.7888 21.9867 17.998 21.8813 18.2071 21.8813C18.4164 21.8813 18.5807 21.8061 18.5807 21.7309C18.5807 21.6407 18.7003 21.5805 18.8497 21.5805C18.9991 21.5805 19.2382 21.4903 19.4026 21.3849C19.8209 21.0992 20.2244 20.9638 20.2244 21.1142C20.2244 21.1744 20.0451 21.3097 19.8358 21.4C19.6267 21.5053 19.5072 21.6557 19.552 21.7309C19.6117 21.8212 19.4474 21.9566 19.1934 22.0468C18.9393 22.1371 18.7301 22.2725 18.7301 22.3477C18.7301 22.5884 19.5221 22.4831 20.568 22.122C21.1209 21.9265 21.5692 21.7911 21.5692 21.8363C21.5692 21.8813 21.6589 21.8513 21.7635 21.7611C21.9876 21.5655 22.8991 21.5053 23.2428 21.6557C23.4071 21.7159 23.7657 21.6256 24.1841 21.4301C24.7967 21.1292 25.0657 20.8284 24.7071 20.8284C24.6324 20.8284 24.5577 20.8886 24.5577 20.9788C24.5577 21.054 24.4979 21.1292 24.4232 21.1292C24.3485 21.1292 24.3037 21.0089 24.3335 20.8584C24.3485 20.693 24.483 20.6178 24.6921 20.6328C24.8566 20.6629 25.006 20.6027 25.006 20.5275C25.006 20.4372 25.1703 20.3771 25.3795 20.3771C25.8129 20.3771 25.8278 20.708 25.3944 20.8284C25.2301 20.8735 25.0807 20.9939 25.0508 21.0841C25.006 21.2195 25.1255 21.2195 25.499 21.0992C25.8577 20.9939 26.1416 20.9939 26.4404 21.0992C26.8588 21.2496 26.8588 21.2647 26.545 21.3549C26.3507 21.4151 26.2013 21.5354 26.2013 21.6107C26.2013 21.7008 26.3059 21.7159 26.4703 21.6407C26.6048 21.5805 27.2024 21.5053 27.7852 21.4602C28.5921 21.4151 28.9657 21.4602 29.3392 21.6557C29.6381 21.8061 29.9668 21.8663 30.2208 21.8212C30.4748 21.746 30.5496 21.7611 30.4001 21.8663C30.2358 21.9716 30.2657 22.0619 30.5795 22.3327C30.7887 22.5132 30.9978 22.8291 31.0427 23.0246C31.1024 23.2202 31.207 23.3857 31.2817 23.3857C31.5209 23.3857 31.2518 24.4989 30.9231 24.8749C30.714 25.1155 30.6841 25.2058 30.8335 25.1607C30.9978 25.1005 31.0576 25.1758 31.0576 25.4164C31.0576 25.6119 31.0128 25.7323 30.953 25.6871C30.8783 25.6571 30.8335 25.7323 30.8335 25.8527C30.8335 26.1986 31.0725 26.1535 31.3416 25.7624C31.476 25.5819 31.6105 25.4766 31.6553 25.5217C31.7001 25.5669 31.5358 25.7774 31.2817 25.988C30.7438 26.4543 30.7289 26.5446 31.1771 26.5596H31.5059L31.1771 26.6951C30.8933 26.8154 30.8484 26.9358 30.8933 27.3268C30.9381 27.748 30.9978 27.8232 31.3864 27.8533C31.6852 27.8835 31.9392 27.7932 32.1035 27.5976C32.3576 27.3118 32.3875 27.3118 32.5668 27.5675C32.7461 27.8082 32.761 27.7932 32.9254 27.4472L33.0749 27.0711L33.0002 27.4772C32.9553 27.7029 32.9852 27.9285 33.0749 27.9737C33.1496 28.0188 33.2243 28.1542 33.2243 28.2444C33.2243 28.3648 33.1795 28.3497 33.0898 28.2144C32.9852 28.0489 32.9254 28.064 32.8058 28.2896C32.7162 28.44 32.5967 28.5303 32.5519 28.4701C32.4025 28.3196 31.984 28.7559 32.1035 28.9364C32.1485 29.0116 32.1185 29.1169 32.0288 29.1771C31.8047 29.3276 31.8496 29.5081 32.2082 29.854C32.3875 30.0195 32.4473 30.1549 32.3427 30.1549C32.2381 30.1549 32.1783 30.2902 32.2082 30.4858C32.2381 30.6814 32.3427 30.8168 32.4622 30.7866C32.5967 30.7566 32.5668 30.907 32.3576 31.2681C32.1485 31.6141 32.1035 31.8397 32.2082 31.8998C32.3128 31.96 32.2979 32.0352 32.1783 32.1105C32.0288 32.2007 32.1035 32.3361 32.4174 32.6519C32.7311 32.9528 32.776 33.028 32.5519 32.9378C32.1634 32.7874 31.8944 32.7874 31.476 32.9227C31.2668 32.983 31.1323 32.9679 31.1323 32.8776C31.1323 32.8024 31.2817 32.6971 31.476 32.667C31.7599 32.6219 31.7599 32.6068 31.4312 32.6219C31.1174 32.637 31.0576 32.7122 31.0875 33.0431C31.1024 33.2838 31.0427 33.4643 30.9381 33.4643C30.8335 33.4643 30.9231 33.5546 31.1323 33.6599C31.3416 33.7651 31.5209 33.9306 31.5209 34.0359C31.5358 34.1412 31.5507 34.2766 31.5657 34.3518C31.5657 34.4271 31.7151 34.5474 31.8794 34.5925C32.0438 34.6527 32.1485 34.758 32.1035 34.8332C32.0438 34.9084 32.1185 35.0137 32.2381 35.0588C32.3726 35.104 32.4323 35.2092 32.3875 35.2844C32.3427 35.3597 32.4024 35.4199 32.507 35.4199C32.6116 35.4199 32.8208 35.5252 32.9852 35.6455C33.2392 35.841 33.2392 35.8561 32.8507 35.826C32.4024 35.7959 32.3427 35.8712 31.9691 37.0445C31.7151 37.8267 30.8634 39.4212 30.4898 39.8123C30.3852 39.9176 30.1312 40.2486 29.937 40.5344C29.7427 40.8202 29.3094 41.3467 28.9807 41.7077C28.1588 42.5952 27.8898 43.0465 27.6209 43.919C27.5013 44.3251 27.1427 45.0021 26.814 45.3931C26.3059 45.9949 26.2461 46.1603 26.3806 46.401C26.5152 46.6116 26.4853 46.7922 26.291 47.2284C26.0669 47.6796 26.0519 47.8602 26.1864 48.1611C26.291 48.3716 26.3208 48.6575 26.276 48.8079C26.2312 48.9583 26.2611 49.1237 26.3358 49.1689C26.4105 49.2291 26.4404 49.4998 26.3955 49.8007C26.3358 50.1768 26.3657 50.3874 26.5152 50.4776C26.6945 50.598 26.6945 50.6281 26.5152 50.7484C26.3208 50.8687 26.3208 51.0191 26.5002 51.7713C26.6198 52.2527 26.7094 52.8845 26.7094 53.1703C26.7243 53.6667 26.7542 53.6968 27.2922 53.7419C27.6508 53.772 27.845 53.8623 27.845 54.0127C27.845 54.1932 28.1289 54.2984 28.5025 54.2383C28.5772 54.2232 28.5921 54.3135 28.5473 54.4489C28.4875 54.5843 28.5323 54.6745 28.6519 54.6745C29.0255 54.6745 29.3243 55.2011 29.3243 55.878C29.3243 56.5398 29.4438 58.3601 29.4886 58.3601C29.5036 58.3601 29.5335 58.721 29.5633 59.1723C29.6082 59.759 29.6979 60.0298 29.922 60.1802C30.0864 60.3006 30.3553 60.6315 30.5347 60.9172C30.8484 61.4137 30.8484 61.4739 30.6243 61.8199C30.3852 62.1959 30.2507 62.2561 29.7577 62.2109C29.6082 62.1959 29.4886 62.226 29.4886 62.3012C29.4886 62.5569 30.714 63.8506 30.8634 63.7604C31.0427 63.64 32.0288 64.678 32.0288 64.9638C32.0288 65.0841 31.9243 65.3699 31.8047 65.5955C31.6852 65.8362 31.5806 66.1371 31.5806 66.2575C31.5806 66.5583 31.8645 66.8591 32.1485 66.8591C32.4921 66.8591 33.5231 68.0626 33.5231 68.4687C33.5231 68.7095 33.5829 68.8147 33.7173 68.7545C33.8071 68.7095 34.0162 68.6192 34.1806 68.574C34.4047 68.4837 34.4346 68.3635 34.3599 67.9272C34.315 67.6263 34.2702 67.2654 34.2702 67.1149C34.2702 66.9795 34.1955 66.8591 34.1059 66.8591C34.0312 66.8591 34.0013 66.9494 34.0461 67.0396C34.1059 67.145 34.0162 67.0698 33.8519 66.8742C33.5679 66.5282 33.553 66.5282 33.4783 66.799C33.4334 67.0096 33.4036 66.9795 33.3886 66.6787C33.3886 66.453 33.4484 66.2274 33.5231 66.1822C33.7472 66.0469 33.7024 65.8062 33.4633 65.8062C33.2392 65.8062 33.045 64.9337 33.2542 64.8134C33.3139 64.7682 33.3737 64.6629 33.3737 64.5877C33.3737 64.4974 33.3139 64.4824 33.2243 64.5275C33.1346 64.5726 33.0749 64.4523 33.0749 64.2568C33.0749 63.8807 32.507 62.6171 32.2979 62.5268C32.1185 62.4366 32.1634 61.6695 32.3576 61.4739C32.4473 61.3836 32.4772 61.2483 32.4174 61.188C32.3576 61.1279 32.253 61.173 32.1783 61.2933C32.0587 61.4739 32.0288 61.4438 32.0288 61.188C32.0288 61.0075 31.9691 60.812 31.8794 60.7668C31.8047 60.7217 31.73 60.6014 31.73 60.496C31.73 60.4058 31.8346 60.466 31.9691 60.6315C32.1933 60.9023 32.1933 60.9023 32.1035 60.466C31.984 59.9094 31.8944 59.8191 31.745 60.0749C31.6553 60.2103 31.5507 60.1351 31.3265 59.7891C31.0576 59.3679 31.0576 59.2475 31.222 58.4202C31.4312 57.3672 31.476 57.307 31.8346 57.4574C31.984 57.5326 32.1634 57.5628 32.2232 57.5477C32.4323 57.5026 32.9703 58.1193 32.8955 58.3149C32.8507 58.4202 32.8656 58.8865 32.9254 59.3378C33.0002 59.9244 32.9852 60.2855 32.8357 60.5563C32.6564 60.9323 32.6863 61.1429 32.9404 61.1429C33.0002 61.1429 33.0151 60.9925 32.9703 60.797C32.9254 60.6014 33.0151 60.6766 33.1645 60.9925C33.3139 61.2783 33.5231 61.6092 33.6277 61.7145C33.7323 61.8199 33.822 61.9703 33.822 62.0455C33.822 62.1207 33.9415 62.2109 34.1059 62.2711C34.3001 62.3313 34.3599 62.4516 34.3001 62.7375C34.2553 63.0383 34.3001 63.1285 34.5541 63.2037C34.7185 63.2489 34.8679 63.3993 34.8679 63.5497C34.8679 63.7002 35.0173 63.8506 35.1966 63.8957C35.4955 63.986 35.4955 64.001 35.2713 64.3621C35.1219 64.5726 35.0173 64.8284 35.0173 64.9186C35.0173 65.1142 35.5852 65.6558 35.7944 65.6558C35.8691 65.6558 36.0035 65.8362 36.1081 66.0619C36.1978 66.3026 36.4518 66.6486 36.6759 66.8591C36.8851 67.0698 37.184 67.4759 37.3334 67.7617C37.4679 68.0475 37.7518 68.4988 37.9312 68.7545C38.2598 69.1757 38.3196 69.5067 38.3196 70.7702C38.3196 71.7029 38.2897 71.8233 38.0656 71.8233C37.7518 71.8233 37.8116 72.4851 38.2001 73.0718C38.3794 73.3576 38.7679 73.7187 39.0518 73.8691C39.3357 74.0195 39.6346 74.3053 39.7093 74.4859C39.8437 74.7867 40.7104 75.1778 41.2334 75.1778C41.3679 75.1778 41.6816 75.3884 41.9507 75.6592C42.3989 76.1255 43.938 76.9378 44.3564 76.9378C44.461 76.9378 44.6552 77.0281 44.7598 77.1184C45.0735 77.4192 45.8655 77.8404 46.1196 77.8404C46.2391 77.8404 46.523 77.9306 46.7471 78.051C47.1805 78.2766 47.6288 78.2014 48.4954 77.7802C48.7494 77.6448 49.0781 77.5395 49.2127 77.5395C49.8252 77.5395 50.5724 78.0209 51.1402 78.7881C52.0666 80.0366 52.5149 80.3976 53.3368 80.533C53.7402 80.5932 54.2034 80.7135 54.3678 80.8038C55.2195 81.2551 55.8023 81.4205 56.4447 81.3754C56.9976 81.3453 57.1022 81.3754 56.9229 81.5108C56.7137 81.6462 56.7585 81.7665 57.2516 82.308C58.6114 83.8725 58.8803 84.384 58.5815 84.8804C58.3873 85.1815 58.6114 85.6324 59.0746 85.8731C59.478 86.0684 59.5378 86.0684 59.6723 85.8434C59.8068 85.6026 59.8068 85.6026 59.8218 85.8434C59.8218 85.9782 60.0459 86.2041 60.3297 86.3398C60.8528 86.5954 61.1068 86.9412 60.8677 87.0918C60.6884 87.1969 60.8528 87.618 61.0619 87.618C61.1516 87.618 61.3757 87.7686 61.57 87.9489C61.8838 88.2352 61.9136 88.2501 61.9136 88.0093C61.9136 87.829 61.9883 87.7686 62.1527 87.829C62.2873 87.8736 62.5114 87.9192 62.6608 87.9192C62.9745 87.9192 63.1838 88.3551 62.9596 88.581C62.7504 88.7911 62.7803 88.9724 63.0343 88.9724C63.1688 88.9724 63.2137 88.8813 63.1688 88.7465C63.0343 88.3849 63.4975 88.6256 63.7665 89.0625C64.0056 89.4083 64.0206 89.4083 64.5285 89.1676C65.0964 88.8971 65.1561 88.7316 64.8274 88.2798C64.5285 87.8885 64.5435 87.8736 65.0516 87.6486C65.3056 87.5278 65.4998 87.3475 65.4998 87.2424C65.4998 87.1364 65.6045 87.0165 65.724 86.9561C65.9332 86.8808 66.0527 85.9633 65.8584 85.9633C65.8136 85.9633 65.3354 86.2041 64.8125 86.4904C63.7366 87.0918 63.6171 87.1067 63.2286 86.7609C63.0343 86.5954 62.9596 86.5806 62.9596 86.7153C62.9596 86.8659 62.9148 86.8659 62.7504 86.7153C62.6309 86.6252 62.5562 86.4597 62.601 86.3547C62.6458 86.2496 62.4964 86.0842 62.2873 85.9931C62.078 85.9029 61.9136 85.7226 61.9136 85.5878C61.9136 85.4669 61.8389 85.3619 61.7642 85.3619C61.6746 85.3619 61.5401 85.1815 61.4654 84.9405C61.3757 84.7149 61.2412 84.384 61.1516 84.2185C61.032 83.9778 61.032 83.8124 61.1516 83.5867C61.2412 83.4212 61.3159 83.1053 61.3159 82.8947C61.3159 82.6841 61.3906 82.5036 61.4654 82.5036C61.5551 82.5036 61.6148 82.1426 61.6148 81.7063C61.6148 81.2099 61.7194 80.7135 61.8987 80.3826C62.0631 80.0818 62.1527 79.6906 62.1228 79.5251C62.078 79.3597 62.1079 79.1791 62.2125 79.119C62.3171 79.0589 62.2274 78.8934 61.9585 78.6526C61.7344 78.4571 61.4355 78.1863 61.301 78.066C61.0022 77.7802 59.224 77.5245 58.9701 77.72C58.7608 77.8855 57.5206 77.9156 57.2815 77.7652C57.1918 77.705 57.0275 77.7501 56.908 77.8404C56.7287 77.9908 56.639 77.9908 56.4596 77.8404C56.3401 77.7501 56.1608 77.72 56.0562 77.7802C55.9517 77.8404 56.0562 77.6899 56.2804 77.4342C56.5195 77.1785 56.7287 76.7422 56.7884 76.3963C56.8333 76.0804 56.9378 75.7193 57.0275 75.614C57.1022 75.5238 57.1321 75.4335 57.0872 75.4335C57.0424 75.4335 57.1619 75.268 57.3563 75.0575C57.5654 74.8619 57.7298 74.5911 57.7298 74.4708C57.7298 74.3504 57.8045 74.0647 57.9091 73.8239C57.9987 73.5983 58.0884 73.2824 58.0884 73.147C58.1033 73.0117 58.1482 72.8462 58.2229 72.786C58.2827 72.7258 58.3275 72.5603 58.3275 72.425C58.3275 72.2746 58.4321 72.079 58.5516 71.9737C58.7458 71.8082 58.7608 71.8233 58.6861 72.0338C58.5516 72.3798 58.8205 72.3347 59.0448 71.9737C59.1643 71.7781 59.1643 71.6729 59.0746 71.6729C58.97 71.6729 58.97 71.5676 59.0746 71.3569C59.1792 71.1914 59.2091 70.8906 59.1643 70.695C59.0746 70.3641 59.0149 70.349 58.1482 70.3942C57.6252 70.4093 56.7586 70.5446 56.2206 70.68C55.4436 70.8906 55.1896 71.0109 55.0551 71.3118C54.9655 71.5224 54.8907 71.7631 54.8907 71.8383C54.8907 71.9286 54.7263 72.3498 54.5321 72.771C54.1735 73.5832 53.5161 74.0647 52.6494 74.1699C51.8425 74.2602 50.7068 74.5159 50.408 74.6814C50.1391 74.8318 50.0345 74.8017 49.7207 74.4859C49.5264 74.2752 49.1678 74.0796 48.9436 74.0346C48.5402 73.9443 48.3011 73.5832 48.0919 72.6506C48.0471 72.3949 47.8828 72.079 47.7483 71.9286C47.6138 71.7781 47.4942 71.372 47.4793 71.026C47.4643 70.68 47.3896 70.2288 47.3149 70.0181C47.2253 69.8076 47.1805 69.5067 47.2103 69.3412C47.4494 67.852 48.0172 66.1371 48.4655 65.5053C48.6747 65.2045 48.7942 64.7682 48.8391 64.1364C48.9287 62.7676 49.2575 62.3613 51.2149 61.188C53.3965 59.8643 54.1735 59.5785 54.5471 59.9546C54.6218 60.0298 55.0402 60.12 55.4735 60.12C55.9965 60.1351 56.2355 60.2103 56.2355 60.3456C56.2355 60.451 56.3252 60.5563 56.4298 60.5713C57.0574 60.6465 57.5206 60.6164 57.6103 60.4811C57.7148 60.3156 58.208 60.2103 58.1182 60.3607C58.0884 60.4208 58.1033 60.5863 58.1632 60.7368C58.2528 60.9775 58.2827 60.9775 58.5516 60.7668C58.8504 60.5412 58.8504 60.5412 58.5068 60.2704C58.1781 60.0147 58.1781 59.9996 58.462 59.759C58.6114 59.6387 58.7608 59.4431 58.8056 59.3378C58.8953 59.0519 62.0332 59.0069 62.4815 59.2776C62.6608 59.3979 62.8102 59.5935 62.8102 59.6988C62.8102 60.0748 63.3033 60.12 63.7366 59.7891C64.2447 59.413 64.6032 59.4431 64.8424 59.9094C64.932 60.0899 65.1113 60.3607 65.2458 60.5111C65.5596 60.8571 65.5596 61.188 65.2757 61.7296C65.1711 61.9552 65.0814 62.3163 65.1113 62.5118C65.2159 63.4294 65.3952 64.1514 65.5148 64.1514C65.5895 64.1514 65.6493 64.2568 65.6493 64.3771C65.6493 64.4974 65.7837 64.7231 65.9481 64.8585C66.1124 65.0089 66.2469 65.3098 66.2469 65.5354C66.2469 65.8513 66.3068 65.9265 66.4861 65.8513C66.6205 65.8062 66.7849 65.8513 66.8596 65.9716C66.9791 66.1522 67.0239 66.1522 67.1286 65.9566C67.2033 65.8362 67.278 65.6558 67.2929 65.5805C67.2929 65.4903 67.3975 65.2947 67.5021 65.1293C67.9055 64.4674 68.0401 63.64 67.8756 62.6773C67.8009 62.1508 67.771 61.6695 67.8159 61.5942C67.8607 61.534 67.786 61.0376 67.6515 60.5262C67.1734 58.6307 67.9952 56.9761 69.9078 56.0284C70.1469 55.908 70.6251 55.5169 70.9687 55.1559C71.3722 54.7347 71.7009 54.5241 71.9698 54.5241C72.1791 54.5241 72.4032 54.4489 72.448 54.3737C72.6423 54.0728 73.7182 53.4711 74.0768 53.4711C74.5251 53.4711 74.9135 53.0499 74.6297 52.8844C74.4952 52.7942 74.6297 52.6588 75.048 52.4633C75.6158 52.1774 75.6457 52.1774 75.4963 52.4331C75.4216 52.5986 75.2422 52.719 75.0928 52.734C74.9583 52.734 74.9135 52.7791 75.0181 52.8092C75.1227 52.8543 75.332 52.8092 75.4963 52.719C75.7652 52.5836 75.8101 52.4182 75.8101 51.5457C75.8101 50.9741 75.7354 50.4476 75.6607 50.3723C75.5411 50.252 75.5561 50.0714 75.6756 49.7706C75.7652 49.53 75.8698 49.199 75.8997 49.0485C75.9893 48.5371 76.2135 48.4769 76.1837 48.9583C76.1687 49.214 76.0791 49.4998 75.9893 49.5901C75.8848 49.6954 75.8101 49.906 75.8101 50.0714C75.8101 50.3573 75.8549 50.3272 76.1687 49.9361C76.363 49.6954 76.4974 49.4246 76.4526 49.3494C76.3928 49.2742 76.4377 49.2592 76.5273 49.3193C76.6319 49.3795 76.871 49.2441 77.0951 49.0034C77.394 48.6725 77.4687 48.4769 77.4089 48.1008C77.3641 47.8301 77.394 47.5744 77.4687 47.5292C77.5434 47.4691 77.6031 47.5443 77.6031 47.6647C77.6031 48.0107 77.6929 47.9655 78.41 47.3788C78.7537 47.093 79.1273 46.6267 79.2318 46.3409C79.4262 45.8746 79.5308 45.8143 80.2779 45.6639C81.3238 45.4383 82.1606 45.0773 81.7123 45.0472C81.5479 45.0322 81.7272 44.9269 82.1307 44.8215C82.5192 44.7162 82.9675 44.6561 83.1169 44.7013C83.2663 44.7463 83.4457 44.7013 83.4905 44.611C83.5503 44.5207 83.7146 44.4455 83.879 44.4455C84.1928 44.4455 84.402 44.0093 84.1779 43.7836C84.0732 43.6783 84.0284 43.7084 84.0284 43.8889C84.0284 44.2499 83.7445 44.2048 83.5951 43.7986C83.4905 43.573 83.5204 43.4226 83.6698 43.3022C83.7893 43.212 83.879 43.0314 83.879 42.9112C83.879 42.4598 84.8502 41.798 86.1203 41.3617C86.8226 41.1211 87.5399 40.8352 87.7192 40.7299C87.8985 40.6096 88.2422 40.5043 88.4962 40.5043C88.9295 40.4892 89.1686 40.2486 88.7801 40.2184C88.5111 40.2034 89.1238 39.9778 89.6467 39.8875C89.8859 39.8424 90.2594 39.7371 90.4835 39.6468C90.7226 39.5566 90.9318 39.5415 90.9766 39.6318C91.0214 39.707 90.603 39.9928 90.0651 40.2636C89.1985 40.6848 89.0491 40.8202 89.0191 41.1963C88.9892 41.4369 89.0639 41.7228 89.1835 41.828C89.4226 42.0688 89.8559 42.1139 89.8559 41.8882C89.8559 41.798 89.9904 41.7378 90.1548 41.7378C90.3191 41.7378 90.4536 41.6776 90.4536 41.6024C90.4536 41.3918 91.6192 40.6547 91.7835 40.76C91.8732 40.8051 92.0226 40.8051 92.1271 40.745C92.4559 40.5344 94.6972 39.7972 94.772 39.8575C94.8019 39.9026 94.9214 39.7973 95.0409 39.6318C95.1609 39.4663 95.3546 39.331 95.4893 39.331C95.8176 39.331 96.5803 38.8495 96.5803 38.6239C96.5803 38.5186 96.4752 38.4283 96.3562 38.4283C96.0869 38.4283 96.0721 38.3682 96.311 37.9771C96.4604 37.7514 96.4604 37.6462 96.311 37.4957C96.1763 37.3604 95.9375 37.5258 95.2356 38.2479C94.7421 38.7594 94.3386 39.1203 94.3386 39.0301C94.3386 38.9398 94.2042 38.9398 94.0099 39.015C93.6065 39.1504 92.3513 38.9248 92.4709 38.7293C92.5755 38.5638 93.2927 38.5938 93.2927 38.7594C93.2927 38.8195 93.4272 38.8797 93.5915 38.8797C93.7559 38.8797 93.8903 38.8195 93.8903 38.7293C93.8903 38.6541 94.0697 38.4886 94.3088 38.3682C94.7122 38.1426 94.6972 38.1426 93.8903 38.1275C92.934 38.1275 92.6502 37.9922 92.7846 37.601C92.8593 37.4054 92.8295 37.3604 92.68 37.4054C92.5605 37.4506 92.4858 37.5559 92.5007 37.6462C92.5306 37.7365 92.441 37.7815 92.3215 37.7365C92.0375 37.6161 92.0375 37.8869 92.3215 38.1877C92.6203 38.4886 92.6053 38.5638 92.2467 38.4735C91.9329 38.3833 91.7686 37.9621 91.8433 37.4657C91.8732 37.3002 92.1271 36.9392 92.4111 36.6684L92.9191 36.1569L92.5157 36.2472C91.903 36.3976 92.0076 36.2021 92.695 35.9313C93.8903 35.45 93.5616 34.5775 92.2019 34.6226C91.2904 34.6527 89.318 35.2694 88.4215 35.7959C87.5847 36.2924 87.4951 36.2773 88.0927 35.7357C88.6755 35.2393 89.7812 34.6677 90.1996 34.6677C90.364 34.6677 90.6778 34.4721 90.9019 34.2315C91.1111 33.9758 91.4697 33.705 91.7088 33.6147C91.9628 33.5244 93.3674 33.4643 95.2651 33.4794C97.1475 33.4944 98.4479 33.4342 98.5078 33.3439C98.5521 33.2687 98.7467 33.1634 98.9413 33.1032C99.1202 33.0431 99.4485 32.8325 99.6883 32.6519C100.181 32.2458 100.944 31.9601 101.571 31.9601H102.034L101.361 32.6219C100.286 33.6599 99.5684 34.4722 99.5684 34.6527C99.5684 34.7429 99.4642 34.8181 99.3443 34.8181C99.2097 34.8181 99.075 34.9235 99.0308 35.0437C98.9708 35.1641 98.8814 35.2243 98.8066 35.1792C98.672 35.104 98.2238 35.45 98.2238 35.6455C98.2238 35.6906 98.3732 35.7056 98.5678 35.6455C98.7467 35.6004 98.6121 35.7357 98.2533 35.9613C97.2074 36.6082 97.4316 36.7737 99.4937 36.8489C103.305 37.0144 103.005 36.9693 102.766 37.24C102.512 37.5108 102.498 37.8267 102.722 37.8267C102.796 37.8267 102.841 37.7665 102.781 37.6913C102.736 37.6161 102.766 37.4957 102.855 37.4506C102.946 37.3905 103.005 37.4054 102.99 37.4807C102.915 37.932 103.02 38.0824 103.379 38.0072C103.946 37.9019 104.843 36.4728 104.35 36.4728C104.276 36.4728 104.201 36.533 104.201 36.6233C104.201 36.6985 104.141 36.7737 104.081 36.7737C104.006 36.7737 103.946 36.6684 103.946 36.5481C103.946 36.4277 104.006 36.3676 104.066 36.3976C104.111 36.4428 104.245 36.3676 104.35 36.2472C104.5 36.0667 104.484 36.0216 104.29 36.0216C104.156 36.0216 103.932 36.1569 103.797 36.3224C103.648 36.4879 103.469 36.6233 103.394 36.6233C103.319 36.6233 103.409 36.4578 103.588 36.2622C103.842 35.9915 103.872 35.8861 103.722 35.826C103.618 35.7809 103.722 35.7658 103.977 35.7658C104.276 35.7959 104.425 35.7207 104.469 35.5401C104.5 35.3597 104.44 35.3145 104.216 35.3747C103.842 35.4649 103.768 35.0588 104.126 34.9084C104.455 34.788 104.395 34.5323 104.021 34.3668C103.827 34.2916 103.768 34.2315 103.872 34.2315C103.977 34.2164 104.021 34.1412 103.961 34.0359C103.886 33.9306 103.797 33.9607 103.648 34.1412C103.543 34.3067 103.454 34.3368 103.454 34.2465C103.454 34.1412 103.349 34.066 103.229 34.066C103.11 34.066 103.005 34.1111 103.005 34.1863C103.005 34.2465 102.811 34.3067 102.572 34.3067C102.258 34.3217 102.154 34.2766 102.213 34.1262C102.258 34.0059 102.378 33.9156 102.498 33.9156C102.901 33.9156 102.706 33.6448 102.228 33.5546L101.735 33.4492L102.243 33.013C102.587 32.7272 102.796 32.6219 102.871 32.7272C103.005 32.9679 103.185 32.6519 103.065 32.3511C103.02 32.2158 103.035 32.1105 103.125 32.1105C103.199 32.1105 103.305 32.0051 103.364 31.8848C103.424 31.7193 103.334 31.6591 103.035 31.6591C102.751 31.6591 102.691 31.7043 102.826 31.7946C102.961 31.8698 102.871 31.9149 102.572 31.8998C102.318 31.8848 102.108 31.8698 102.108 31.8547C102.108 31.8246 102.407 31.6742 102.781 31.4937C103.409 31.1929 103.513 31.0725 103.693 30.2752C103.932 29.3125 103.886 29.1169 103.424 29.0267C102.915 28.9064 102.617 28.3497 102.946 28.1542C103.289 27.9587 102.751 27.5224 102.228 27.5826C101.959 27.5976 101.81 27.5525 101.84 27.4322C101.884 27.2215 101.152 26.9808 100.794 27.1012C100.645 27.1463 100.6 27.1163 100.689 27.0411C100.973 26.8154 100.928 26.5146 100.554 26.1686C100.197 25.8376 100.197 25.8075 100.45 25.7173C100.734 25.627 100.838 24.9651 100.6 24.7997C100.525 24.7546 100.57 24.559 100.704 24.3634C100.913 24.0325 100.913 24.0024 100.645 23.852C100.435 23.7466 100.346 23.5361 100.346 23.1901C100.346 22.9043 100.241 22.4831 100.122 22.2424C100.002 21.9867 99.9272 21.5354 99.9715 21.1593C100.002 20.8134 99.9871 20.5275 99.9272 20.5275C99.7474 20.5275 99.4043 20.9788 99.4937 21.1292C99.5389 21.2044 99.4937 21.2345 99.3738 21.1894C99.2549 21.1443 98.7919 21.4752 98.2985 21.9565C97.8198 22.4079 97.3421 22.784 97.2526 22.784C97.1632 22.784 96.8044 22.9193 96.4457 23.0998C95.908 23.3556 95.7733 23.3706 95.564 23.2052C95.026 22.7689 94.772 22.453 94.7421 22.1973C94.7272 21.8964 95.1757 20.8886 95.385 20.7532C95.4745 20.693 95.504 20.5877 95.4441 20.5125C95.3998 20.4372 95.4146 20.3922 95.4893 20.4072C95.5492 20.4372 95.6092 20.3922 95.6092 20.317C95.6092 20.2267 95.4146 20.1515 95.1609 20.1214C94.9214 20.1063 94.5478 20.0462 94.3685 20.001C94.0697 19.9258 94.0398 19.8807 94.2042 19.6851C94.3536 19.4896 94.3536 19.4294 94.1743 19.3241C93.7409 19.0534 93.2329 18.6322 93.0087 18.3765C92.8743 18.241 92.695 18.1207 92.5904 18.1207C92.3364 18.1207 92.3364 18.4215 92.5904 18.4215C92.68 18.4215 92.6502 18.4967 92.5007 18.587C92.2317 18.7525 91.9927 18.7224 90.2146 18.3914C89.3479 18.241 89.2881 18.241 88.9743 18.557C88.795 18.7374 88.6157 19.0534 88.6008 19.2489C88.5559 19.7303 88.2422 20.0763 87.6594 20.332C87.0617 20.5727 87.0169 20.7231 87.5548 20.5877C87.9134 20.4975 87.9433 20.5125 87.8387 20.8435C87.764 21.039 87.7192 21.2947 87.7192 21.3849C87.7192 21.4903 87.6744 21.5805 87.6146 21.5805C87.5548 21.5805 87.2111 21.8212 86.8525 22.107C86.4939 22.3928 86.1353 22.6336 86.0755 22.6336C85.9261 22.6336 85.5226 23.0246 85.5226 23.1449C85.5226 23.1901 85.5824 23.2352 85.672 23.2352C85.941 23.2352 86.5686 23.8821 86.5686 24.1678C86.5686 24.5439 86.0158 25.7022 85.7019 25.988C85.1342 26.4995 83.3858 27.3268 82.5341 27.4772L81.6376 27.6277L81.7123 28.2896C81.7572 28.6807 81.7272 28.9515 81.6376 28.9515C81.5629 28.9515 81.4882 29.1169 81.4882 29.3125C81.4882 29.5231 81.4284 29.7186 81.3686 29.7638C81.3089 29.7938 81.2342 30.0496 81.2192 30.3354C81.1894 30.6814 81.0399 30.9371 80.741 31.1778C80.487 31.3734 80.3227 31.599 80.3675 31.6742C80.4273 31.7494 80.3974 31.8095 80.3078 31.8095C80.2331 31.8095 80.1434 31.7193 80.0986 31.6141C80.0537 31.4937 79.9192 31.5389 79.6503 31.7946C79.2468 32.1706 78.948 32.1105 78.948 31.6591C78.948 31.5087 78.8284 31.2831 78.694 31.1778C78.5446 31.0725 78.41 30.8769 78.41 30.7566C78.3951 30.6362 78.3353 30.4106 78.2756 30.2752C78.1859 30.0496 78.2307 30.0345 78.6043 30.1398C79.4561 30.3956 79.471 30.3956 79.471 30.0045C79.471 29.6736 79.4112 29.6284 79.0077 29.6434C78.6193 29.6585 78.5446 29.6284 78.6043 29.3877C78.6492 29.2222 78.7388 29.0568 78.8135 29.0116C78.8882 28.9665 78.948 28.7709 78.948 28.5604C78.948 28.3648 79.0077 28.1993 79.0675 28.1993C79.2617 28.1993 79.71 27.3268 79.5606 27.2366C79.4859 27.1915 78.9032 27.1163 78.2606 27.0711C77.5732 27.026 77.0055 26.9056 76.871 26.7854C76.7365 26.665 76.348 26.4844 76.0043 26.3641C75.6457 26.2588 75.3618 26.0783 75.3618 25.988C75.3618 25.7173 74.8538 25.2359 74.4354 25.1155C74.256 25.0554 73.8676 24.9201 73.5986 24.7997C73.225 24.6191 73.0009 24.6041 72.5526 24.7245C72.2538 24.8147 71.9549 24.8899 71.9101 24.8899C71.7906 24.8899 71.9549 24.1077 72.209 23.4909C72.4331 22.9344 72.3136 22.784 71.686 22.784C71.4021 22.784 71.1779 22.7388 71.1779 22.6937C71.1779 22.5583 72.5377 20.8284 72.6423 20.8284C72.702 20.8284 73.1503 20.5275 73.6285 20.1515C74.1216 19.7904 74.7044 19.4445 74.9285 19.3994C75.1526 19.3391 75.3768 19.2188 75.4216 19.0985C75.4664 18.9782 75.7354 18.8427 76.0192 18.7826C76.3181 18.7374 76.5572 18.6322 76.5572 18.557C76.5572 18.4817 76.6468 18.4366 76.7514 18.4517C76.8411 18.4817 76.9159 18.4065 76.886 18.2862C76.8411 18.0906 76.9756 18.0906 77.6778 18.3463C77.8871 18.4215 77.917 18.4065 77.7676 18.3013C77.6181 18.1959 77.6929 18.1207 78.0813 17.9853C78.3503 17.895 78.679 17.6845 78.7986 17.519C78.9181 17.3535 79.1273 17.2181 79.2468 17.2181C79.3813 17.2181 79.5606 17.1429 79.6503 17.0526C79.7549 16.9473 80.1434 16.8571 80.5468 16.827C81.3537 16.7518 82.9227 16.0297 83.4905 15.4581C83.8192 15.1272 84.7904 14.5104 84.9847 14.5104C85.0296 14.5104 84.656 14.9016 84.1628 15.3679C83.6847 15.8492 83.2812 16.3005 83.2812 16.3908C83.2812 16.481 82.9824 16.6465 82.6089 16.7518C81.802 16.9925 81.7871 17.3084 82.594 17.2482C83.102 17.203 83.1468 17.2181 83.0571 17.504C82.9376 17.9251 83.3111 17.9251 84.0732 17.519C84.3721 17.3535 84.7307 17.2181 84.8502 17.2181C84.9697 17.2181 85.179 17.0828 85.3284 16.9173C85.6421 16.6014 86.2996 16.6465 86.1801 16.9925C86.0606 17.2933 87.1962 17.4287 87.8238 17.203C88.257 17.0526 88.3169 16.9624 88.1973 16.7518C88.1226 16.6014 87.9732 16.5112 87.8536 16.5562C87.7341 16.6014 87.6146 16.4961 87.5698 16.2855C87.4801 15.9696 86.9272 15.5333 86.2249 15.2325C86.0307 15.1423 85.9859 15.0219 86.0606 14.706C86.1203 14.4653 86.195 14.2547 86.2249 14.2096C86.3146 14.1043 86.5536 14.5556 86.4789 14.6909C86.4042 14.7963 86.4939 14.8263 87.0617 14.8715C87.1513 14.8865 87.241 14.7511 87.2559 14.5856C87.3007 13.6831 87.3007 13.6982 87.5996 14.0742C87.8686 14.4051 87.8985 14.4051 87.9881 14.1644C88.0479 14.0291 88.2122 13.9087 88.3468 13.9087C88.4812 13.9087 88.7801 13.8035 89.0191 13.6831C89.2433 13.5627 89.5272 13.4575 89.6168 13.4575C89.7214 13.4575 89.9606 13.292 90.1548 13.0814C90.4237 12.7955 90.4536 12.6752 90.3341 12.5098C90.1249 12.254 90.4685 11.893 91.141 11.6523C91.38 11.5621 91.649 11.3214 91.7536 11.1258C91.903 10.7949 91.8881 10.7497 91.649 10.7497C91.126 10.7497 91.1858 10.464 91.7387 10.3135C92.157 10.1932 92.3812 10.2082 92.7099 10.3737C92.949 10.509 93.3076 10.5542 93.5616 10.509C94.1145 10.4038 94.3536 10.7046 93.8306 10.84C93.3823 10.9453 92.9938 11.3514 93.3076 11.3514C93.4421 11.3665 93.3823 11.4718 93.1582 11.6674C92.9639 11.8329 92.8593 12.0134 92.9191 12.0735C92.9789 12.1337 93.0685 12.0886 93.0984 11.9833C93.1433 11.893 93.2628 11.8027 93.3823 11.8027C93.5766 11.8027 93.6513 11.6222 93.6065 11.3063C93.6065 11.2462 93.6662 11.201 93.7409 11.201C93.9801 11.201 95.0853 10.4338 95.0853 10.2684C95.0853 10.1781 94.9662 10.163 94.8318 10.2233C94.2789 10.4489 94.0398 10.479 94.0398 10.3135C94.0398 10.2233 94.2042 10.1481 94.4133 10.1481C94.6673 10.1481 94.8467 10.0428 94.9364 9.80209C95.0111 9.62157 95.0708 9.56142 95.0708 9.65159C95.0853 9.75691 95.1904 9.84718 95.3103 9.84718C95.4441 9.84718 95.4893 9.93744 95.4293 10.1029C95.3694 10.2684 95.385 10.3135 95.504 10.2383C95.6092 10.1781 95.6839 10.1932 95.6839 10.2533C95.6839 10.3285 95.8628 10.4941 96.1016 10.6294L96.5056 10.8851L96.0869 10.9002C95.848 10.9002 95.6986 10.84 95.7586 10.7648C95.8923 10.5241 95.5345 10.4038 95.2947 10.5993C95.1453 10.7497 95.1305 10.84 95.2504 10.9905C95.3399 11.0957 95.3546 11.2612 95.2947 11.3665C95.22 11.5019 95.3251 11.5169 95.7134 11.4417C96.1164 11.3665 96.2363 11.3966 96.2363 11.5771C96.2363 11.7426 96.0721 11.8027 95.6092 11.8027C94.6076 11.8027 93.5168 12.5248 93.8156 13.0062C94.0398 13.3672 95.9827 12.9008 95.9827 12.4797C95.9827 12.3743 96.0721 12.2089 96.1911 12.1186C96.3562 11.9833 96.4005 11.9983 96.3709 12.2089C96.3562 12.4195 96.4899 12.4947 96.9234 12.5248C97.3273 12.5549 97.4767 12.5098 97.4767 12.3443C97.4767 12.2239 97.3273 12.1036 97.1475 12.0735C96.9686 12.0434 96.7897 11.9231 96.7592 11.8027C96.6993 11.6072 96.714 11.6072 96.9086 11.7726C97.1032 11.9231 97.1632 11.9231 97.2222 11.7726C97.2821 11.6222 97.3126 11.6222 97.3126 11.7577C97.3273 11.8629 97.462 11.9531 97.6262 11.9531C97.8503 11.9531 97.9102 12.0283 97.865 12.2841C97.8198 12.4797 97.7903 12.7504 97.7903 12.8858C97.7756 13.0363 97.6557 13.1566 97.521 13.1566C97.3873 13.1566 97.1632 13.2468 97.0433 13.3522C96.9086 13.4724 96.4752 13.6831 96.0574 13.8335C95.1305 14.1644 94.9662 14.2999 95.2052 14.5405C95.4597 14.7963 95.4293 14.9467 95.1305 14.9467C94.9812 14.9467 94.6076 15.0068 94.3088 15.082C93.9651 15.1723 93.472 15.1723 92.9789 15.082C92.3364 14.9617 92.1122 14.9918 91.664 15.2175C90.872 15.6236 90.5432 15.9846 90.7376 16.2253C90.9916 16.5261 91.6042 16.6014 92.2916 16.4058C92.6352 16.3005 93.1582 16.2404 93.4421 16.2554C93.726 16.2704 94.1145 16.2855 94.3088 16.3005C94.503 16.3005 94.6076 16.3757 94.5628 16.466C94.5179 16.5412 94.5777 16.6164 94.7122 16.6164C94.8617 16.6164 94.9364 16.7217 94.9065 16.8721C94.8766 17.0226 95.0111 17.3084 95.1905 17.519C95.385 17.7296 95.5344 18.0003 95.5344 18.1508C95.5344 18.5118 95.7586 18.6021 96.1911 18.4065C96.5056 18.2561 96.6246 18.2862 96.9686 18.557C97.1927 18.7224 97.521 18.8729 97.7156 18.8729C97.9102 18.8729 98.4027 19.0082 98.8214 19.1737C99.2244 19.3391 99.5684 19.4445 99.5684 19.3994C99.5684 19.3542 99.7031 19.4595 99.882 19.64C100.241 20.001 100.629 19.8055 100.51 19.3241C100.421 19.0082 100.017 18.9029 100.017 19.1887C100.017 19.279 99.9272 19.3241 99.8377 19.279C99.7326 19.2489 99.6579 19.0834 99.6883 18.933C99.7031 18.7675 99.5684 18.4967 99.3443 18.3013C99.135 18.1207 98.9708 17.9101 98.9708 17.8349C98.9708 17.7597 98.8362 17.6694 98.672 17.6242C98.5078 17.5792 98.3732 17.4287 98.3732 17.2783C98.3732 17.0376 98.3879 17.0376 98.672 17.2933C98.8362 17.4438 99.016 17.519 99.075 17.4738C99.1202 17.4137 99.2696 17.5039 99.3895 17.6845C99.5684 17.9402 99.6284 17.9553 99.8377 17.7898C99.9715 17.6845 100.031 17.6694 99.9715 17.7597C99.9124 17.865 100.017 17.9702 100.226 18.0305C100.421 18.0755 100.614 18.2561 100.659 18.4215C100.749 18.7525 101.122 18.8277 101.301 18.557C101.347 18.4667 101.301 18.3313 101.197 18.2561C101.048 18.1658 101.033 18.1207 101.182 18.1207C101.272 18.1207 101.361 17.9853 101.361 17.8198C101.361 17.6393 101.436 17.5641 101.571 17.6093C101.676 17.6544 101.884 17.5792 102.019 17.4287C102.243 17.2181 102.243 17.1429 102.049 16.8571C101.9 16.6164 101.884 16.4509 101.989 16.2554C102.154 15.9545 101.944 15.7139 101.496 15.7139C101.242 15.7139 101.063 15.4431 100.973 14.9166C100.944 14.7661 101.003 14.6608 101.137 14.6608C101.407 14.6608 101.421 14.4954 101.182 14.2247C101.018 14.0592 101.033 14.0441 101.182 14.1193C101.287 14.1795 101.466 14.1644 101.556 14.0742C101.795 13.8787 102.452 14.4352 102.527 14.8865C102.587 15.2325 102.855 15.6085 102.975 15.5032C103.005 15.4581 103.17 15.4882 103.319 15.5634C103.662 15.7589 104.052 15.5935 104.201 15.2024C104.305 14.9316 104.409 14.8865 104.858 14.9316C105.202 14.9768 105.396 14.9316 105.396 14.8113C105.396 14.5856 105.77 14.2096 106.023 14.2096C106.129 14.2096 106.382 14.0742 106.577 13.9238L106.92 13.653L106.502 13.3522C106.262 13.1867 105.979 13.0814 105.859 13.1265C105.739 13.1716 105.695 13.1265 105.755 13.0212C105.814 12.931 105.77 12.8558 105.65 12.8558C105.546 12.8558 105.291 12.6903 105.097 12.4646C104.843 12.2089 104.634 12.1186 104.395 12.1788C104.216 12.2239 104.021 12.1788 103.961 12.0886C103.917 11.9983 103.633 11.8329 103.364 11.7125C103.08 11.5922 102.855 11.4417 102.855 11.3815C102.855 11.186 103.558 10.855 103.737 10.9603C104.021 11.1409 104.23 10.9002 104.021 10.6294C103.872 10.4489 103.872 10.3887 104.021 10.3436C104.515 10.163 103.886 9.33572 103.08 9.11011C102.766 9.01985 102.452 8.98973 102.378 9.03491C102.318 9.07999 102.258 9.00479 102.258 8.86944C102.258 8.734 102.199 8.6588 102.124 8.70398C102.049 8.74906 101.959 8.6588 101.915 8.49333C101.855 8.25267 101.705 8.19252 101.182 8.19252C100.824 8.19252 100.435 8.28278 100.315 8.37305C100.137 8.53851 100.137 8.52345 100.301 8.29775C100.45 8.11732 100.45 8.04202 100.33 8.04202C100.226 8.04202 100.197 7.96682 100.241 7.89162C100.286 7.80135 100.226 7.74121 100.106 7.74121C99.9715 7.74121 99.8673 7.63589 99.8673 7.5156C99.8673 7.39522 99.7178 7.25987 99.5389 7.22975C99.3443 7.18458 99.0603 7.12443 98.8961 7.09441C98.6868 7.04923 98.7172 7.01911 99.016 7.00415C99.2401 6.98909 99.419 6.89882 99.419 6.7935C99.419 6.35725 98.8961 6.13164 97.7009 6.04138C96.7297 5.96617 96.4604 5.99629 96.251 6.19178C95.9974 6.41749 95.9827 6.41749 95.9827 6.19178C95.9827 5.87591 95.2504 5.86085 93.8903 6.16176C92.7547 6.41749 92.4709 6.43245 92.9938 6.20684L93.3674 6.05644L92.9938 5.90603C91.9777 5.51486 89.1088 6.40243 87.8835 7.50054C87.7341 7.63589 87.5698 7.74121 87.51 7.74121C87.3755 7.75627 86.8077 8.49333 86.8973 8.55348C86.9123 8.5836 87.3157 8.67386 87.764 8.74906L88.5858 8.91453L87.7042 8.88441C86.7031 8.86944 86.5237 9.04997 87.0318 9.5313C87.2559 9.74185 87.4801 9.81715 87.6594 9.75691C87.8536 9.69677 87.9134 9.72689 87.8536 9.83212C87.7341 10.0126 87.8686 10.0428 88.7352 10.0277C89.0639 10.0126 89.2284 10.0428 89.1088 10.1029C88.7502 10.2533 88.5111 10.5542 88.4663 10.9302C88.4364 11.1258 88.3169 11.2762 88.1973 11.2762C88.0778 11.2762 87.7491 11.4718 87.4502 11.6974C86.8973 12.1186 86.6284 12.2239 86.7928 11.9531C86.8376 11.8629 86.7928 11.8027 86.6732 11.8027C86.4192 11.8027 85.8813 12.3743 86.0307 12.5098C86.0755 12.5699 85.9112 12.7053 85.6421 12.8106C85.2686 12.9761 85.1491 12.9761 85.0445 12.8256C84.8502 12.5098 84.9847 12.1939 85.4031 11.9833C86.2697 11.5621 85.9709 10.5693 85.0595 10.8851C84.641 11.0205 84.6111 11.0205 84.7008 10.7497C84.7755 10.509 84.7307 10.4489 84.4916 10.4489C84.1479 10.4489 84.0433 9.92238 84.3422 9.81715C84.4767 9.77197 84.4767 9.66665 84.3422 9.41092C84.2077 9.1552 84.1928 9.01985 84.3273 8.86944C84.5514 8.59865 84.3721 8.04202 84.0582 8.02706C83.9238 8.02706 84.0881 7.90667 84.4468 7.75627C84.8054 7.62083 85.1491 7.42534 85.1939 7.33508C85.2537 7.24481 85.672 7.13949 86.1203 7.10937C87.1364 7.00414 89.4226 5.98123 89.0939 5.77059C88.9743 5.69539 88.6157 5.63524 88.287 5.63524C87.9582 5.63524 87.4203 5.59007 87.0916 5.54498C86.3743 5.45472 85.2836 5.66527 85.3284 5.90603C85.3583 5.99629 85.2686 6.04138 85.1342 5.98123C85.0146 5.93606 84.7606 6.02632 84.5813 6.19178C84.402 6.35725 84.1329 6.53777 83.9686 6.59792C83.7893 6.65815 83.7146 6.7935 83.7744 6.97403C83.864 7.32002 83.4307 7.75627 82.7284 8.04202C82.4594 8.14734 82.2353 8.26772 82.2353 8.32787C82.2353 8.38801 82.1008 8.43319 81.9215 8.44825C81.5031 8.47827 80.8904 8.89947 80.8904 9.1552C80.8904 9.26052 80.7261 9.44104 80.5169 9.54636C80.2629 9.68171 80.1434 9.86223 80.1733 10.0578C80.2032 10.2985 80.1285 10.3888 79.7997 10.4188C79.5457 10.4489 79.2617 10.3737 79.0974 10.2233C78.8733 10.0277 78.7687 10.0126 78.41 10.1781C78.171 10.2834 77.917 10.4489 77.8572 10.5542C77.7974 10.6595 77.4687 10.7949 77.1549 10.84C76.5124 10.9453 76.3331 11.2913 76.886 11.3815C77.0653 11.4117 77.2296 11.5169 77.2744 11.6373C77.3193 11.7726 77.2446 11.8027 77.0204 11.7275C76.7962 11.6674 76.617 11.7426 76.3779 11.9833C76.0641 12.3142 75.8997 12.3443 74.3457 12.3743C72.9711 12.3894 72.6423 12.3594 72.5676 12.1638C72.5227 12.0283 72.3883 11.9833 72.209 12.0283C71.8055 12.1638 71.4917 11.9382 71.8652 11.7877C72.1343 11.6824 72.1343 11.6824 71.8652 11.5771C71.7009 11.5019 71.5515 11.5319 71.4768 11.6523C71.3872 11.7877 71.3423 11.7577 71.2975 11.5019C71.2826 11.3063 71.163 11.1258 71.0434 11.0807C70.9239 11.0356 70.8791 11.0807 70.9239 11.1559C70.9687 11.2311 70.8193 11.2762 70.5653 11.2311L70.117 11.171L70.5205 10.9603C70.8044 10.8099 70.9837 10.7949 71.0882 10.9002C71.2826 11.0957 71.5216 11.0957 71.4021 10.9002C71.3573 10.825 71.4021 10.7949 71.5366 10.84C71.6561 10.8851 71.7906 11.0054 71.8204 11.1108C71.8652 11.2311 72.2389 11.3063 72.8216 11.3214C73.3446 11.3365 73.8526 11.4266 73.9722 11.5169C74.1365 11.6523 74.256 11.6222 74.5101 11.3665C74.7044 11.201 74.9434 11.0506 75.0331 11.0506C75.2422 11.0506 75.2573 10.9603 75.0779 10.6144C74.9733 10.4188 75.0032 10.3586 75.2274 10.3436C75.3768 10.3285 75.5112 10.4188 75.5112 10.5392C75.5112 10.6595 75.5561 10.7497 75.6009 10.7497C75.7951 10.7497 76.5572 10.118 76.5572 9.9525C76.5572 9.78703 75.9296 9.44104 75.1825 9.20037C74.8239 9.07999 74.8388 8.83932 75.2123 8.64374C75.3768 8.55348 75.5112 8.38801 75.5112 8.26772C75.5112 7.75627 76.1687 7.04923 76.9457 6.70324C77.394 6.50766 77.7526 6.29711 77.7526 6.23696C77.7526 6.0715 77.3491 5.93606 76.856 5.93606C76.3331 5.93606 75.5112 6.25202 75.7802 6.34219C75.8698 6.38737 75.9595 6.47763 75.9595 6.55283C75.9595 6.6431 75.8399 6.6431 75.6756 6.53777C75.0928 6.23696 74.4653 6.35725 73.9871 6.8687C73.7331 7.13949 73.479 7.5156 73.4043 7.69613C73.3296 7.89162 73.2101 8.04202 73.1354 8.04202C72.9711 8.04202 73.0009 7.75627 73.1802 7.47042C73.2549 7.35014 73.1952 7.15455 73.0308 6.97403C72.717 6.62804 72.0745 6.58295 72.0745 6.91388C72.0745 7.19964 71.8653 7.19964 71.0733 6.89882C70.5653 6.70324 70.3561 6.68818 69.9527 6.82362C69.5642 6.95897 69.5043 6.95897 69.6538 6.80856C69.9078 6.55283 69.878 6.38737 69.5642 6.38737C69.4147 6.38737 69.1906 6.2219 69.086 6.01126C68.847 5.56004 68.5182 5.43966 67.4423 5.39458C66.994 5.37952 65.978 5.31937 65.201 5.28925C64.424 5.24408 63.5872 5.24408 63.3631 5.28925ZM92.172 6.61298C91.9329 6.74842 91.6042 7.06429 91.4398 7.33508L91.1708 7.81641L91.0214 7.4404C90.9467 7.24481 90.9467 7.04923 91.0065 7.03417C91.0812 7.00414 91.3651 6.85365 91.649 6.68818C91.9329 6.53777 92.2766 6.40243 92.3962 6.40243C92.5157 6.40243 92.426 6.49269 92.172 6.61298ZM96.3258 6.85365C96.4005 7.13949 96.4899 7.16961 97.058 7.09441C97.6114 7.01911 97.6409 7.01911 97.3273 7.16961C97.118 7.24481 96.655 7.33508 96.2815 7.35014C95.6239 7.38016 95.6092 7.3651 95.8775 7.09441C96.0269 6.94391 96.1016 6.76338 96.0574 6.68818C95.9974 6.59792 96.0269 6.53777 96.1016 6.53777C96.1764 6.53777 96.2815 6.68818 96.3258 6.85365ZM90.7973 7.69613C90.6628 7.74121 90.6478 7.84653 90.7525 8.05708C90.9169 8.35799 90.7077 8.47828 90.5283 8.19252C90.3938 7.96682 90.5582 7.5908 90.7824 7.60586C90.9318 7.60586 90.9318 7.63589 90.7973 7.69613ZM99.6431 7.89162C99.598 7.96682 99.4338 8.04202 99.2991 8.02706C99.0907 8.02706 99.1055 7.99694 99.3443 7.89162C99.7474 7.72615 99.7474 7.72615 99.6431 7.89162ZM101.81 9.09505C101.691 9.17025 101.451 9.2304 101.287 9.2304C101.048 9.21543 101.048 9.20037 101.361 9.09505C101.884 8.92959 102.079 8.92959 101.81 9.09505ZM103.364 9.72689C103.289 9.84717 103.334 9.86224 103.529 9.78703C103.693 9.72689 103.857 9.75691 103.917 9.87729C104.006 10.0277 103.782 10.118 103.05 10.2533C101.884 10.464 101.631 10.4188 102.631 10.163C103.005 10.0729 103.289 9.93744 103.289 9.87729C103.259 9.69677 103.305 9.54636 103.394 9.54636C103.438 9.54636 103.424 9.62156 103.364 9.72689ZM88.4663 9.78703C88.4215 9.83212 88.287 9.84718 88.1823 9.80209C88.0628 9.75691 88.1076 9.71183 88.2721 9.71183C88.4364 9.69677 88.5261 9.74185 88.4663 9.78703ZM102.706 9.90732C102.706 9.93744 102.572 9.99758 102.407 10.0428C102.243 10.0878 102.139 10.0578 102.199 9.98262C102.273 9.84718 102.706 9.78703 102.706 9.90732ZM52.3057 10.0878C52.2608 10.133 52.1264 10.1481 52.0218 10.1029C51.9023 10.0578 51.9471 10.0126 52.1114 10.0126C52.2758 9.99758 52.3654 10.0428 52.3057 10.0878ZM91.2007 10.1481C91.2007 10.2233 91.0513 10.2985 90.872 10.2985C90.5881 10.2985 90.5731 10.2684 90.7525 10.1481C91.0364 9.9525 91.2007 9.9525 91.2007 10.1481ZM93.4122 10.1029C93.2628 10.133 93.0237 10.133 92.8892 10.1029C92.7398 10.0578 92.8593 10.0277 93.1433 10.0277C93.4272 10.0277 93.5467 10.0578 93.4122 10.1029ZM51.1551 10.2985C51.0356 10.3737 50.8265 10.4338 50.7068 10.4338C50.5574 10.4338 50.5873 10.3887 50.7815 10.2985C51.185 10.118 51.4241 10.118 51.1551 10.2985ZM83.7296 10.2985C83.7296 10.3737 83.6698 10.4489 83.5801 10.4489C83.5054 10.4489 83.4307 10.3737 83.4307 10.2985C83.4307 10.2082 83.5054 10.1481 83.5801 10.1481C83.6698 10.1481 83.7296 10.2082 83.7296 10.2985ZM81.1894 10.6294C81.1894 10.6896 81.025 10.855 80.8157 10.9905C80.3526 11.2913 80.3227 11.5621 80.756 11.4567C80.9354 11.4117 81.025 11.4266 80.9503 11.4869C80.7859 11.6222 79.6503 12.0283 79.0526 12.1638C78.7986 12.2239 78.5894 12.4045 78.4998 12.6301C78.3951 12.8858 78.2905 12.9761 78.1112 12.9008C77.8721 12.8106 77.8722 12.7955 78.1261 12.6151C78.2756 12.4947 78.3353 12.3443 78.2606 12.2239C78.2008 12.1186 78.2009 12.0735 78.2756 12.1337C78.425 12.2691 78.9779 11.9833 78.8733 11.8178C78.8434 11.7426 79.1123 11.6072 79.4859 11.5169C79.8594 11.4266 80.1134 11.2762 80.0686 11.201C80.0089 11.1108 79.9043 11.0957 79.8146 11.1409C79.725 11.201 79.6951 11.1258 79.725 10.9603C79.7549 10.7648 79.8893 10.6896 80.0986 10.7197C80.2779 10.7497 80.4572 10.7046 80.502 10.6144C80.6066 10.4489 81.1894 10.4489 81.1894 10.6294ZM47.8678 10.825C47.1805 11.0957 46.792 11.0957 47.2701 10.84C47.4793 10.7197 47.8081 10.6294 48.0172 10.6294C48.3459 10.6294 48.316 10.6445 47.8678 10.825ZM103.902 10.7197C103.902 10.7798 103.662 10.8099 103.379 10.7798C103.095 10.7497 102.855 10.6896 102.855 10.6595C102.855 10.6294 103.095 10.5993 103.379 10.5993C103.662 10.5993 103.902 10.6595 103.902 10.7197ZM84.2376 11.2311C84.1479 11.547 83.864 11.8479 83.7744 11.7426C83.6997 11.6674 84.1031 10.9002 84.2227 10.9002C84.2974 10.9002 84.2974 11.0506 84.2376 11.2311ZM95.908 11.201C95.8628 11.2762 95.7429 11.3514 95.6682 11.3514C95.5787 11.3514 95.564 11.2762 95.6092 11.201C95.6534 11.1108 95.7733 11.0506 95.848 11.0506C95.9375 11.0506 95.9522 11.1108 95.908 11.201ZM91.3501 11.3514C91.3501 11.4266 91.2754 11.5019 91.1858 11.5019C91.1111 11.5019 91.0812 11.4266 91.126 11.3514C91.1708 11.2612 91.2455 11.201 91.2904 11.201C91.3203 11.201 91.3501 11.2612 91.3501 11.3514ZM96.8339 11.2913C96.7897 11.3365 96.655 11.3514 96.5499 11.3063C96.4309 11.2612 96.4752 11.2161 96.6393 11.2161C96.8044 11.201 96.8939 11.2462 96.8339 11.2913ZM86.4939 12.239C86.449 12.3292 86.3295 12.4045 86.2399 12.4045C86.1502 12.4045 86.1502 12.3142 86.2697 12.1788C86.4789 11.9231 86.6583 11.9833 86.4939 12.239ZM77.1549 12.3142C77.1549 12.3443 77.0503 12.4045 76.9308 12.4646C76.8112 12.5098 76.7066 12.4797 76.7066 12.4045C76.7066 12.3142 76.8112 12.254 76.9308 12.254C77.0503 12.254 77.1549 12.2841 77.1549 12.3142ZM97.1475 12.3594C96.9981 12.3894 96.7592 12.3894 96.6246 12.3594C96.4752 12.3142 96.5951 12.2841 96.8791 12.2841C97.1632 12.2841 97.2821 12.3142 97.1475 12.3594ZM67.5918 13.0964C67.5918 13.1265 67.4573 13.1566 67.278 13.1566C67.1136 13.1566 67.009 13.0964 67.0687 13.0062C67.1435 12.8858 67.5918 12.961 67.5918 13.0964ZM78.0066 13.2468C77.9618 13.292 77.8273 13.307 77.7227 13.2619C77.6031 13.2167 77.6479 13.1716 77.8124 13.1716C77.9767 13.1566 78.0664 13.2018 78.0066 13.2468ZM57.2068 13.4575C57.0424 13.5176 56.6838 13.668 56.3999 13.7734C55.9068 13.9539 55.9068 13.9689 56.2505 14.1043C56.4447 14.1795 56.9528 14.1945 57.3563 14.1344L58.1033 14.0441L57.6252 14.345C57.3563 14.5104 56.908 14.6459 56.5643 14.6308C55.8471 14.6308 55.3091 14.7812 55.4137 14.9768C55.4884 15.0971 55.1747 15.1873 54.8459 15.1272C54.7861 15.1121 54.4873 15.2175 54.1885 15.3377C53.8896 15.4581 53.6206 15.5333 53.5758 15.4882C53.4563 15.3679 54.6068 14.9316 54.8309 15.0219C54.9356 15.0671 55.0701 15.0219 55.1298 14.9316C55.3091 14.6459 53.9942 14.9316 53.516 15.2927C53.1574 15.5333 53.008 15.5634 52.754 15.4431C52.4851 15.3077 52.4701 15.2776 52.6942 15.2776C52.8287 15.2625 52.9482 15.1873 52.9482 15.1121C52.9482 15.0219 53.0827 14.9617 53.2321 14.9617C53.3965 14.9617 53.6206 14.8564 53.7551 14.7361C53.8746 14.6157 54.0988 14.5255 54.2482 14.5405C54.3976 14.5405 54.6367 14.5405 54.801 14.5405C55.3539 14.4804 54.7413 14.0592 54.1586 14.0892L53.6206 14.1043L54.1138 14.1644C54.3678 14.1945 54.5919 14.2848 54.5919 14.3751C54.5919 14.4503 54.5769 14.5104 54.562 14.5104C54.5321 14.4954 54.1437 14.4051 53.6953 14.2999L52.8735 14.1193L54.0689 13.9238C54.7263 13.8184 55.6977 13.6379 56.2355 13.5327C57.3712 13.292 57.6252 13.277 57.2068 13.4575ZM98.8214 13.4424C98.8214 13.5176 99.0003 13.6229 99.2097 13.668C99.7326 13.8035 99.5085 13.999 98.7172 14.1043C98.1786 14.1644 98.1039 14.1494 98.1933 13.9238C98.3732 13.4575 98.8214 13.1115 98.8214 13.4424ZM106.502 13.5928C106.562 13.668 106.457 13.6982 106.293 13.653C105.949 13.5627 105.904 13.4575 106.203 13.4575C106.322 13.4575 106.457 13.5176 106.502 13.5928ZM21.9726 13.8486C21.9278 13.8936 21.7934 13.9087 21.6888 13.8636C21.5692 13.8184 21.6141 13.7734 21.7784 13.7734C21.9428 13.7583 22.0324 13.8035 21.9726 13.8486ZM85.9261 14.3901C85.9261 14.6608 85.8962 14.7963 85.8663 14.6909C85.8214 14.6007 85.6571 14.5104 85.4927 14.5104C85.3134 14.5104 85.2238 14.4653 85.2686 14.4051C85.3284 14.36 85.2985 14.2247 85.2089 14.1043C85.0744 13.9539 85.1342 13.9087 85.4778 13.9087C85.8813 13.9087 85.9261 13.9539 85.9261 14.3901ZM82.31 14.9016C82.6089 15.1272 82.6089 15.1423 82.2502 15.082C82.0411 15.052 81.8618 14.9467 81.817 14.8413C81.7423 14.6007 81.9514 14.6157 82.31 14.9016ZM18.8048 15.8643C18.76 15.9395 18.6256 16.0147 18.5359 16.0147C18.4313 16.0147 18.4463 15.9545 18.5807 15.8643C18.8646 15.6837 18.9244 15.6837 18.8048 15.8643ZM93.7409 16.0297C93.7409 16.1049 93.6363 16.1652 93.5168 16.1652C93.3823 16.1652 93.3375 16.0749 93.3823 15.9395C93.472 15.7139 93.7409 15.774 93.7409 16.0297ZM95.6092 17.2181C95.564 17.2933 95.4597 17.3685 95.3694 17.3685C95.2947 17.3685 95.2356 17.2933 95.2356 17.2181C95.2356 17.1278 95.3399 17.0677 95.4745 17.0677C95.5935 17.0677 95.6534 17.1278 95.6092 17.2181ZM56.8781 19.0082C57.1321 19.2339 57.8941 19.1436 58.8504 18.8127C59.0149 18.7525 58.8205 18.8879 58.4022 19.1135C57.9987 19.3391 57.3263 19.5798 56.908 19.64C56.5045 19.7152 56.0861 19.8656 56.0114 19.986C55.8172 20.2418 53.5758 20.4523 53.247 20.2267C53.0528 20.0913 53.0528 20.0763 53.247 20.0612C53.3666 20.0462 53.5908 20.0612 53.7402 20.0763C53.8896 20.0913 54.1885 19.986 54.4126 19.8355C54.6367 19.6851 55.0551 19.5347 55.339 19.4746C55.8023 19.3994 55.862 19.3391 55.9068 18.9179C55.9517 18.4667 55.9815 18.4366 56.2804 18.6171C56.4596 18.7224 56.7287 18.8879 56.8781 19.0082ZM100.271 19.5648C100.226 19.6099 100.091 19.625 99.9871 19.5798C99.8673 19.5347 99.9124 19.4896 100.077 19.4896C100.241 19.4746 100.33 19.5197 100.271 19.5648ZM23.2129 20.1665C23.2129 20.1966 23.1082 20.2267 22.9887 20.2267C22.8692 20.2267 22.7646 20.1665 22.7646 20.0763C22.7646 20.001 22.8692 19.971 22.9887 20.016C23.1082 20.0763 23.2129 20.1364 23.2129 20.1665ZM21.9726 20.317C21.9278 20.362 21.7934 20.3771 21.6888 20.332C21.5692 20.2868 21.6141 20.2418 21.7784 20.2418C21.9428 20.2267 22.0324 20.2718 21.9726 20.317ZM21.345 20.5275C21.2106 20.7381 20.6726 21.0089 20.6726 20.8735C20.6726 20.7682 21.0313 20.5426 21.3899 20.3922C21.4197 20.3922 21.3899 20.4372 21.345 20.5275ZM16.5336 21.9867C16.429 22.0168 16.2198 22.0168 16.0854 21.9867C15.936 21.9416 16.0256 21.9115 16.2647 21.9115C16.5186 21.9115 16.6232 21.9416 16.5336 21.9867ZM17.3853 21.9416C17.3853 21.9716 17.2508 22.0318 17.0865 22.0769C16.9221 22.122 16.8176 22.092 16.8773 22.0168C16.952 21.8813 17.3853 21.8212 17.3853 21.9416ZM32.5967 23.16C32.5519 23.2052 32.4622 23.13 32.4174 22.9795C32.3277 22.7689 32.3427 22.7538 32.4921 22.8892C32.5967 22.9945 32.6415 23.1149 32.5967 23.16ZM32.8507 23.5361C32.8955 23.6113 32.8806 23.6865 32.7909 23.6865C32.7162 23.6865 32.5967 23.6113 32.5519 23.5361C32.507 23.4458 32.522 23.3857 32.6116 23.3857C32.6863 23.3857 32.8058 23.4458 32.8507 23.5361ZM32.1035 23.8369C32.0438 23.9272 32.0737 24.0926 32.1634 24.198C32.2829 24.3333 32.268 24.3935 32.1035 24.3935C31.984 24.3935 31.9243 24.3333 31.9691 24.2732C31.999 24.213 31.9541 24.1077 31.8645 24.0475C31.745 23.9873 31.7599 23.9121 31.8944 23.8218C32.1634 23.6564 32.2082 23.6564 32.1035 23.8369ZM12.9026 23.9873C12.9026 24.0626 12.8727 24.1378 12.8429 24.1378C12.798 24.1378 12.7233 24.0626 12.6785 23.9873C12.6336 23.8971 12.6636 23.8369 12.7383 23.8369C12.8279 23.8369 12.9026 23.8971 12.9026 23.9873ZM33.3737 24.6643C33.1645 24.9201 32.6863 24.9651 32.5668 24.7546C32.507 24.6793 32.5967 24.6493 32.761 24.6944C32.9104 24.7395 33.0898 24.6944 33.1346 24.6041C33.1944 24.5138 33.3139 24.4386 33.4036 24.4386C33.5082 24.4386 33.4932 24.5289 33.3737 24.6643ZM33.1645 25.2209C33.2243 25.3111 33.2093 25.3412 33.1048 25.281C33.0151 25.2359 32.8806 25.2961 32.8058 25.4315C32.7162 25.597 32.6415 25.627 32.5668 25.5067C32.507 25.4164 32.5369 25.3412 32.6266 25.3412C32.7162 25.3412 32.7461 25.266 32.7013 25.1907C32.6564 25.1005 32.7162 25.0403 32.8357 25.0403C32.9553 25.0403 33.1048 25.1155 33.1645 25.2209ZM32.1783 25.7022C32.1783 25.7323 32.0587 25.8527 31.9243 25.9579C31.6852 26.1535 31.6703 26.1385 31.8645 25.8978C32.0587 25.6571 32.1783 25.5819 32.1783 25.7022ZM32.776 26.319C32.776 26.4394 32.7461 26.5446 32.7162 26.5446C32.6863 26.5446 32.6266 26.4394 32.5668 26.319C32.522 26.1986 32.5519 26.0934 32.6266 26.0934C32.7162 26.0934 32.776 26.1986 32.776 26.319ZM33.7772 26.1836C33.7323 26.2287 33.5978 26.2438 33.4932 26.1986C33.3737 26.1535 33.4185 26.1084 33.5829 26.1084C33.7472 26.0934 33.8369 26.1385 33.7772 26.1836ZM31.999 27.3419C31.9093 27.5224 31.8197 27.6879 31.8047 27.7029C31.7898 27.733 31.7748 27.5525 31.7748 27.3118C31.7748 27.011 31.8346 26.8906 31.9691 26.9508C32.1334 27.011 32.1334 27.1012 31.999 27.3419ZM63.3481 29.1169C63.4677 29.3276 63.1091 31.5087 62.9446 31.5087C62.8699 31.5087 62.8102 31.4636 62.8102 31.3884C62.8102 31.3282 62.7504 31.1929 62.6757 31.0725C62.5711 30.907 62.4815 30.892 62.3171 31.0274C62.1676 31.1627 62.1079 31.1627 62.1079 31.0123C62.1079 30.9221 62.063 30.6814 62.0033 30.4858C61.9136 30.2301 61.9585 30.1248 62.2424 30.0195L62.5861 29.869H62.2574C61.8091 29.854 61.824 29.7638 62.3321 29.3276C62.7654 28.9364 63.1838 28.8461 63.3481 29.1169ZM100.764 29.0116C100.764 29.0417 100.54 29.147 100.286 29.2373C99.8377 29.3877 99.8221 29.3727 100.077 29.1771C100.346 28.9665 100.764 28.8763 100.764 29.0116ZM32.3277 29.5532C32.3277 29.6284 32.2979 29.7036 32.268 29.7036C32.2232 29.7036 32.1485 29.6284 32.1035 29.5532C32.0587 29.4629 32.0886 29.4028 32.1634 29.4028C32.253 29.4028 32.3277 29.4629 32.3277 29.5532ZM62.9596 32.1857C62.9596 32.2158 62.7654 32.4564 62.5114 32.7122C62.2274 32.9979 62.0631 33.0882 62.0631 32.9528C62.0631 32.8325 62.2424 32.5918 62.4516 32.4263C62.855 32.1105 62.9596 32.0503 62.9596 32.1857ZM33.9116 34.0059C33.9116 34.1713 34.076 34.3217 34.3897 34.4271C34.7783 34.5624 34.8381 34.6376 34.6887 34.788C34.5541 34.9235 34.5541 34.9685 34.6887 34.9685C34.7932 34.9685 34.8679 35.1189 34.8679 35.2995C34.8679 35.5552 34.8231 35.5853 34.7335 35.4349C34.6588 35.3145 34.5242 35.2844 34.4196 35.3447C34.3001 35.4199 34.2553 35.3897 34.3001 35.2544C34.3449 35.134 34.1955 34.8632 33.9863 34.6527C33.5679 34.2465 33.4334 33.7651 33.7472 33.7651C33.8519 33.7651 33.9266 33.8704 33.9116 34.0059ZM70.9239 35.3597C71.0584 35.4048 71.1032 35.5703 71.0733 35.7959C70.9837 36.2021 71.4469 36.533 71.8802 36.3676C72.1044 36.2773 72.1193 36.3073 71.9698 36.5029C71.8653 36.6233 71.8204 36.7737 71.8652 36.8188C71.925 36.864 71.9101 37.0294 71.8503 37.1798C71.7009 37.5258 71.671 37.6161 71.6411 37.9019C71.6411 38.0222 71.5515 38.1275 71.4619 38.1275C71.3722 38.1275 71.3274 38.0222 71.3872 37.9019C71.4469 37.7214 71.3423 37.7063 70.7596 37.7815C70.371 37.8267 69.9377 37.932 69.8033 38.0072C69.4745 38.1726 68.832 38.0072 68.7274 37.7365C68.6825 37.6161 68.5331 37.5258 68.3837 37.5258C68.2044 37.5258 68.2791 37.4205 68.6228 37.2099C69.1757 36.879 69.1458 36.6834 68.563 36.8338C68.3239 36.894 68.2194 36.9993 68.2791 37.1046C68.3389 37.2099 68.3239 37.225 68.2194 37.1648C68.1297 37.1046 67.8308 37.1798 67.5619 37.3153C67.2929 37.4657 66.8745 37.6311 66.6205 37.6913C66.3815 37.7514 66.0079 37.8568 65.7987 37.9169C65.4251 38.0072 65.4251 38.0072 65.724 37.7665C66.0079 37.5108 65.9929 37.5108 65.3952 37.571C65.0366 37.6161 64.7527 37.6311 64.7527 37.601C64.7527 37.4657 66.4113 36.6384 67.0388 36.4728C67.4274 36.3676 67.786 36.2171 67.8308 36.1569C67.8756 36.0817 67.9803 36.0216 68.0849 36.0216C68.1745 36.0216 68.1148 36.1269 67.9504 36.2472C67.8009 36.3676 67.7412 36.4728 67.8457 36.4728C68.1596 36.4728 68.7872 36.187 68.7872 36.0366C68.7872 35.9464 68.6975 35.9163 68.5779 35.9613C68.4584 36.0065 68.3239 35.9613 68.2492 35.8561C68.1895 35.7508 68.2044 35.7056 68.2791 35.7658C68.3538 35.8109 68.7872 35.7207 69.2354 35.5703C70.0871 35.2694 70.5504 35.2092 70.9239 35.3597ZM34.3449 35.8861C34.2852 35.9613 34.0312 36.0065 33.7772 36.0065C33.4633 35.9915 33.4036 35.9613 33.5978 35.9163C33.7621 35.8712 33.9565 35.7809 34.0312 35.7056C34.1955 35.5552 34.4495 35.6906 34.3449 35.8861ZM91.7237 36.3224C91.8433 36.518 91.649 36.518 91.3501 36.3224C91.1559 36.2021 91.1559 36.172 91.38 36.172C91.5146 36.172 91.6789 36.2321 91.7237 36.3224ZM93.2927 38.3682C93.2927 38.3983 93.1582 38.4283 92.9789 38.4283C92.8145 38.4283 92.7099 38.3682 92.7697 38.2779C92.8444 38.1577 93.2927 38.2329 93.2927 38.3682ZM73.6435 38.6541C73.7331 38.6841 73.479 38.7142 73.0906 38.7142C72.6871 38.7293 72.3733 38.6691 72.3733 38.6089C72.3733 38.5036 73.2997 38.5337 73.6435 38.6541ZM70.8791 38.8195C70.8791 38.9549 69.9377 39.8424 69.7435 39.9026C69.2504 40.0379 69.086 40.1583 68.5929 40.745C67.9803 41.482 67.7412 42.0085 67.7412 42.5952C67.7412 42.8509 67.5171 43.1969 67.0837 43.6332C66.3665 44.3702 65.963 44.4756 65.9332 43.949C65.8883 43.0766 66.5458 41.828 67.8159 40.414C68.4435 39.707 68.5779 39.331 68.0401 39.8123C67.9205 39.9176 67.9803 39.8123 68.1895 39.5867C68.4136 39.331 68.6526 39.1955 68.8171 39.2257C68.9515 39.2707 69.1906 39.2106 69.34 39.1053C69.7285 38.8346 70.8791 38.6239 70.8791 38.8195ZM73.4193 39.2707C73.9124 39.4814 73.9572 39.4814 74.1963 39.1955C74.5699 38.7293 75.0032 38.7894 75.1974 39.346C75.5561 40.3839 74.8986 40.9706 74.3606 40.0831C74.0319 39.5115 73.7331 39.4814 73.8377 40.023C73.8975 40.3388 73.8078 40.5193 73.4492 40.8352C73.1952 41.0459 72.9412 41.4068 72.8963 41.6325C72.8066 41.9635 72.2687 42.49 72.0148 42.49C71.9698 42.49 71.9549 42.2041 71.9698 41.8431C71.9998 41.2865 71.9698 41.2113 71.7009 41.2564C71.5366 41.2865 71.2975 41.4068 71.163 41.5272C71.0434 41.6475 70.8791 41.7378 70.8044 41.7378C70.7446 41.7378 70.9986 41.4369 71.3872 41.0608C71.7756 40.6848 72.0446 40.3087 71.9998 40.2335C71.9549 40.1583 71.9849 40.068 72.0745 40.0079C72.3285 39.8424 72.2389 39.6318 71.8503 39.4513C71.6411 39.361 71.4768 39.1806 71.4768 39.0602C71.4768 38.8947 71.6113 38.8646 72.194 38.9549C72.5825 39.015 73.1354 39.1504 73.4193 39.2707ZM73.7779 39.0602C73.7331 39.1203 73.6435 39.1806 73.5537 39.1806C73.479 39.1806 73.4193 39.1203 73.4193 39.0602C73.4193 38.985 73.5238 38.9248 73.6435 38.9248C73.763 38.9248 73.8228 38.985 73.7779 39.0602ZM78.6492 41.3918C78.6342 41.8882 77.7377 42.2342 76.7813 42.1139C76.363 42.0537 75.7652 42.0837 75.4664 42.1589C74.7492 42.3545 74.7492 42.1289 75.4814 41.7829C75.8399 41.6024 76.3779 41.5121 77.0503 41.5121C77.6031 41.5121 78.0514 41.4671 78.0514 41.3918C78.0514 41.3316 78.1859 41.2865 78.3503 41.2865C78.5147 41.2865 78.6492 41.3316 78.6492 41.3918ZM75.2123 42.866C75.2123 42.9713 74.0319 43.558 72.9711 43.949C71.5216 44.5057 70.909 44.626 70.5803 44.4455C70.1917 44.2349 70.1917 43.9942 70.5803 43.9942C70.7446 43.9942 70.8791 44.0845 70.8791 44.1747C70.8791 44.3251 70.909 44.3251 70.9986 44.1898C71.0584 44.0845 71.5067 43.7986 71.9998 43.558C72.717 43.1819 73.0009 43.1217 73.5687 43.1819C74.0469 43.2421 74.1813 43.227 74.0319 43.1217C73.8676 43.0014 73.9273 42.9562 74.3307 42.8961C74.6147 42.866 74.9285 42.8209 75.0331 42.8209C75.1227 42.8058 75.2123 42.8209 75.2123 42.866ZM71.4021 43.6933C71.3573 43.7686 71.1779 43.8438 71.0135 43.8438C70.8641 43.8438 70.7297 43.7686 70.7297 43.6933C70.7297 43.603 70.909 43.5429 71.1181 43.5429C71.3274 43.5429 71.4619 43.603 71.4021 43.6933ZM75.5859 49.1237C75.7503 49.3795 75.571 49.4397 75.3618 49.184C75.2422 49.0485 75.2422 48.9583 75.332 48.9583C75.4216 48.9583 75.5411 49.0335 75.5859 49.1237ZM75.5859 51.666C75.6308 51.7562 75.571 51.7713 75.4515 51.7262C75.1825 51.6209 75.1376 51.5155 75.3469 51.5155C75.4365 51.5155 75.5411 51.5758 75.5859 51.666ZM57.9539 59.1874C57.9987 59.2626 57.939 59.3378 57.8045 59.3378C57.67 59.3378 57.6103 59.2626 57.6551 59.1874C57.6999 59.0971 57.7746 59.037 57.8045 59.037C57.8344 59.037 57.9091 59.0971 57.9539 59.1874ZM59.6424 83.6168C59.7919 83.9628 59.7768 83.9778 59.2838 83.9628C58.8504 83.9326 58.8056 83.9026 59.0149 83.7521C59.2539 83.5716 59.2539 83.5566 59.0298 83.4664C58.8803 83.4212 58.7757 83.2407 58.7757 83.0903C58.7757 82.8195 58.8056 82.8195 59.1195 83.0301C59.3137 83.1504 59.5527 83.4212 59.6424 83.6168Z" fill="white"/>
<path d="M82.9077 5.66522C82.5042 5.74042 81.8917 5.81562 81.5629 5.83068C81.2342 5.86071 80.6962 5.96603 80.3825 6.07135C79.9192 6.23681 79.8445 6.29696 80.0387 6.41734C80.3974 6.61292 80.1732 6.98894 79.6801 6.98894C79.441 6.98894 79.2468 6.91374 79.2468 6.83853C79.2468 6.64295 78.7089 6.64295 78.3353 6.83853C77.9618 7.04908 78.1261 7.36505 78.8135 7.71104C79.187 7.89147 79.3215 8.05693 79.3065 8.31266C79.2916 8.71889 79.3215 8.71889 81.1595 8.32772C81.9215 8.17731 82.2054 8.02691 82.7583 7.48533C83.1318 7.13934 83.4306 6.70309 83.4306 6.53763C83.4306 6.37216 83.5353 6.23681 83.6548 6.23681C83.8939 6.23681 83.9088 6.14655 83.7594 5.7855C83.6698 5.59001 83.5204 5.57495 82.9077 5.66522ZM83.1318 6.70309C83.326 6.83853 83.3261 6.85359 83.1019 6.79335C82.9675 6.74827 82.833 6.77839 82.7882 6.88362C82.7583 6.97388 82.6985 6.94385 82.6387 6.79335C82.5341 6.5076 82.7882 6.44737 83.1318 6.70309Z" fill="white"/>
<path d="M64.3045 68.3786C64.0952 68.4387 63.6171 68.5742 63.2286 68.6794C62.8401 68.7697 62.4067 68.9803 62.2723 69.1307C62.1378 69.2962 61.9137 69.4166 61.7792 69.4166C61.57 69.4166 61.57 69.4466 61.7642 69.567C61.9585 69.6872 61.9286 69.7324 61.6596 69.8076C61.2114 69.928 61.2263 70.1085 61.6745 70.1987C61.8838 70.2439 62.1826 70.1536 62.3768 70.0032C62.5711 69.8527 62.8401 69.7174 62.9746 69.7174C63.109 69.7174 63.363 69.582 63.5573 69.4166C63.7964 69.2059 64.0952 69.1157 64.5136 69.1307C64.8573 69.1458 65.0067 69.1758 64.8722 69.221C64.7228 69.2511 64.6033 69.3414 64.6033 69.4166C64.6033 69.5519 65.5297 69.8678 65.9481 69.8678C66.0677 69.8678 66.5159 70.0332 66.9194 70.2439C67.3676 70.4544 67.801 70.5748 68.0101 70.5147C68.2792 70.4544 68.3389 70.4996 68.3389 70.8155C68.3389 71.0111 68.4435 71.2668 68.563 71.3721C68.6826 71.4774 68.7871 71.6428 68.7871 71.7481C68.7871 71.8535 68.8917 72.0189 69.0112 72.1242C69.1458 72.2296 69.2205 72.41 69.1757 72.5153C69.071 72.771 72.2239 72.6958 72.8963 72.4401L73.3297 72.2596L72.8963 71.8985C72.6423 71.7031 72.2687 71.5376 72.0595 71.5225C71.7906 71.5225 71.6711 71.4473 71.686 71.2819C71.7009 71.1164 71.4917 70.9659 71.0584 70.8456C70.4308 70.65 69.5343 69.8979 69.5343 69.5368C69.5343 69.4466 69.4894 69.4015 69.4446 69.4616C69.3849 69.5068 69.2504 69.4616 69.1309 69.3414C68.8768 69.0706 68.4286 69.0405 68.578 69.2962C68.6527 69.4166 68.6079 69.4315 68.4286 69.3714C68.2792 69.3112 68.0699 69.2661 67.9504 69.2661C67.8308 69.2661 67.7561 69.1909 67.786 69.0856C67.8757 68.6343 65.2159 68.0928 64.3045 68.3786ZM69.7584 71.8233C69.8181 71.9136 69.6538 71.9738 69.3998 71.9738C69.1458 71.9738 68.9365 71.8985 68.9365 71.8233C68.9365 71.7331 69.101 71.6729 69.2952 71.6729C69.5044 71.6729 69.7136 71.7331 69.7584 71.8233Z" fill="white"/>
<path d="M74.1963 72.5754C73.7033 72.8161 73.6883 73.0266 74.1963 73.0266C74.3906 73.0266 74.4654 73.147 74.4654 73.4478C74.4654 73.6735 74.5401 73.9443 74.6446 74.0496C74.9285 74.3354 74.3757 74.4407 73.4641 74.2753C72.747 74.1398 72.6423 74.1549 72.5228 74.3955C72.4033 74.6062 72.463 74.7114 72.8516 74.8919C73.3596 75.1477 73.6286 75.2079 73.509 75.0123C73.4791 74.9522 73.8377 74.8919 74.3308 74.907C75.1526 74.907 75.2722 74.9522 75.5412 75.3282L75.84 75.7494L76.2136 75.2229C76.5722 74.6814 76.7813 74.561 76.886 74.8318C76.9159 74.9221 77.0952 74.8919 77.3492 74.7566C77.7826 74.531 78.694 74.5761 78.7687 74.8318C78.7986 74.907 78.9331 74.9822 79.0675 74.9822C79.1871 74.9822 79.2468 74.9371 79.202 74.877C79.1422 74.8318 79.2169 74.6964 79.3664 74.5911C79.6055 74.4106 79.5756 74.3505 79.0675 73.8541C78.7687 73.5682 78.3802 73.3275 78.2158 73.3275C78.0365 73.3275 77.9021 73.2373 77.9021 73.1169C77.9021 72.8161 76.6768 72.5152 75.8699 72.6506C75.3768 72.7258 75.1227 72.6957 74.9435 72.5302C74.7193 72.3497 74.6148 72.3648 74.1963 72.5754Z" fill="white"/>
</svg>
