<svg width="54" height="89" viewBox="0 0 54 89" fill="none" xmlns="http://www.w3.org/2000/svg">
<path d="M11.5847 0.41348C11.3306 0.503742 11.1662 0.669209 11.1662 0.834675C11.1662 0.985174 11.0766 1.10546 10.9571 1.10546C10.8525 1.10546 10.5836 1.2409 10.3743 1.40637C10.1502 1.58689 9.77667 1.70718 9.46282 1.70718C9.11919 1.70718 8.88005 1.78238 8.83522 1.93288C8.77546 2.08328 8.62605 2.12837 8.41688 2.06823C7.80422 1.91782 6.98239 3.151 7.11685 3.99413C7.11685 4.0685 7.0571 4.11405 6.96745 4.11405C6.77322 4.11405 6.38467 4.49053 6.38467 4.67087C6.38467 4.74617 6.19044 4.9265 5.93645 5.06129C5.6226 5.25743 5.53296 5.40803 5.59272 5.58837C5.65249 5.72316 5.39849 5.52794 5.02498 5.13659C4.45714 4.53515 3.51578 3.96346 3.08241 3.96346C3.0077 3.96346 2.94794 4.1596 2.94794 4.38455C2.94794 4.68574 3.05253 4.88095 3.32155 5.01667C3.51578 5.12171 3.72495 5.34761 3.78471 5.4982C3.82953 5.66366 3.93412 5.72315 4.0387 5.66366C4.15832 5.60323 4.14338 5.64879 4.02376 5.79845C3.79965 6.08476 3.91918 6.71687 4.24797 7.00226C4.36749 7.1073 4.54678 7.36293 4.63642 7.57395C4.84559 8.07034 4.92039 10.688 4.74101 10.808C4.63643 10.8684 4.65136 11.0032 4.75595 11.1993C4.92039 11.5302 4.68125 12.5379 4.42725 12.5379C4.35255 12.5379 4.29279 12.6281 4.29279 12.7331C4.29279 12.8391 4.05365 13.0194 3.76977 13.1393C3.39626 13.2899 3.24676 13.4405 3.24676 13.6813C3.24676 13.8616 3.14217 14.042 3.02264 14.1024C2.85829 14.1628 2.81348 14.2976 2.87324 14.5384C2.96288 14.8544 2.88818 14.9297 2.29046 15.1556C1.63306 15.4113 1.60309 15.4559 1.60309 15.9978C1.60309 16.3585 1.52839 16.5993 1.37898 16.6597C1.25946 16.7052 1.15487 16.9153 1.15487 17.1105C1.15487 17.3364 1.03535 17.5623 0.856058 17.6525C0.691618 17.7426 0.587037 17.8784 0.631859 17.9685C0.826181 18.2697 0.841116 19.3071 0.661736 19.3071C0.557151 19.3071 0.706559 19.5023 0.975584 19.7431C1.22958 19.9839 1.45369 20.2553 1.45369 20.3455C1.45369 20.4356 1.52839 20.5109 1.60309 20.5109C1.69283 20.5109 1.75259 20.4356 1.75259 20.3297C1.75259 20.2395 1.78247 20.1949 1.8273 20.2395C1.94682 20.3603 1.73765 20.8112 1.55827 20.8112C1.46863 20.8112 1.13993 21.0975 0.811145 21.4433C0.288221 22.0299 0.243397 22.1507 0.333041 22.6917C0.377863 23.0227 0.512334 23.3991 0.631859 23.5339C0.885944 23.8054 0.93076 24.1205 0.706557 24.1205C0.318099 24.1205 0.631857 24.5871 1.21464 24.8883C1.70777 25.1291 1.9767 25.4145 2.29046 25.9862C2.51466 26.4073 2.84335 26.9492 3.02264 27.2048C3.20193 27.4456 3.5606 28.167 3.84448 28.7842C4.1135 29.4005 4.45714 30.0931 4.62148 30.3189C4.77089 30.529 4.89051 30.8153 4.89051 30.9204C4.89051 31.0403 5.02498 31.2662 5.18932 31.4168C5.35367 31.5674 5.48813 31.8081 5.48813 31.9578C5.48813 32.1084 5.5479 32.259 5.62261 32.3045C5.93645 32.4997 6.84792 34.0791 6.77322 34.2901C6.63875 34.6508 6.95251 35.2374 7.68469 35.9745C8.387 36.6968 10.4191 37.9898 11.2858 38.2762C11.5399 38.3663 11.764 38.4862 11.764 38.5467C11.764 38.6071 12.003 38.7874 12.287 38.9529C12.5709 39.1035 12.8099 39.2838 12.8099 39.3591C12.8099 39.5097 13.1985 39.9159 13.3329 39.9159C13.6019 39.9159 14.095 40.6075 14.2593 41.2397C14.6927 42.8646 15.0214 46.384 14.7226 46.384C14.6628 46.384 14.603 46.5494 14.603 46.7604C14.603 46.9705 14.6479 47.136 14.7226 47.136C14.9318 47.136 15.1111 53.2889 14.9019 53.815C14.8122 54.0558 14.8421 54.2966 15.0065 54.5977C15.1559 54.9138 15.2007 55.2596 15.126 55.8006C15.0513 56.3872 15.1111 56.7181 15.3501 57.2749C15.5145 57.6663 15.649 58.1171 15.649 58.2826C15.649 58.4332 15.7237 58.5689 15.7984 58.5689C15.8881 58.5689 15.9628 58.8543 15.9478 59.2001C15.9478 59.5617 15.9478 59.9828 15.9628 60.1483C15.9777 60.4643 15.8582 62.2092 15.7237 63.4576C15.6938 63.8638 15.649 64.3751 15.649 64.5712C15.649 64.8269 15.5892 64.9021 15.4099 64.8268C15.2156 64.7515 15.1858 64.811 15.2754 65.142C15.3202 65.3827 15.4697 65.6691 15.5892 65.8038C15.7088 65.9247 15.7984 66.1357 15.7984 66.2407C15.7984 66.3458 15.9777 66.7371 16.1869 67.1127C16.4559 67.5793 16.5455 67.8954 16.4858 68.1957C16.3513 68.8882 16.5605 70.1069 16.8742 70.4527C17.0236 70.6181 17.0835 70.7529 16.9788 70.7529C16.8742 70.7529 16.8444 70.9035 16.9041 71.2047C16.9489 71.4455 17.0386 71.8814 17.0835 72.1371C17.2478 73.0248 17.726 73.2953 18.0398 72.6939C18.1743 72.468 18.1593 72.3332 18.0249 72.1677C17.9352 72.0469 17.9053 71.9567 17.9651 71.9567C18.0249 71.9567 17.995 71.8517 17.8904 71.7308C17.7857 71.6109 17.7558 71.5059 17.8305 71.5059C17.8904 71.5059 17.8754 71.4306 17.7708 71.3246C17.5168 71.069 17.5467 70.8589 17.8305 70.9639C18.0099 71.0392 18.0547 70.9937 17.98 70.8282C17.9352 70.6934 17.9502 70.633 18.0398 70.6786C18.1294 70.7232 18.1892 70.8738 18.1892 70.9937C18.1892 71.1145 18.2639 71.2047 18.3535 71.2047C18.4283 71.2047 18.4731 71.2651 18.4283 71.3246C18.3834 71.3999 18.4133 71.6862 18.488 71.9716C18.5627 72.2579 18.6524 72.8138 18.7122 73.22C18.757 73.6411 18.8766 74.0176 18.9662 74.078C19.1007 74.1682 19.0708 74.2286 18.8616 74.303C18.6973 74.3634 18.5179 74.4387 18.4731 74.4536C18.4283 74.4843 18.3984 74.3188 18.4283 74.0929C18.4731 73.6867 18.2938 73.4608 17.9203 73.4608C17.8007 73.4608 17.7708 73.5361 17.8455 73.6411C18.0398 73.9721 18.0249 74.2128 17.8007 74.2128C17.6961 74.2128 17.5317 74.3486 17.4421 74.4991C17.2628 74.8598 17.2479 75.1312 17.4271 74.8301C17.6214 74.514 18.1892 74.8905 18.1892 75.3413C18.1892 75.5524 18.1145 75.7178 18.0249 75.7178C17.9203 75.7178 17.8904 75.8833 17.9352 76.1687C17.995 76.455 17.9502 76.6799 17.8156 76.8305C17.6961 76.9514 17.6363 77.1615 17.6811 77.2823C17.7857 77.5677 18.1444 77.5974 18.2191 77.3567C18.2639 77.2219 18.3685 77.2219 18.6075 77.3567C18.7869 77.4626 19.011 77.4924 19.0857 77.4478C19.1754 77.4022 19.1903 77.4626 19.1455 77.5826C19.1007 77.7183 19.1156 77.8233 19.2053 77.8233C19.4742 77.8233 19.1604 78.6358 18.8168 78.8161C18.6374 78.9063 18.5328 79.0271 18.6075 79.0866C18.6673 79.147 18.7122 79.2521 18.7122 79.2976C18.7421 79.5988 18.9812 80.0794 19.1007 80.0794C19.1754 80.0794 19.2202 80.125 19.2053 80.1854C19.1754 80.3955 19.4891 81.0573 19.7283 81.2684C19.8627 81.3734 20.0122 81.6597 20.057 81.9005C20.1167 82.1403 20.2213 82.3513 20.296 82.3513C20.3708 82.3662 20.5202 82.3811 20.6248 82.3969C20.7145 82.3969 20.8489 82.6823 20.8937 83.0132C20.9386 83.3441 20.9983 83.5393 21.0133 83.464C21.0282 83.3739 21.1777 83.5393 21.357 83.8108C21.5961 84.2012 21.7455 84.2923 21.9995 84.2318C22.2087 84.1714 22.4478 84.2616 22.6868 84.4875C22.8811 84.6678 23.0903 84.8035 23.1501 84.7729C23.2248 84.758 23.2696 84.8184 23.2696 84.9086C23.2696 85.0741 23.0754 85.0443 22.4478 84.8184C22.2535 84.7431 22.3133 84.863 22.6569 85.1791C23.0156 85.5249 23.1949 85.616 23.2696 85.4803C23.4339 85.2395 23.7328 85.4505 23.6133 85.7359C23.5685 85.8558 23.5834 85.9469 23.6581 85.9311C23.9121 85.8716 24.3155 86.1273 24.3155 86.3373C24.3155 86.4731 24.48 86.5484 24.7638 86.5484C25.1075 86.5484 25.1822 86.4879 25.1075 86.3076C25.0627 86.1719 24.9133 86.0966 24.7489 86.1421C24.5846 86.1868 24.465 86.157 24.465 86.0817C24.465 85.7963 25.0627 85.9618 25.2271 86.2779C25.3317 86.4731 25.3915 86.6534 25.3765 86.699C25.3616 86.7436 25.4512 86.8338 25.6006 86.9239C25.75 86.9992 25.9592 87.1647 26.0788 87.2707C26.3328 87.5114 26.5569 87.5114 26.5569 87.2549C26.5569 87.1349 26.6017 87.1498 26.7063 87.3004C26.781 87.4203 26.9007 87.5263 26.9604 87.5412C27.0202 87.5412 27.2742 87.6313 27.4983 87.7215C27.7374 87.8266 27.9765 87.8721 28.0512 87.8265C28.1259 87.7819 28.2155 87.8117 28.2753 87.9018C28.335 87.992 28.4396 88.0227 28.5144 87.9771C28.5891 87.9167 28.6489 87.9474 28.6489 88.0376C28.6489 88.1277 28.9477 88.1881 29.3213 88.1733C29.6948 88.1733 30.0983 88.2476 30.2179 88.3536C30.3523 88.4587 30.5017 88.5042 30.5615 88.4438C30.6213 88.3834 30.5316 88.2328 30.3822 88.1277C30.1432 87.9325 30.2029 87.9167 30.965 87.9771C31.6672 88.0227 31.8018 88.0078 31.727 87.8265C31.6821 87.6918 31.742 87.6016 31.8765 87.6016C31.996 87.6016 32.1304 87.4956 32.1755 87.3757C32.2355 87.2549 32.3397 87.1498 32.4144 87.1498C32.5039 87.1498 32.4891 87.24 32.3849 87.3757C32.2355 87.556 32.2355 87.6016 32.4439 87.6016C32.5786 87.6016 32.6837 87.4807 32.6837 87.3004C32.6837 87.0596 32.5786 86.9992 32.1608 86.9992C31.3833 86.9992 29.7695 86.1422 28.8879 85.2693C28.4547 84.8333 28.1408 84.4122 28.1707 84.322C28.2006 84.2318 28.0362 84.0515 27.8271 83.9009C27.3339 83.57 26.5569 82.4564 26.5569 82.0501C26.5569 81.84 26.6764 81.7043 26.9305 81.6439C27.3787 81.5389 27.5132 81.1633 27.304 80.6065C27.1248 80.1398 27.1995 80.0051 28.0063 79.2828C28.2902 79.0271 28.4547 78.7715 28.3948 78.6655C28.335 78.5754 28.2603 78.3653 28.2454 78.2147C28.1707 77.748 27.9018 77.5221 27.4385 77.5221C26.9604 77.5221 26.0191 77.0109 25.8247 76.6353C25.4811 76.0181 26.0639 75.1155 26.8109 75.1155C27.1845 75.1155 27.3937 74.8905 27.1397 74.725C27.0202 74.6497 27.0351 74.5893 27.1696 74.514C27.319 74.409 27.304 74.2584 27.1098 73.762L26.8708 73.115L27.319 72.6939C27.573 72.4531 27.8719 72.2579 27.9914 72.2579C28.2305 72.2579 28.2603 71.9112 28.0512 71.5059C27.9167 71.2651 27.7822 71.2196 27.2443 71.2949L26.5868 71.385L26.2282 70.5875C26.0191 70.1366 25.9144 69.7453 25.9891 69.7304C26.0639 69.7006 26.3926 69.7759 26.7213 69.9107C27.4236 70.197 27.9018 70.2119 28.4247 69.9712C28.8132 69.8057 28.9328 69.3548 28.634 69.1587C28.5294 69.0983 28.5144 68.8575 28.5742 68.5424C28.6489 68.151 28.6041 67.94 28.4097 67.7299C28.1558 67.4436 28.1558 67.4287 28.4247 67.5338C28.619 67.6091 28.6638 67.5942 28.5891 67.4743C28.5144 67.3386 28.6788 67.294 29.1718 67.294C30.7707 67.294 32.8331 66.541 32.8331 65.9693C32.8331 65.8196 32.8921 65.6384 32.9668 65.564C33.4898 64.9765 33.4151 63.6835 32.8479 63.6835C32.5491 63.6835 32.3849 63.413 32.3849 62.871C32.3849 62.4797 32.0259 62.119 31.3086 61.7574C31.0397 61.6077 30.7856 61.3669 30.7557 61.2015C30.7109 60.9152 30.7109 60.9152 30.9949 61.1559C31.1592 61.3065 31.5028 61.4264 31.7569 61.4264C32.0259 61.4264 32.2355 61.4869 32.2355 61.5622C32.2355 61.7574 32.9373 61.9228 33.9537 61.9535C35.1932 62.0139 35.7466 61.683 35.9107 60.8399C35.9707 60.5842 36.0454 60.3742 36.1053 60.3742C36.2842 60.3742 36.6725 59.5617 36.7777 59.0049C36.8376 58.6591 37.0617 58.3133 37.39 58.0121C37.7636 57.6812 37.8834 57.4711 37.8087 57.2749C37.7193 57.049 37.7036 57.049 37.5994 57.3502C37.4795 57.6514 37.0765 57.9219 36.9418 57.7862C36.8966 57.7565 37.0313 57.4859 37.2406 57.2145C37.45 56.9291 37.6141 56.5526 37.6141 56.3872C37.6141 56.192 37.7036 56.0562 37.853 56.0562C38.0181 56.0562 38.0624 56.1622 38.0181 56.403C37.9877 56.5982 38.0476 56.7785 38.1518 56.8241C38.2865 56.8687 38.4064 56.6884 38.5253 56.2673C38.9145 54.8534 39.004 54.6424 39.4227 54.1915C40.0047 53.5743 40.1993 52.5815 39.93 51.7848C39.7363 51.2429 39.6763 49.5427 39.8405 49.5882C39.9604 49.618 41.2008 48.3398 41.2008 48.1892C41.2008 48.1139 41.4093 48.0237 41.6491 47.9633C41.9027 47.9038 42.0973 47.7978 42.0973 47.7077C42.0973 47.6175 42.291 47.5878 42.6202 47.6473C42.9485 47.7077 43.1431 47.6928 43.1431 47.5878C43.1431 47.5125 43.0684 47.4372 42.979 47.4372C42.9043 47.4372 42.8591 47.3768 42.9043 47.3015C43.0684 47.0458 44.936 46.5197 45.7282 46.5197C46.49 46.5048 46.55 46.4741 46.6247 46.0986C46.6846 45.8727 46.9087 45.6022 47.1928 45.4367C47.5663 45.2257 47.641 45.1058 47.5663 44.8344C47.4916 44.5341 47.76 43.8267 48.6122 42.1572C48.7468 41.9015 48.7763 41.5102 48.7311 41.0138C48.6564 40.4272 48.6869 40.2162 48.911 40.0061C49.1646 39.7505 49.3444 38.5169 49.2992 37.2834C49.2992 37.0277 49.2697 36.1549 49.2393 35.3275C49.1794 33.8988 49.2845 33.447 49.658 33.447C49.8222 33.447 50.1514 32.9813 50.4797 32.2441C51.0027 31.0552 51.1226 30.86 51.4804 30.529C51.9443 30.0931 53.1248 28.4384 53.3037 27.9717C53.6477 27.0691 53.633 25.9862 53.2595 24.6624C53.0501 23.9402 52.8407 23.309 52.7956 23.2634C52.7356 23.203 52.3031 23.1128 51.8244 23.0524C50.868 22.9474 50.8533 22.9325 49.6432 21.7594C49.195 21.3383 48.4628 20.7666 47.9989 20.5109C47.2518 20.074 47.1181 20.0443 46.5195 20.18C46.0418 20.285 45.7725 20.2553 45.4737 20.1047C45.2496 19.9839 45.0107 19.9392 44.9213 19.9839C44.8466 20.0443 44.6077 19.9839 44.4131 19.8491C43.9649 19.5479 43.0832 19.3824 43.2178 19.6232C43.2925 19.7431 43.2178 19.7589 42.979 19.6836C42.5455 19.533 42.2762 19.2774 42.3509 19.0664C42.3813 18.9613 42.3066 18.781 42.172 18.6601C42.0521 18.5253 41.9479 18.3599 41.9479 18.2697C41.9479 18.1786 41.8879 18.1033 41.7985 18.1033C41.7238 18.1033 41.6491 18.1637 41.6491 18.2539C41.6491 18.4194 40.5875 17.9685 40.4234 17.7278C40.3634 17.6376 40.3044 17.6376 40.3044 17.7129C40.3044 17.7882 40.214 17.7575 40.095 17.6673C39.8857 17.5019 39.5122 17.382 38.8546 17.276C38.4506 17.2165 37.9277 17.5772 37.7488 18.0587C37.5099 18.6908 37.4647 18.3748 37.6889 17.7278C37.9877 16.8549 37.9729 16.7954 37.3605 16.7052C37.0165 16.6448 36.7177 16.4793 36.5978 16.299C36.4936 16.1335 36.3294 15.9978 36.2095 15.9978C36.0002 15.9978 36.0002 15.7868 36.2095 14.9149C36.2695 14.6137 36.2095 14.3878 35.9559 14.0569C35.7613 13.817 35.5224 13.606 35.4477 13.606C35.2679 13.5911 34.9248 12.4329 34.9248 11.8156C34.9248 11.4698 34.3419 10.4473 34.3272 10.7633C34.3272 10.8228 33.9537 10.5068 33.475 10.0559C33.012 9.60509 32.5638 9.22861 32.4596 9.22861C32.3545 9.22861 32.0707 9.12356 31.8018 8.98784C31.2638 8.71733 29.5305 8.56674 29.396 8.77683C29.2316 9.04827 28.1259 8.61136 27.4833 8.00992C27.1248 7.69386 26.7661 7.42336 26.6914 7.42336C26.6167 7.42336 26.5569 7.27277 26.5569 7.07755C26.542 6.89721 26.4225 6.59603 26.273 6.41569C25.8546 5.90442 24.6294 5.19701 24.3305 5.27231C24.0018 5.36247 23.7777 5.07709 23.9719 4.82146C24.196 4.52027 24.1064 4.20422 23.7627 4.03875C23.5685 3.96346 23.419 3.84354 23.419 3.78312C23.419 3.70782 23.2995 3.6632 23.1501 3.6632C23.0007 3.6632 22.7915 3.5721 22.7018 3.48193C22.5524 3.33227 22.4777 3.33227 22.3731 3.51261C22.2834 3.6474 22.2237 3.6632 22.2237 3.55723C22.2237 3.46706 22.1788 3.28672 22.134 3.151C22.0743 3.00088 22.1191 2.91062 22.2535 2.91062C22.3731 2.91062 22.5972 2.80529 22.7616 2.685C23.0156 2.4593 22.926 2.4593 21.6259 2.51954C20.8489 2.56463 20.1616 2.6098 20.1018 2.6098C20.0271 2.6098 19.9823 2.69997 19.9823 2.80529C19.9823 2.92567 19.8179 3.09151 19.6237 3.19655C19.1754 3.43731 18.1892 3.16587 18.1892 2.80529C18.1892 2.6098 18.0099 2.59474 16.9191 2.685L15.649 2.79023V2.39916C15.649 1.96291 14.9318 1.40637 14.349 1.40637C14.095 1.40637 14.0053 1.3161 14.0053 1.06038C14.0053 0.624123 13.9008 0.503738 13.6168 0.60906C13.4973 0.654237 13.4076 0.894909 13.4076 1.19572C13.4076 1.61691 13.3479 1.72224 13.0041 1.79744C12.7651 1.85758 12.3916 2.03811 12.1524 2.20357C11.7789 2.47436 11.7191 2.47436 11.8088 2.26381C11.8536 2.12837 11.8387 2.00808 11.764 2.00808C11.6743 2.00808 11.6146 1.87264 11.6146 1.70718C11.6146 1.52665 11.7191 1.40637 11.8536 1.40637C12.1225 1.40637 12.4962 1.00014 12.5111 0.699328C12.5111 0.398516 12.018 0.233048 11.5847 0.41348ZM12.2123 3.96346C12.2123 4.32506 11.9731 4.71549 11.764 4.71549C11.7042 4.71549 11.5697 4.45986 11.4652 4.12892C11.3007 3.61766 11.3157 3.51261 11.5548 3.2263L11.8237 2.91062L12.018 3.25697C12.1225 3.43731 12.1972 3.75337 12.2123 3.96346ZM15.0065 36.9524C15.2156 37.1932 15.2903 37.3735 15.2007 37.5093C15.0961 37.6896 15.0513 37.6747 14.9616 37.4637C14.9168 37.328 14.7824 37.2081 14.6778 37.2081C14.5731 37.2081 14.4536 37.0724 14.4087 36.9069C14.3042 36.5007 14.603 36.5313 15.0065 36.9524ZM43.8902 46.6851C43.8902 46.7604 43.8606 46.8357 43.8302 46.8357C43.7859 46.8357 43.7112 46.7604 43.6661 46.6851C43.6209 46.595 43.6513 46.5346 43.726 46.5346C43.8155 46.5346 43.8902 46.595 43.8902 46.6851ZM38.3169 56.4932C38.2717 56.6131 38.2265 56.5684 38.2265 56.403C38.2118 56.2375 38.257 56.1464 38.3012 56.2068C38.3464 56.2524 38.3612 56.3872 38.3169 56.4932ZM27.5282 72.1073C27.573 72.1826 27.4833 72.2579 27.319 72.2579C27.1397 72.2579 27.0052 72.1826 27.0052 72.1073C27.0052 72.0172 27.0949 71.9567 27.2144 71.9567C27.3339 71.9567 27.4833 72.0172 27.5282 72.1073ZM19.4443 74.5893C19.3846 74.7092 19.2949 74.7697 19.2202 74.725C19.0559 74.6339 19.1903 74.3634 19.3846 74.3634C19.4593 74.3634 19.4891 74.4685 19.4443 74.5893ZM19.1604 75.1313C19.3098 75.5821 19.1604 75.6276 18.9662 75.1907C18.8766 74.9807 18.8616 74.8152 18.9363 74.8152C19.011 74.8152 19.1156 74.95 19.1604 75.1313ZM19.8329 75.6276C19.8329 75.6574 19.7283 75.7178 19.6088 75.7773C19.4891 75.8229 19.3846 75.7931 19.3846 75.7178C19.3846 75.6276 19.4891 75.5672 19.6088 75.5672C19.7283 75.5672 19.8329 75.597 19.8329 75.6276ZM26.5569 85.194C26.5569 85.5556 26.8109 85.7062 27.3787 85.6755C27.8121 85.6458 27.8121 85.6606 27.4833 85.841C27.304 85.9469 27.1995 86.0966 27.2592 86.1868C27.3339 86.2621 27.2443 86.1868 27.0949 86.0213C26.8857 85.7963 26.796 85.7657 26.7362 85.9163C26.7063 86.052 26.6017 85.9767 26.4673 85.721C26.2282 85.2395 26.1834 84.6827 26.4075 84.8184C26.4972 84.863 26.5569 85.0443 26.5569 85.194ZM25.5857 85.1791C25.5409 85.2693 25.3765 85.3446 25.242 85.3446C25.0477 85.3446 25.0477 85.3148 25.3018 85.1345C25.6156 84.9086 25.75 84.9235 25.5857 85.1791Z" fill="white"/>
<path d="M35.7466 82.923C35.5825 82.9983 35.3436 83.0132 35.2237 82.9685C35.0439 82.9081 35.0291 82.9379 35.1933 83.1033C35.4478 83.3738 35.4183 83.7048 35.149 83.5997C34.7303 83.4343 34.9249 83.8256 35.3584 84.0664C35.7918 84.2923 35.8066 84.2765 36.2843 83.7206C36.5389 83.4045 36.703 83.2995 36.6431 83.4649C36.3738 84.1863 36.3738 84.2923 36.6578 84.2923C36.822 84.2923 37.2711 84.0961 37.6594 83.8554C38.3013 83.4798 38.3465 83.4194 38.1224 83.2242C37.9877 83.1033 37.5543 82.9983 37.1808 82.9834C36.8072 82.9834 36.3895 82.923 36.2696 82.8932C36.1497 82.8477 35.9108 82.8626 35.7466 82.923Z" fill="white"/>
</svg>
