<svg width="328" height="336" viewBox="0 0 328 336" fill="none" xmlns="http://www.w3.org/2000/svg">
<path d="M0 280H328V306C328 322.569 314.569 336 298 336H30C13.4314 336 0 322.569 0 306V280Z" fill="white"/>
<path d="M0 0H328V56H0V0Z" fill="white"/>
<path d="M0.5 0.5H327.5V55.5H0.5V0.5Z" stroke="white" stroke-opacity="0.2"/>
<path d="M0 56H328V112H0V56Z" fill="white"/>
<path d="M0.5 56.5H327.5V111.5H0.5V56.5Z" stroke="white" stroke-opacity="0.2"/>
<path d="M0 112H328V168H0V112Z" fill="white"/>
<path d="M0.5 112.5H327.5V167.5H0.5V112.5Z" stroke="white" stroke-opacity="0.2"/>
<path d="M0 168H328V224H0V168Z" fill="white"/>
<path d="M0.5 168.5H327.5V223.5H0.5V168.5Z" stroke="white" stroke-opacity="0.2"/>
<path d="M0 224H328V280H0V224Z" fill="white"/>
<path d="M0.5 224.5H327.5V279.5H0.5V224.5Z" stroke="white" stroke-opacity="0.2"/>
</svg>
