<svg width="32" height="32" viewBox="0 0 32 32" fill="none" xmlns="http://www.w3.org/2000/svg">
<circle cx="16.0001" cy="16.0001" r="7.68" fill="#EFC371"/>
<rect x="14.9333" y="25.6" width="3.2" height="6.4" rx="1.6" fill="#EFC371"/>
<rect x="14.9333" width="3.2" height="6.4" rx="1.6" fill="#EFC371"/>
<rect x="22.3999" y="23.9084" width="3.2" height="6.4" rx="1.6" transform="rotate(-45 22.3999 23.9084)" fill="#EFC371"/>
<rect width="3.2" height="6.4" rx="1.6" transform="matrix(-0.707107 -0.707107 -0.707107 0.707107 9.85889 23.9084)" fill="#EFC371"/>
<rect x="25.6001" y="17.0667" width="3.2" height="6.4" rx="1.6" transform="rotate(-90 25.6001 17.0667)" fill="#EFC371"/>
<rect width="3.2" height="6.4" rx="1.6" transform="matrix(4.37114e-08 -1 -1 -4.37114e-08 6.3999 17.0667)" fill="#EFC371"/>
<rect x="23.9087" y="9.85889" width="3.2" height="6.4" rx="1.6" transform="rotate(-135 23.9087 9.85889)" fill="#EFC371"/>
<rect width="3.2" height="6.4" rx="1.6" transform="matrix(0.707107 -0.707107 -0.707107 -0.707107 8.35034 9.85889)" fill="#EFC371"/>
</svg>
